<svg id="圖層_1" data-name="圖層 1" xmlns="http://www.w3.org/2000/svg" viewBox="0 0 570.33 417.64"><defs><style>.cls-1{fill:none;stroke:#464646;stroke-miterlimit:10;}</style></defs><title>dishes</title><g id="GVFQm4"><path class="cls-1" d="M482.49,163.67l3.25,4.5c1,3,2.21,6,3,9,1.25,4.76,3,9.56,3.15,14.39.17,4.46-1.06,9.09-2.34,13.46-2.5,8.56-6.95,15.88-14.77,20.78a55.14,55.14,0,0,0-5.42,4.4l.1-.07a42.85,42.85,0,0,0-4.2,1.19c-4.21,1.66-8.38,3.13-13.08,2.7-3.18-.29-6.41,0-9.62,0a7.66,7.66,0,0,1-2.92-.41c-4.15-1.82-8.24-3.78-12.37-5.62a7.34,7.34,0,0,0-2.07-.25l.1.09c-2.3-2.5-4.61-5-6.9-7.5-1.81-2-4.12-3.68-5.31-6a42.55,42.55,0,0,1-5.2-18.58c-.15-6.25-.69-12.69,1.61-18.49,1.79-4.53,5.28-8.37,8-12.55a36.83,36.83,0,0,0,1.79-3.55l-.09.1a27.47,27.47,0,0,0,3.31-1.63c2.34-1.53,4.6-3.18,6.88-4.79,1.28-.91,2.55-1.84,3.83-2.76l-.11.08c1.08,0,2.3.41,3.2,0a29.07,29.07,0,0,1,11.8-2.36c3.3,0,6.6,0,9.9-.07l-.11-.09a17.33,17.33,0,0,0,2.55,1.42c.81.29,1.85.05,2.59.44,4.37,2.34,8.69,4.78,13,7.22a9.93,9.93,0,0,1,1,.92C478.87,161,480.68,162.34,482.49,163.67Zm4.89,36.16.76,0V185.33l-.76,0Zm-76.73-2.4h.76V185.3h-.76Zm59.48,27.42c1.67.48,9.22-6.16,10.6-10ZM414.93,208c-1.36,1.88.83,5.56,4.09,6.75Zm65.61-39.61.4-.45-7-7,.17-.12ZM424.9,222.84h-.07l-5.44-6-.12.15Z" transform="translate(-14.77 -82.36)"/><path class="cls-1" d="M152.46,146.05c1.76,1.91,3.87,3.6,5.2,5.77,2.81,4.58,5.37,9.33,7.71,14.17a36.27,36.27,0,0,1,2.22,7.5c.87,3.69,1.61,7.42,2.37,11.14.14.68,0,1.4.15,2.09.37,2.72.8,5.42,1.17,8.13a5.72,5.72,0,0,1,0,1.8c-.76,3.89-1.35,7.83-2.4,11.64-2.1,7.6-4.36,15.11-8.2,22.13-4.61,8.44-11,15.29-18.07,21.54a59.48,59.48,0,0,1-19.22,11.16c-6.65,2.44-13.19,5.16-20.49,5.12-1.72,0-3.49,1.18-5.16,1-5.56-.56-11.12-1.36-16.63-2.3-4-.69-8.3-1.14-12-2.78a196.94,196.94,0,0,1-19.4-10.33c-2.27-1.33-3.68-4.17-6-5.43a3.82,3.82,0,0,1-2.26-3.32,7.74,7.74,0,0,1,2.51.84c3,2.43,5.87,5.06,8.89,7.47a34.86,34.86,0,0,0,6.55,4.51,95.74,95.74,0,0,0,13.37,5.38A78.58,78.58,0,0,0,88.3,266.6c9.15.81,18.32.4,27.2-2.39,1.86-.59,3.54-1.78,5.4-2.36a64.68,64.68,0,0,0,20.87-11.46,50.85,50.85,0,0,0,8.27-8.32,98.85,98.85,0,0,0,9.79-14.24c2.67-5,4.35-10.61,6.32-16a57.76,57.76,0,0,0,1.54-6.16,23.55,23.55,0,0,1-4.63.67c-1.43-.09-2.82-.82-4.26-1.06-3.42-.57-6.87-1-10.29-1.51-2.82-.46-5.6-1.12-8.42-1.55a44.48,44.48,0,0,0-4.9-.34c-.53,0-1.13.29-1.59.14a59.5,59.5,0,0,0-19.21-3.19c-1.81,0-3.82.49-5.4-.13-3.66-1.41-6.66.08-9.63,1.59-1.93,1-3.42,1.31-5.5.23-1.27-.67-3.15-.4-4.72-.22-1.72.2-3.37.9-5.08,1.16-5.75.88-11.5,1.72-17.27,2.45-1.89.24-3.82.05-5.74.13-1.72.08-2,.78-1.14,2.34a12.5,12.5,0,0,1,.67,3.49l-1.06.17c-.14-1.1-.28-2.19-.45-3.5l-2.61,1.33L58.28,205c-3-.37-5.49-.88-8-.94-3.44-.08-6.88.16-10.34,0-6.38-.23-12.39-1.42-18.08-4.94a10.4,10.4,0,0,0-.16,2c.37,2.93.81,5.84,1.25,8.76a8,8,0,0,0,.43,1.39c1.1,3.12,2.09,6.28,3.35,9.33,1.37,3.33,2.63,6.81,4.62,9.77,3,4.39,6.55,8.37,9.78,12.58.41.52.31,1.43.44,2.16-2.33-2.1-5.16-3.86-6.9-6.37a102.08,102.08,0,0,1-8.5-14.72c-2.28-4.91-4.37-10-4.66-15.61a91.81,91.81,0,0,0-1.22-9.63c-.11-.69-.85-1.28-1.29-1.92A40.14,40.14,0,0,1,16.4,193c-2-3.83-1.38-5.66,2.19-8a4.77,4.77,0,0,0,1.72-2.58c1.25-4.28,2.27-8.62,3.5-12.89A54.75,54.75,0,0,1,26.73,161a51.81,51.81,0,0,1,5.93-10.08A165.1,165.1,0,0,1,45.5,136.8a53.72,53.72,0,0,1,8.82-6.43,64.82,64.82,0,0,1,9.6-5.47c4-1.7,8.36-2.68,12.49-4.15,8.79-3.12,17.88-2.67,26.93-2.29,3.08.13,6.15,1.21,9.18,2a88.18,88.18,0,0,1,10.14,3,62.84,62.84,0,0,1,10.22,5,92.46,92.46,0,0,1,12.71,9.08c2.71,2.4,6.54,4.22,7,8.58-1-.79-2-1.57-3-2.37-5-4.1-9.75-8.44-14.94-12.22-3-2.21-6.71-3.57-10.14-5.25A58.84,58.84,0,0,0,108.11,121a141.4,141.4,0,0,0-17-1.26c-1.82-.07-3.67.63-5.49,1.06-5.54,1.3-11.24,2.17-16.56,4.1a87.8,87.8,0,0,0-15.59,7.68c-3.51,2.14-6.38,5.32-9.54,8a58.08,58.08,0,0,0-13,17,104.69,104.69,0,0,0-5.58,12.86,72.17,72.17,0,0,0-2.45,9.24c-.36,1.61-.44,3.28-.66,5.07.8,0,1.79.16,2.78.16,6.45,0,12.9-.1,19.36,0s12.65-.18,19-.06c9.07.16,18.14,0,27.22,0a8,8,0,0,1,3,.19,15.1,15.1,0,0,0,11.85.12,1.68,1.68,0,0,1,1.15,0,15.25,15.25,0,0,0,11.57,0,8.55,8.55,0,0,1,3.56,0c3.14.29,6.26.72,9.4.9.5,0,1-1,1.58-1.49l-.09.09c1.89.5,3.77,1.4,5.67,1.43,8.94.14,17.88,0,26.82,0a21.59,21.59,0,0,0,2.21-.2c1.35-6.24-1.26-11.67-2.95-17.07-1.51-4.83-4.39-9.25-6.84-13.76-1.26-2.32-2.93-4.41-4.31-6.67A9.64,9.64,0,0,1,152.46,146.05Zm-59.4,51.37-.11-.09c2.59,3.73,5,.57,7.66,0l-.78-1.92c7.82,2.65,15.6.14,23.33-.43l0,1-4.47.75A134.26,134.26,0,0,0,133,198.89a4.39,4.39,0,0,1,1.48.18,8.59,8.59,0,0,0,8.66,0c1.41-.73,3.51-.12,5.3-.12l0,.83-4.6.53,0,.85c1.87,0,4.08.62,5.55-.15,1.94-1,3.42-1.28,5.26,0l-3.22.76.05.54,14.06,1.86c.18-1.53,0-2.62.41-3,1.58-1.29,4-2.08,1.63-4.73-.13-.14.6-.91.71-1.44.24-1.07.33-2.17.54-3.66l-3.06,1.39,1.83-4.21a25.35,25.35,0,0,0-4.55-.86c-17.12-.06-34.24.09-51.36-.1-7.11-.07-14.26-.63-21.33-.88-22.43-.82-44.91-.25-67.37-.4-2.86,0-4.79.76-6.32,3.28,1.05,1.89,1.8,4.14,3.27,5.7,5,5.31,12.09,6.51,18.68,7a188.5,188.5,0,0,0,36.85-1.06,4.14,4.14,0,0,0,.6-.09Z" transform="translate(-14.77 -82.36)"/><path class="cls-1" d="M81.44,324.8a5.85,5.85,0,0,0,.6-1.6c0-4.73,0-9.48-.17-14.21-.24-5.16-.81-10.3-1.1-15.46,0-.9.63-1.83,1-2.75a12.11,12.11,0,0,1,1.5,2.28c2.09,5.6,1.92,11.58,2.92,17.32,1.23,7,.5,14,1,20.91.17,2.34.88,4.64,1,7a23.87,23.87,0,0,1-.66,5.48,75.46,75.46,0,0,1-1.72,7.43A11.63,11.63,0,0,1,84,354.74c-1.63,2.25-3.49,4.32-5.1,6.59a4.76,4.76,0,0,0-.51,2.55c0,8.57-.68,17.2.13,25.69.69,7.26.76,14.5,1.13,21.74.27,5,.84,10.07,1.26,15.1s.7,10.1,1.29,15.12c.68,5.86,1.7,11.67,2.42,17.52.55,4.42.81,8.87,1.31,13.29.3,2.63.89,5.24,1.24,7.87.8,6-5.18,10.92-10.76,10.79-5.16-.12-9.68-1.28-11.17-6.49-1-3.45-.32-7.39-.31-11.11,0-.65.57-1.28.61-1.94.49-8,.88-16,1.41-23.93.32-4.82.85-9.62,1.28-14.44.41-4.64.89-9.27,1.18-13.92.51-8.21.67-16.46,1.45-24.65.27-2.79,1.26-5.24.09-8.25-.7-1.79.93-4.36.86-6.56-.19-6.15-.69-12.3-1.13-18.44a3.67,3.67,0,0,0-.78-1.55c-2.49-3.75-5.11-7.43-7.44-11.28-.66-1.08-.43-2.69-.66-4s-.61-2.45-.76-3.69a17.91,17.91,0,0,1,.23-2.14c0-2.53.06-5.06,0-7.59,0-1-.56-1.93-.46-2.85.24-2.24.9-4.43,1.08-6.67.51-6.34.8-12.7,1.32-19a90.2,90.2,0,0,1,1.28-9.25c.16-.87,1-1.61,1.55-2.41l1.09.12c0,1,0,1.92,0,2.88,0,.49-.16,1-.16,1.47q0,15,0,29.93a2.29,2.29,0,0,0,.84,1.7,7.18,7.18,0,0,0,.44-1.71c.06-4.23-.08-8.47.1-12.7.27-6.27.69-12.54,1.19-18.8.07-1,.89-1.91,1.37-2.86l1-.14c.47,1.36,1.29,2.71,1.34,4.08.19,5.24,0,10.49.22,15.72a62.07,62.07,0,0,0,1.26,7.72l.75,0c.1-1,.27-1.94.28-2.91,0-7.26,0-14.51.06-21.77,0-.9.72-1.8,1.1-2.7a7.9,7.9,0,0,1,1.35,2.42c.53,3.3,1,6.62,1.23,9.95.51,6.76.85,13.54,1.29,20.31C80.74,323.83,81.07,324.14,81.44,324.8ZM71.07,434.91c-.55.85-1.5,1.65-1.59,2.55-.58,5.42.17,10.81-1.11,16.34-1.42,6.12-1.05,12.65-1.57,19-.18,2.22-.76,4.4-1,6.62a7.24,7.24,0,0,0,.06,3.28A10.27,10.27,0,0,0,80,488.31c5-2.47,6.09-5.43,5.67-9.69-.18-1.73-1-3.4-1.18-5.13-.53-4.61-.89-9.24-1.31-13.85,0-.2,0-.41-.05-.61-.78-4.31-2.1-8.61-2.26-12.94a165.55,165.55,0,0,0-2.53-26A84,84,0,0,1,77,405.3c-.2-14.21-.15-28.42-.14-42.63a5.08,5.08,0,0,1,.83-2.75c1.56-2.17,3.63-4,4.88-6.34,1.45-2.7,3.3-5.28,3.16-8.75-.52-12.41-.81-24.84-1.22-37.25a5.48,5.48,0,0,0-.61-1.61l-.82.14v31.15c-2.48-.19-3.56-1.15-3.65-3.25-.33-7.68-.76-15.36-1-23-.13-3.22,0-6.46,0-9.68l-1.42,0c0,1.69.12,3.39,0,5.08-.55,6.61,1.49,13.37-1.16,19.88-.21.52.22,1.31.36,2,.11.5.5,1.16.31,1.46-1.55,2.49-.79,4.85.64,8.26-1.74-.84-3.62-1.24-3.71-1.89-.67-4.88-1.15-9.8-1.37-14.73s0-9.67-.06-14.5a10.29,10.29,0,0,0-.4-1.94c-1,6.45-1.55,12.77-2,19.11-.21,3.41-.06,6.85-.13,10.27,0,1.3.54,3-1.78,3.06s-2.09-1.62-2.08-3.1c0-8.56.05-17.13.06-25.69,0-.8-.14-1.6-.27-2.93-.64.76-1,1-1,1.2-.39,6-.83,12.1-1.08,18.16-.2,4.83-.16,9.67-.23,14.5-.06,4,.39,7.85,2.52,11.31a42.22,42.22,0,0,0,4.61,6.69A5.94,5.94,0,0,1,72,362.56a2.8,2.8,0,0,0,.28.94L75,362.26c-.63,5.84-1.53,11-1.65,16.2-.12,4.91.71,9.84.87,14.76.16,5.16,0,10.32,0,15.48l-1.11,0v-8.22l-.85,0c-2,10.66,2.31,21.34.65,32l-1.11,0V422L71,422V435Z" transform="translate(-14.77 -82.36)"/><path class="cls-1" d="M371.39,193.76c-1.36.45-2.73,1.33-4.07,1.28-7.39-.26-14.76-.77-22.14-1.13a23.83,23.83,0,0,0-7.45.66,3.62,3.62,0,0,0,1.14.55c6.87.48,13.75.87,20.62,1.39,3.24.24,6.49.64,9.7,1.16.76.12,1.4,1,3,2.21-2.16.69-3.51,1.48-4.87,1.5-7.56.11-15.11,0-22.66,0a5.76,5.76,0,0,0-3.19.8c.39.19.77.55,1.17.57,8.3.39,16.6.7,24.89,1.17a15.74,15.74,0,0,1,3.88,1.23c0,.42,0,.85,0,1.27a20.47,20.47,0,0,1-4.17,1.23c-7.71.66-15.43,1.19-23.18,2.24H370.9l.35.89c-.74.62-1.37,1.54-2.22,1.81a66.2,66.2,0,0,1-19.21,2.86c-4.88.09-9.73,2-14.61,2-6.07.06-12.22,1.42-18.31-1.6a21.39,21.39,0,0,1-7.25-5.32c-3.73-4.46-8.68-4.49-13.75-4.1-4.81.36-9.6.93-14.41,1.3-6.45.49-12.91.82-19.36,1.3-4.65.35-9.28.85-13.92,1.24-5.46.45-10.92.8-16.37,1.3-3.44.31-6.86.78-10.29,1.21a10.05,10.05,0,0,0-2.31.52c-4.7,1.81-8.26.24-10.14-5.39a39,39,0,0,1-1.32-5.1c-.72-3.73,1.28-6.76,2.86-9.81,1.17-2.26,5-2.75,7.58-2.28,3.33.61,6.81.25,10.19.65,5.27.62,10.51,1.56,15.76,2.32,3.23.46,6.45,1,9.69,1.25,7.16.55,14.34.9,21.5,1.44,3.86.29,7.69.83,11.54,1.21q6.64.66,13.29,1.21a10.66,10.66,0,0,0,8.81-3.49c2.16-2.16,4.67-4,7-5.9.3-.25.71-.66,1-.6,4.82.91,9.27-2.43,14.4-.71,3.61,1.2,7.86.41,11.81.68,5.06.33,10.13.64,15.15,1.31,4.3.58,8.53,1.65,12.8,2.5Zm-116.64,14h10.76l-.86-2.48c8-1,15.63,2.63,23.45.16l-4.45-.68c.4-.74.76-.94,1.11-.94,5.64,0,11.28,0,16.92.12a7.16,7.16,0,0,1,1.93.67c3.62,1.21,6.09,4,8.94,6.3,2.3,1.87,5.29,4.05,8,4.06,10.7,0,21.4-.68,32.1-1.25,1.2-.06,2.35-1,3.53-1.5l-.28-1a59.85,59.85,0,0,1-7.69,1.27c-5.83.23-11.68.22-17.53.13-1.1,0-2.2-.89-3.93-1.64,1.45-1,2.19-1.81,3-1.95,3.59-.58,7.21-1.07,10.84-1.38,5.76-.48,11.53-.79,17.3-1.2.2,0,.37-.38,1.08-1.16H327.57v-3.38c4.16-.63,8-1.54,11.92-1.73,6-.29,12.08-.07,18.13-.11,1.14,0,2.29-.2,3.44-.3a19.28,19.28,0,0,0-6.95-2c-8.16-.6-16.34-1-24.5-1.51a7.22,7.22,0,0,1-2.22-1c.46-.73.76-1.73,1.42-2.13a5.8,5.8,0,0,1,2.83-.58c7.85,0,15.7,0,23.55,0a26,26,0,0,0,2.68-.34c-.86-.55-1.08-.8-1.31-.81-11-.46-22.08-1.13-33.13-1.24-4.75-.06-9.39,1.24-12.5,5.55a9.61,9.61,0,0,1-3.24,3.11,20.6,20.6,0,0,1-7.08,2.31c-2.61.2-5.29-.73-8-.94-6.76-.53-13.53-.93-20.29-1.39q-.3,0-.6-.06c-5.75-.77-11.49-1.66-17.27-2.28-3.09-.33-6.26,0-9.35-.33-5.07-.59-10.11-1.54-15.16-2.32-.79-.12-1.6-.12-2.4-.2l-14.06-1.44c-1.41,3.05-2.07,5.6-3.57,7.5-2.4,3.07,1.46,5,.47,7.73l2.14-.72c-.3,1.19-1.05,2.57-.67,3a5.91,5.91,0,0,0,3.19,1.72,18.23,18.23,0,0,0,3.91,0c2,0,4.11,0,6.17,0v-1l-4.37-.64.13-1c1.85.2,3.81.08,5.52.68,4.18,1.46,8.28.45,12.4.58l.08-.8-5.59-.72a18,18,0,0,1,6.62-.69c4.53.28,9,.72,13.57,1,.41,0,.87-.73,1.31-1.12Z" transform="translate(-14.77 -82.36)"/><path class="cls-1" d="M101,326.31c.49-2.3,1.72-4.43,2.62-6.64l1.12.3v29.51l.88,0c1.42-9.8-1.43-20.2,3.08-30.37.75,1,1,1.2,1,1.36q.66,14.22,1.3,28.43c0,1.1.21,2.2.33,3.3l.83,0c.1-2,.27-4,.28-6.06,0-4.44-.17-8.88,0-13.31.17-4,.68-8,1.16-12,0-.42.92-.75,1.4-1.12.35.52,1,1,1,1.55.5,5.94.91,11.89,1.34,17.83.06.94.11,1.89.17,2.83h.92V320l.87-.26c.57.72,1.49,1.37,1.66,2.17a90.56,90.56,0,0,1,1.37,9c.54,5.42.27,11,1.52,16.26,2,8.2.81,16.39.89,24.55,0,2.57-.53,6-3.77,7.51.12-.79.18-1.59.35-2.36.71-3.11,2.06-6.22,2-9.32,0-8-.58-16-1.08-23.93-.18-2.85-.81-5.68-1.23-8.51l-.58.08V363.5c-1.12,0-3,1.19-3.15-1.65q-.62-10.08-1.24-20.17c-.08-1.39-.2-2.77-.34-4.75-.71.82-1,1-1.06,1.25-.42,5.76-.85,11.52-1.17,17.29-.14,2.51,0,5,0,7.55,0,.61-.32,1.54-.74,1.71a1.92,1.92,0,0,1-1.76-.6,5.49,5.49,0,0,1-1.19-2.83c-.12-7.35-.08-14.7-.12-22.05,0-1-.14-2-.21-3h-1.08c-.35,3.18-.65,6.37-1,9.54-.64,5.09,1.24,10.41-1.38,15.31-.45.84-.92,1.67-1.38,2.5a12.16,12.16,0,0,1-1.06-3c-.47-6.16-.81-12.32-1.23-18.47,0-.3-.41-.56-.9-1.19a11.94,11.94,0,0,0-.43,2c0,8.67,0,17.33,0,26,0,4.15.84,8,4.19,11a12.72,12.72,0,0,1,3.32,3.8c1.32,2.85,3.31,5.76,1.25,9.14-.06.09.29.42.59.85.54-.86,1-1.56,1.41-2.26.26,2.66,2.36,5.78-2.35,6.9.56,12.31,1.12,24.51,1.67,36.7l-.75.07-1.52-2.67c-.26,4.13-.47,7.48-.68,10.83l.1-.07c-.34.47-.93.93-1,1.43-.48,6-.89,12-1.32,18.06a3.71,3.71,0,0,1-.18,1.16,12.18,12.18,0,0,0,0,9.93c.76,1.86.13,4.29.13,6.47l-.77.05c-.11-.7-.24-1.4-.33-2.1s-.17-1.53-.25-2.29l-.88.06c-.08,1.34-.24,2.69-.22,4,0,4.87,1,5.24,5.61,7.34,4.19,1.9,7.08-.47,10.5-1.48,2.4-.71,3.17-2.33,2.85-4.59s-1.16-4.81-1.19-7.22c-.06-5.07-1.36-9.85-2.45-14.74-1.32-5.93-1.82-12.05-2.61-18.09-.49-3.71-1-7.43-1.23-11.16-.48-8-1-16-1.08-23.95-.06-5,.6-10.06.9-15.09.11-1.71-.42-3.66.25-5.08a45,45,0,0,1,4.71-7.09c.13-.19.93.1,1.42.16a12.15,12.15,0,0,1-1.7,3.24,10.38,10.38,0,0,0-3.26,7.92c.12,8.47-.09,16.94.12,25.4.17,6.95.56,13.92,1.23,20.85.56,5.86,1.61,11.68,2.5,17.52.79,5.15,1.69,10.3,2.48,15.45.47,3.11.79,6.24,1.24,9.35.21,1.38,1.16,2.95.76,4.08-2.66,7.53-16.56,9.1-20.82,3.59-2-2.64-3.78-5.12-1.76-8.83,1.12-2.06,1.29-4.74,1.5-7.18.58-6.63.79-13.3,1.47-19.92.51-5,1.53-9.88,2.29-14.83.12-.78,0-1.61.08-2.41,1.84-14.15,1-28.37,1.29-42.57,0-2.9-.92-5-3.1-7.41-2.79-3.12-6.57-6.39-5.86-11.8.35-2.63-1.36-5.55-.88-8.11,1.64-9,.46-18,1.15-26.92A76.92,76.92,0,0,1,101,326.31" transform="translate(-14.77 -82.36)"/><path class="cls-1" d="M460.8,400c3.05-4.24-.81-8.34-.21-12.62s.13-8.62.13-13.09h-12.1c1,3.24.56,6.61,0,10.28-.75,4.8.42,9.86.48,14.82a47.58,47.58,0,0,1-.69,11.08c-1.37,6-2,11.72-.66,17.82.58,2.75,2.08,6.05-1.37,8.93-1.26,1-.71,4.54-.58,6.9.27,5.06.85,10.1,1.23,15.15.12,1.54,0,3.1,0,4.66l-1.17,0v-8.08l-1.42,0a117.88,117.88,0,0,0,1.74,26.27c-1.21-.7-1.48-.76-1.5-.88-2-9.64-2.75-19.53-1.27-29.11,1-6.4-.29-12.78,1.1-18.92,1.63-7.16.17-14.38,1.22-21.42,2.24-15,.73-30,1-45,.06-3.3-1.36-6.63-2.1-9.94a8.12,8.12,0,0,1-.21-1.18c-.47-7.43-.91-14.87-1.4-22.3-.38-5.85-.17-11.83-1.4-17.51-2-9.09-.82-18.16-.81-27.22,0-5.92,1.24-11.89,2.4-17.75.82-4.15,2.41-8.15,3.74-12.19.14-.4.91-.59,1.39-.88a70.75,70.75,0,0,0-2.45,8.66c-1.09,6.82-2.59,13.69-2.57,20.54,0,14.79-1.11,29.59.94,44.39,1,7.1,1.21,14.3,2.53,21.42,1.07,5.75,1,11.71,1.56,17.56a2.76,2.76,0,0,0,1.84,1.91,69,69,0,0,0,8.75-.06,2.43,2.43,0,0,0,1.75-1.46,54.48,54.48,0,0,0,1.25-7.51c.51-6,1-12,1.24-18.06.8-20.64-.95-41.3,1.14-61.94.9-8.88.31-17.92,0-26.88a11,11,0,0,0-2.65-5.95c-1-1.25-6.58-.15-7.88,1.23-1.92,2-3.73,4.17-5.59,6.26-1-3.82,2.17-5.3,4.26-7.26.95-.89,2.44-1.21,3.7-1.75,5.16-2.24,9.64.53,9.65,6.19,0,22.38.77,44.79-.38,67.1-.59,11.41,0,22.81-1,34.16-.47,5.36-2,10.64-2.26,16s.61,10.68.91,16q.24,4.22.26,8.45c0,7.56,0,15.12,0,22.67a34.19,34.19,0,0,0,.58,4.22c-1.91.75-2.06-.59-2.06-2.13,0-5.54.08-11.08,0-16.63a20.2,20.2,0,0,0-.83-4c-.08-.38-.42-.9-.28-1.1" transform="translate(-14.77 -82.36)"/><path class="cls-1" d="M186.35,452.76c-.49-.22-1.12-.32-1.44-.7-2.91-3.4-6-6.54-7.71-11-1.45-3.78-4.46-6.93-6.34-10.58a148,148,0,0,1-8.09-17.38c-1.93-5.35-2.54-11.15-4.15-16.63A68.26,68.26,0,0,1,156.09,376c0-1.29-1.17-2.65-1.05-3.9.61-6.38,1.47-12.73,2.24-19.09a12.59,12.59,0,0,0,.1-1.5c-.08-6,1.52-11.64,3.59-17.2,2.3-6.19,4.05-12.6,6.71-18.62a107.34,107.34,0,0,1,8.43-15c3.32-5.09,7.11-9.88,10.85-14.68.59-.75,2-.86,3-1.26l-.05-.06a48.09,48.09,0,0,1-3.19,5c-1.52,1.85-3.66,3.25-4.94,5.23-3.11,4.84-6.1,9.79-8.73,14.9a170.24,170.24,0,0,0-7.83,17.18,107.74,107.74,0,0,0-3.94,14.34c-1.37,6-3.31,12-3.47,18-.29,10.66.6,21.36,1,32a3.88,3.88,0,0,0,.19.87c.77,2.88,1.61,5.74,2.29,8.64.58,2.47.72,5.07,1.53,7.46a102.61,102.61,0,0,0,5,12.73c5.11,10.26,10.22,20.55,17.73,29.39.49.57.48,1.57.71,2.38Z" transform="translate(-14.77 -82.36)"/><path class="cls-1" d="M350.24,480.59a12.57,12.57,0,0,1-2.39,2.53,118.09,118.09,0,0,1-10.84,6,74.57,74.57,0,0,1-8.92,3c-4.94,1.56-9.87,3.18-14.85,4.63a33.13,33.13,0,0,1-7.5,1.6c-11.08.54-22.23,1.69-33.25,1-7.08-.46-14.44-1.39-21.31-4.33-4.56-1.95-9.76-2.4-14.36-4.29-5.16-2.13-10-5.07-14.91-7.75-2.66-1.45-5.24-3.06-7.81-4.68-1.9-1.19-3.78-2.45-5.59-3.79-3.47-2.57-7-5.12-10.26-7.91-.89-.74-1.09-2.29-1.6-3.48l-.07.08c5.6,4.17,11.16,8.41,16.83,12.49A71.69,71.69,0,0,0,223.3,482c6.26,3.08,12.71,5.81,19.17,8.47a66.27,66.27,0,0,0,9,2.73c4.09,1,8.18,2.11,12.34,2.74,5.93.88,11.9,1.63,17.89,2,3.72.2,7.48-.61,11.23-.78,4-.18,8.2.5,12.05-.36,6.66-1.5,13.14-3.84,19.66-5.93,6.35-2,12.8-3.77,18.56-7.37,2.12-1.33,4.72-1.89,7.1-2.8Z" transform="translate(-14.77 -82.36)"/><path class="cls-1" d="M225.69,176.31c2.69.47,5.55.51,8.05,1.48,8,3.08,22.07.43,27.84-5.72,1.6-1.7,2.68-3.89,4.21-5.68a3.81,3.81,0,0,1,2.68-1.31c2.53.15,5,1,7.55,1,7.15.13,14.3.15,21.44-.07,5-.16,9.87-.79,14.81-1.17a23.08,23.08,0,0,1,3.08.33l-2.81,1.46c.24.28.41.66.59.67,1.6,0,3.22-.05,4.82,0,6,.38,12.06,1,18.1,1.14,3.4.06,6.81-.78,10.23-1.16a10.74,10.74,0,0,1,2,.17l.06.91h-8l.08,1.32c6.95.85,13.76-.16,20.68-2l-.23,1.73,0,0a57.65,57.65,0,0,1-20.24,1.9c-6.69-.55-13.34-1.67-20-2.21-4.94-.4-10.05.39-14.86-.52-11.88-2.25-23.79-.35-35.67-1a6.81,6.81,0,0,0-4.36,1.83c-3.89,3.52-6.95,8-12.3,9.72a16.26,16.26,0,0,1-3.36.91,77.92,77.92,0,0,1-14.57-.08c-3.26-.32-6.42-1.71-9.61-2.68-.15,0-.12-.67-.18-1Z" transform="translate(-14.77 -82.36)"/><path class="cls-1" d="M219,260.46c2.24-1.53,4.3-3.47,6.74-4.5,7.82-3.3,15.7-6.53,23.73-9.24,4.33-1.46,9.1-1.58,13.55-2.75,10.86-2.84,21.91-2.41,32.94-2.19,3,.07,6.07,1.34,9.11,2a75.19,75.19,0,0,0,7.52,1.5c5.81.66,11.11,2.8,16.6,4.6,3.45,1.13,6.22,3.34,9.61,4.32.47.14.76,1,1.13,1.44l.07-.08a26.48,26.48,0,0,1-4.19-1.05c-2.79-1.2-5.37-3-8.24-3.84-5.54-1.61-11.18-2.9-16.84-4-5.5-1.06-11.07-2.38-16.61-2.38-9.25,0-18.59-1.31-27.79,1.05-3.13.8-6.47.78-9.66,1.41a84.65,84.65,0,0,0-20.05,6.36c-3.87,1.83-7.6,4-11.51,5.7a36.82,36.82,0,0,1-6.18,1.58Z" transform="translate(-14.77 -82.36)"/><path class="cls-1" d="M409.3,342.7c.42.25,1.14.44,1.19.76.5,2.69.73,5.45,1.32,8.12,2.47,11.11,1.25,22.36.94,33.52-.16,5.65-2.05,11.28-3.3,16.88-.8,3.58-1.78,7.13-2.86,10.64a71.55,71.55,0,0,1-2.78,7.35,104.91,104.91,0,0,1-4.76,10.32c-2.92,5.16-6.13,10.15-9.36,15.12-.71,1.08-.74,3.44-3.17,2.51l.08.08c0-.69-.14-1.53.19-2,1.71-2.72,3.61-5.32,5.33-8,2.37-3.72,5-7.32,6.85-11.29,2.16-4.65,3.2-9.83,5.42-14.44,3.24-6.71,4.47-13.91,5.88-21,1-5.2,1-10.62,1.26-15.95.18-4.42.2-8.86,0-13.28-.16-3.32-.83-6.62-1.23-9.94-.37-3.1-.67-6.2-1-9.31Z" transform="translate(-14.77 -82.36)"/><path class="cls-1" d="M335.21,156.25c-.7.76-.82,1-1,1-5.34.49-10.67,1-16,1.41-6.56.49-13.28.16-19.67,1.47-9.12,1.88-18.19.93-27.25.71-3.17-.07-6.86-.62-9.14-4.67-3-5.27-8.43-7.48-14.58-7.56-1,0-2-.18-3-.27l.11-1.27c2.75.22,5.54.23,8.24.71,5.31,1,8.13,5.33,11.62,8.81a7,7,0,0,0,4.06,1.82c6.95.58,13.93,1.37,20.88,1.21,6.28-.14,12.52-1.55,18.81-2.13,3.7-.35,7.46-.05,11.17-.28,4.24-.27,8.46-.84,12.69-1.22A20.36,20.36,0,0,1,335.21,156.25Z" transform="translate(-14.77 -82.36)"/><path class="cls-1" d="M419.27,161.17a36.83,36.83,0,0,1-1.79,3.55c-2.68,4.18-6.17,8-8,12.55-2.3,5.8-1.76,12.24-1.61,18.49a42.55,42.55,0,0,0,5.2,18.58c1.19,2.29,3.5,4,5.31,6,2.29,2.5,4.6,5,6.9,7.5-.75-.21-1.75-.17-2.21-.65-4.2-4.49-8.57-8.88-12.34-13.72-1.62-2.09-2.27-5.11-2.81-7.82a115.14,115.14,0,0,1-2.39-15.93c-.16-2.87,1.24-5.82,1.92-8.74.38-1.61.42-3.36,1.12-4.8a91.71,91.71,0,0,1,5.85-10.66C415.61,163.75,417.64,162.59,419.27,161.17Z" transform="translate(-14.77 -82.36)"/><path class="cls-1" d="M463.42,449.38c-.27-7.1.28-14.16-.25-21.23a3.45,3.45,0,0,1,.89-2.5,4.49,4.49,0,0,1,.55,1.41c.07,1.61,0,3.22,0,4.83.4,16.28.84,32.55,1.22,48.83a7.46,7.46,0,0,1-7.28,7.63c-4.32,0-8.86.88-12.82-1.38a8.89,8.89,0,0,1-3.74-4.55c-.65-1.93-.15-4.25-.15-6.39l1.23,0c0,1,0,2,0,3,0,4.08,2.2,7.43,6.2,7.75,4.27.33,8.86,1.36,12.89-1.22,1-.62,2.14-1.87,2.16-2.86.18-8.45,1.16-17.08-.17-25.33a64.65,64.65,0,0,1-.76-8" transform="translate(-14.77 -82.36)"/><path class="cls-1" d="M469.38,230.21a55.14,55.14,0,0,1,5.42-4.4c7.82-4.9,12.27-12.22,14.77-20.78,1.28-4.37,2.51-9,2.34-13.46-.18-4.83-1.9-9.63-3.15-14.39-.81-3.06-2-6-3-9,1.33,2.21,3,4.29,3.91,6.67A72.12,72.12,0,0,1,492.27,185a43.64,43.64,0,0,1,1.26,8.38c.12,6.91-2.06,13.3-5.49,19.19a60.09,60.09,0,0,1-7.47,10.79c-2.64,2.81-6.21,4.74-9.43,7C470.75,230.55,470,230.25,469.38,230.21Z" transform="translate(-14.77 -82.36)"/><path class="cls-1" d="M485,151c10,6.4,21,8.93,32.33,6s20-9.79,24.42-21.31c1.2,5.63-9.15,17-20.08,21.57C508.42,162.78,491,157.92,485,151Z" transform="translate(-14.77 -82.36)"/><path class="cls-1" d="M534.07,230.1a21.7,21.7,0,0,1,3.44.89c4.26,1.88,8.66,3.51,13.32,2.94,6.94-.86,13.75-2.4,19-7.57,2.06-2,4.38-3.86,6.07-6.16a74.22,74.22,0,0,0,6.49-10.56c.76-1.51.36-3.61.84-5.4,2,2.89.44,5.53-.64,8.11a41.09,41.09,0,0,1-13.51,16.93c-3.1,2.35-7.19,3.52-11,4.84a35.18,35.18,0,0,1-7.49,1.32c-6.13.69-11.33-2.25-16.78-4.2C533.94,230.86,534,230.48,534.07,230.1Z" transform="translate(-14.77 -82.36)"/><path class="cls-1" d="M360.9,169.41c2.62-2.82,4.6-4.71,1.39-13.38l-1.62,1.17c-1.33-.67-2.59-1.45-.57-3.26-8.17.11-15.77,3.31-24.14,1.87.61-.57.8-.9,1-.93,3.51-.47,7-.91,10.56-1.35s7.26-.85,10.88-1.31c2.12-.28,3,1.06,4.33,2.47,2.85,3.12,2.59,6.72,2.49,10.38-.14,4.79-4.2,8.09-8.74,6.54.93-.16,1.86-.32,2.8-.46s2.43,0,1.63-1.8A.31.31,0,0,1,360.9,169.41Z" transform="translate(-14.77 -82.36)"/><path class="cls-1" d="M409.3,342.7h0c-.49-.46-1.25-.83-1.42-1.39-.92-2.95-1.82-5.91-2.47-8.93-1.58-7.21-4.89-13.73-8.23-20.17-2.57-4.93-6-9.39-8.92-14.15a56.12,56.12,0,0,1-2.84-6.2l-.07.08c2,2.27,4.34,4.3,5.87,6.84,3.84,6.38,7.52,12.86,10.82,19.52,2,4,3,8.56,4.75,12.77C408.3,334.82,409.81,338.53,409.3,342.7Z" transform="translate(-14.77 -82.36)"/><path class="cls-1" d="M493.6,86.75c-.32.46-.53,1.16-1,1.35-9.27,4-15.51,10.86-19.21,20.14A39.48,39.48,0,0,0,471,125.59c.1,1.6.91,3.14,1.23,4.74a2.35,2.35,0,0,1-.76,1.68c-2.11-6-3.07-12-.88-18.17,1.07-3,1.51-6.24,2.82-9.11a33.26,33.26,0,0,1,4.77-7,42.67,42.67,0,0,1,11.54-10.13c1.11-.64,2.64-.53,4-.77Z" transform="translate(-14.77 -82.36)"/><path class="cls-1" d="M427.29,228c4.13,1.84,8.22,3.8,12.37,5.62a7.66,7.66,0,0,0,2.92.41c3.21,0,6.44-.26,9.62,0,4.7.43,8.87-1,13.08-2.7a42.85,42.85,0,0,1,4.2-1.19c-1.05.87-2,2.05-3.17,2.57-8.51,3.75-17.61,3.47-26.42,2.45a22.49,22.49,0,0,1-14.67-7.44,7.34,7.34,0,0,1,2.07.25" transform="translate(-14.77 -82.36)"/><path class="cls-1" d="M340,255.64c3.22-1.36,5,1.58,7.09,2.79a150.09,150.09,0,0,1,15.16,10c3.31,2.47,6.15,5.56,9.21,8.38l.06-.06c-3.58-2.45-7.13-4.94-10.73-7.36-4.45-3-9-5.9-13.42-8.87-2.45-1.62-4.87-3.29-7.3-4.94Z" transform="translate(-14.77 -82.36)"/><path class="cls-1" d="M579,181.15c-.8-.64-1.88-1.13-2.36-2-3.67-6.25-9.45-9.39-16-11.74s-13.62-.35-20.36-1.39l.06.06c.59-.43,1.17-1.22,1.76-1.23,4.93-.11,10-.66,14.76.09s10.06,1.91,13.8,5.91c2.31,2.46,4.86,4.7,7.12,7.2.7.77.81,2.06,1.19,3.12Z" transform="translate(-14.77 -82.36)"/><path class="cls-1" d="M225.62,150.89c-1.37,1.16-2.75,2.3-4.1,3.47a117.41,117.41,0,0,0-9.29,8.21c-1.87,2,.23,4.15,1.29,5.86a8.58,8.58,0,0,0,3.68,2.84c2.62,1.18,4.48,3.86,7.7,3.89.27,0,.52.75.79,1.16l.06-.07c-4,.61-6.79-2.08-9.85-3.87-1.24-.73-2-2.22-3.18-3.13-3.06-2.4-3.58-4.55-.93-8.51,1.6-2.37,4.2-4.11,6.48-6a35.29,35.29,0,0,1,4.88-3.19,9.38,9.38,0,0,1,2.53-.62Z" transform="translate(-14.77 -82.36)"/><path class="cls-1" d="M533.91,169.91a29.24,29.24,0,0,0-13.14,12.48c-1.71,3.08-2.62,6.6-4.62,10,0-1.32-.48-2.9.09-3.9,2.72-4.85,4-10.66,8.76-14.18,3.79-2.81,7.74-5.39,11.74-7.87.91-.56,2.35-.25,3.54-.33l-.06-.06c-2.1,1.29-4.1,2.78-6.31,3.85" transform="translate(-14.77 -82.36)"/><path class="cls-1" d="M527.76,89a40.09,40.09,0,0,1,8.35,6.7,44.11,44.11,0,0,1,7,10.19c1.31,2.43,3,5.33,1.55,8.72-1.62-3.83-2.92-7.53-4.71-11-2.5-4.83-5.66-9.17-10.59-11.95-.78-.44-1-1.82-1.53-2.76Z" transform="translate(-14.77 -82.36)"/><path class="cls-1" d="M386.52,447.92c-.2.83-.15,1.89-.65,2.46-4.61,5.18-9.27,10.32-14,15.36-.6.64-1.89.64-2.85.94l.06.07a26,26,0,0,1,1.66-2.34c3.36-3.79,6.68-7.61,10.16-11.28,1.76-1.86,3.81-3.43,5.73-5.13Z" transform="translate(-14.77 -82.36)"/><path class="cls-1" d="M482.49,163.67c-1.81-1.33-3.62-2.65-5.42-4a9.93,9.93,0,0,0-1-.92c-4.32-2.44-8.64-4.88-13-7.22-.74-.39-1.78-.15-2.59-.44a17.33,17.33,0,0,1-2.55-1.42,19,19,0,0,1,13,4.56c3.11,2.53,6.54,4.68,9.75,7.1A11.57,11.57,0,0,1,482.49,163.67Z" transform="translate(-14.77 -82.36)"/><path class="cls-1" d="M369,466.68c-1.75,2-3.24,4.32-5.3,5.91-3.56,2.77-7.44,5.11-11.24,7.55a6.68,6.68,0,0,1-2.21.45l.06.08a35.65,35.65,0,0,1,3.53-3.63c1.37-1.08,3.12-1.67,4.5-2.75,2.8-2.19,5.41-4.61,8.2-6.82a7.27,7.27,0,0,1,2.52-.72Z" transform="translate(-14.77 -82.36)"/><path class="cls-1" d="M528.14,226.36c-5-.16-13.37-14.9-11.7-20.58,1.42,3.54,2.53,7.47,4.49,10.92S525.71,223.17,528.14,226.36Z" transform="translate(-14.77 -82.36)"/><path class="cls-1" d="M493.66,86.82c.93-.74,1.76-1.92,2.8-2.14,5.88-1.25,11.77-3.05,17.81-.6.79.32,1.83,0,2.66.25.57.18,1,.88,1.44,1.34l.06-.07c-4.4-.37-8.8-1.06-13.19-1-2.74,0-5.45,1.24-8.2,1.83a30.12,30.12,0,0,1-3.44.33Z" transform="translate(-14.77 -82.36)"/><path class="cls-1" d="M371.41,276.79c.83.25,1.93.24,2.44.79,3.79,4.05,7.48,8.18,11.12,12.36.38.43.25,1.31.36,2l.07-.08a46.77,46.77,0,0,1-5.29-4.49c-3-3.42-5.78-7.07-8.64-10.63Z" transform="translate(-14.77 -82.36)"/><path class="cls-1" d="M201.48,273.18a23.32,23.32,0,0,1,2.81-3.34c3.77-3.08,7.61-6.1,11.55-9,.76-.55,2.11-.29,3.18-.41l-.07-.07a8,8,0,0,1-1.49,2.32q-6.48,4.8-13.14,9.37a11.64,11.64,0,0,1-2.91,1Z" transform="translate(-14.77 -82.36)"/><path class="cls-1" d="M458,149.77c-3.3,0-6.6.11-9.9.07a29.07,29.07,0,0,0-11.8,2.36c-.9.38-2.12,0-3.2,0,1.73-.81,3.39-2.1,5.2-2.36,4.83-.69,9.73-1,14.6-1.35a21.72,21.72,0,0,1,4.19.09C457.43,148.59,457.69,149.34,458,149.77Z" transform="translate(-14.77 -82.36)"/><path class="cls-1" d="M190,284.66c1.75-4.67,5.83-7.41,9.07-10.84.49-.52,1.61-.44,2.44-.64l-.07-.08a7.42,7.42,0,0,1-.93,1.69q-4.36,4.53-8.83,8.95a6.36,6.36,0,0,1-1.73.86Z" transform="translate(-14.77 -82.36)"/><path class="cls-1" d="M433.2,152.09c-1.28.92-2.55,1.85-3.83,2.76-2.28,1.61-4.54,3.26-6.88,4.79a27.47,27.47,0,0,1-3.31,1.63,84.9,84.9,0,0,1,7.45-6.41C428.55,153.54,431,153,433.2,152.09Z" transform="translate(-14.77 -82.36)"/><path class="cls-1" d="M520.9,192.91V206.2l-.76,0V192.79Z" transform="translate(-14.77 -82.36)"/><path class="cls-1" d="M555.65,198.57c-3-6-6.9-6.37-12.35-1.17l-.77-.29c.43-.88.64-2,1.32-2.6,3.1-2.67,8.59-2.83,10.84-.23.92,1.06,1.19,2.67,1.76,4Z" transform="translate(-14.77 -82.36)"/><path class="cls-1" d="M578.91,181.21c3.58.84,2.67,4.43,3.92,6.67,1.08,1.93,1.15,4.44,1.67,6.69l-1.27.31c-.4-1.67-.71-3.37-1.23-5-.94-2.93-2-5.82-3-8.73Z" transform="translate(-14.77 -82.36)"/><path class="cls-1" d="M196.65,463c-1-.3-2.22-.34-2.93-1a76.7,76.7,0,0,1-6.37-6.38c-.63-.71-.68-1.94-1-2.94l-.06.07,10.29,10.29Z" transform="translate(-14.77 -82.36)"/><path class="cls-1" d="M541,114.14v14.07C539.6,126.66,539.42,117.27,541,114.14Z" transform="translate(-14.77 -82.36)"/><path class="cls-1" d="M498.68,124.17c-1.11-3.54.63-6.38,3.26-8.56s5.95-1,9-.27c-2.76.56-6,.4-8.15,1.88S500,121.74,498.68,124.17Z" transform="translate(-14.77 -82.36)"/><path class="cls-1" d="M225.68,151a2.55,2.55,0,0,1,0-.57c4.36-1.34,8.37-4.48,13.34-2.84l.2.84-13.57,2.5Z" transform="translate(-14.77 -82.36)"/><path class="cls-1" d="M502.53,153.89h12v.75h-12Z" transform="translate(-14.77 -82.36)"/><path class="cls-1" d="M543.91,133.12c.49-5.63,1-11.25,1.52-17.26C547.12,119,546.5,128.2,543.91,133.12Z" transform="translate(-14.77 -82.36)"/><path class="cls-1" d="M505.31,130.38c2.26-.84,5-1.18,6.7-2.69s2.39-4.21,3.6-6.54c1.87,2.33-.38,4.28-1.45,5.94C511.58,131.1,508.51,132,505.31,130.38Z" transform="translate(-14.77 -82.36)"/><path class="cls-1" d="M477.36,143.65c-3.17-1.62-5.93-7.54-4.58-10.11,1.53,3.45,3,6.81,4.52,10.17Z" transform="translate(-14.77 -82.36)"/><path class="cls-1" d="M576,185l-8.21-9.55.7-.63,8.43,9.33Z" transform="translate(-14.77 -82.36)"/><path class="cls-1" d="M579.29,204.9V194.07H580v10.8Z" transform="translate(-14.77 -82.36)"/><path class="cls-1" d="M324,166.36h10.51V167H324Z" transform="translate(-14.77 -82.36)"/><path class="cls-1" d="M546.58,168.88h7v.66h-7Z" transform="translate(-14.77 -82.36)"/><path class="cls-1" d="M528.57,179.28q-2.77,3.54-5.56,7.06l-.87-.71,5.63-7.06Z" transform="translate(-14.77 -82.36)"/><path class="cls-1" d="M527.82,88.89c-.17.11-.38.35-.49.31-3-1.18-5.93-2.39-8.9-3.6l-.06.07A12.11,12.11,0,0,1,527.75,89Z" transform="translate(-14.77 -82.36)"/><path class="cls-1" d="M515.87,194.15v9.43l-.81,0c-.63-3.11-.2-6.29-.21-9.43Z" transform="translate(-14.77 -82.36)"/><path class="cls-1" d="M527.63,148.25l7.15-6.77-.17-.17Z" transform="translate(-14.77 -82.36)"/><path class="cls-1" d="M573.59,217.84l-6.69,7.37.15.16,6.86-7.2Z" transform="translate(-14.77 -82.36)"/><path class="cls-1" d="M475.63,123.59v5.91h-.79v-5.86Z" transform="translate(-14.77 -82.36)"/><path class="cls-1" d="M527.92,94.53l7,6.9-.14.17L528,94.49Z" transform="translate(-14.77 -82.36)"/><path class="cls-1" d="M449.75,394.87v-8.19l.61,0v8.22Z" transform="translate(-14.77 -82.36)"/><path class="cls-1" d="M477.3,143.71l5.46,4.56c-3.55.06-5.43-1.85-5.4-4.62Z" transform="translate(-14.77 -82.36)"/><path class="cls-1" d="M524,215.43l-3.14-5.83,1-.53,3.06,5.8Z" transform="translate(-14.77 -82.36)"/><path class="cls-1" d="M514.48,89.11h-6.92l0-.62h6.91Z" transform="translate(-14.77 -82.36)"/><path class="cls-1" d="M519.39,153.23a3.47,3.47,0,0,1-3.66-.39l6.35-1.78.19.82a13.09,13.09,0,0,0-2.88,1.35" transform="translate(-14.77 -82.36)"/><path class="cls-1" d="M487.38,199.83V185.36l.76,0v14.48Z" transform="translate(-14.77 -82.36)"/><ellipse class="cls-1" cx="396.26" cy="109.01" rx="0.54" ry="8.58"/><path class="cls-1" d="M470.13,224.85l10.6-10C479.35,218.69,471.8,225.33,470.13,224.85Z" transform="translate(-14.77 -82.36)"/><path class="cls-1" d="M414.93,208l4.09,6.75C415.76,213.6,413.57,209.92,414.93,208Z" transform="translate(-14.77 -82.36)"/><path class="cls-1" d="M480.54,168.43l-6.44-7.55-.17.12,7,7Z" transform="translate(-14.77 -82.36)"/><path class="cls-1" d="M424.9,222.84,419.27,217l.12-.15,5.44,6Z" transform="translate(-14.77 -82.36)"/><path class="cls-1" d="M152.46,146.05a9.64,9.64,0,0,0,.72,2.43c1.38,2.26,3,4.35,4.31,6.67,2.45,4.51,5.33,8.93,6.84,13.76,1.69,5.4,4.3,10.83,2.95,17.07a21.59,21.59,0,0,1-2.21.2c-8.94,0-17.88.11-26.82,0-1.9,0-3.78-.93-5.68-1.42-.62-2.37-1.23-4.74-1.85-7.11l-1.27.38c.69,2.22,1.37,4.45,2.12,6.66,0,.1.72,0,1.1,0-.53.52-1.08,1.52-1.58,1.49-3.14-.18-6.26-.61-9.4-.9a8.55,8.55,0,0,0-3.56,0,15.25,15.25,0,0,1-11.57,0,1.68,1.68,0,0,0-1.15,0,15.1,15.1,0,0,1-11.85-.12,8,8,0,0,0-3-.19c-9.08,0-18.15.14-27.22,0-6.33-.12-12.66.12-19,.06S31.46,185,25,185c-1,0-2-.11-2.78-.16.22-1.79.3-3.46.66-5.07a72.17,72.17,0,0,1,2.45-9.24,104.69,104.69,0,0,1,5.58-12.86,58.08,58.08,0,0,1,13-17c3.16-2.72,6-5.9,9.54-8a87.8,87.8,0,0,1,15.59-7.68c5.32-1.93,11-2.8,16.56-4.1,1.82-.43,3.67-1.13,5.49-1.06a141.4,141.4,0,0,1,17,1.26,58.84,58.84,0,0,1,16.41,5.28c3.43,1.68,7.1,3,10.14,5.25,5.19,3.78,10,8.12,14.94,12.22,1,.8,2,1.58,3,2.37Zm-87,21.28c4.64-2.6,5.39-3.58,4.88-5.2L63.08,168l.46.6,1.44-.65-3.23,5.25.71.38C64.28,171.92,66.88,170.7,65.47,167.33Zm40.43-10.72c3.84,2,7.48,4,11.19,5.85a18.68,18.68,0,0,0,3.44,1l.16-.87-4.62-1.89c.4-.67.71-1.17,1.15-1.88-2.68.91-6.66-1-8.17-3.74Zm-.6-2.21-11.65.7C98,157.23,104.31,156.35,105.3,154.4Zm-29.32,5,.24.9,8.48-3.66-2.81-1.28ZM91.6,156l.16-.82L84.54,154C86.49,157.1,89.15,156.16,91.6,156ZM90,152.53l0,.71h7.85v-.71Z" transform="translate(-14.77 -82.36)"/><path class="cls-1" d="M120.9,261.85c-1.86.58-3.54,1.77-5.4,2.36-8.88,2.79-18,3.2-27.2,2.39a78.58,78.58,0,0,1-15.47-3.31,95.74,95.74,0,0,1-13.37-5.38,34.86,34.86,0,0,1-6.55-4.51c-3-2.41-5.87-5-8.89-7.47a7.74,7.74,0,0,0-2.51-.84l.07.07c-.13-.73,0-1.64-.44-2.16-3.23-4.21-6.82-8.19-9.78-12.58-2-3-3.25-6.44-4.62-9.77-1.26-3.05-2.25-6.21-3.35-9.33a8,8,0,0,1-.43-1.39c-.44-2.92-.88-5.83-1.25-8.76a10.4,10.4,0,0,1,.16-2c5.69,3.52,11.7,4.71,18.08,4.94,3.46.12,6.9-.12,10.34,0,2.5.06,5,.57,8,.94l-1.82,2.88,2.61-1.33c.17,1.31.31,2.4.45,3.5l1.06-.17a12.5,12.5,0,0,0-.67-3.49c-.82-1.56-.58-2.26,1.14-2.34,1.92-.08,3.85.11,5.74-.13,5.77-.73,11.52-1.57,17.27-2.45,1.71-.26,3.36-1,5.08-1.16,1.57-.18,3.45-.45,4.72.22,2.08,1.08,3.57.76,5.5-.23,3-1.51,6-3,9.63-1.59,1.58.62,3.59.13,5.4.13A59.5,59.5,0,0,1,133.6,202c.46.15,1.06-.16,1.59-.14a44.48,44.48,0,0,1,4.9.34c2.82.43,5.6,1.09,8.42,1.55,3.42.55,6.87.94,10.29,1.51,1.44.24,2.83,1,4.26,1.06a23.55,23.55,0,0,0,4.63-.67,57.76,57.76,0,0,1-1.54,6.16c-2,5.39-3.65,11-6.32,16A98.85,98.85,0,0,1,150,242.07a50.85,50.85,0,0,1-8.27,8.32,64.68,64.68,0,0,1-20.87,11.46m4-43.12,1.71-3.09,1.84.67.21-.42-2.33-2.44-2.85,5.31-13.25,10.12.17.5,9.47-5.34a10.46,10.46,0,0,0,1.11.89c2.15-2.13,4.25-4.31,6.35-6.48l-.44-.69ZM62.2,212.91l-.45.17c.35,1,1,2,1,3-.1,2.71.08,3,2.85,2.06-.46,4.33,7,3.13,5.88,8.65L73.31,225Zm26.23,20.21.2,1.08,9.48-1.73-.26-1.33Zm45-25.5-1.72-5.13-3.22,8.41.85.34,2.22-4.58ZM85,229.38c-1.86-.27-3.35,0-4-.67-2.52-2.5-2.78.33-4,1.33,1.85-.85,3.7-2.21,3.8,1.58Zm14.89,1.76,6.88,1.59C105.05,229.43,102.49,230.19,99.93,231.14Z" transform="translate(-14.77 -82.36)"/><path class="cls-1" d="M123.19,196l0-1c-7.73.57-15.51,3.08-23.33.43l.78,1.92c-2.62.54-5.07,3.7-7.65,0h1c-.3-3.25-.59-6.35-.88-9.45L92,188c.07,3.15-.71,6.36,1,9.42l-17,3.76a4.14,4.14,0,0,1-.6.09,188.5,188.5,0,0,1-36.85,1.06c-6.59-.53-13.66-1.73-18.68-7-1.47-1.56-2.22-3.81-3.27-5.7,1.53-2.52,3.46-3.3,6.32-3.28,22.46.15,44.94-.42,67.37.4,7.07.25,14.22.81,21.33.88,17.12.19,34.24,0,51.36.1a25.35,25.35,0,0,1,4.55.86l-1.83,4.21,3.06-1.39c-.21,1.49-.3,2.59-.54,3.66-.11.53-.84,1.3-.71,1.44,2.37,2.65-.05,3.44-1.63,4.73-.42.35-.23,1.44-.41,3l-14.06-1.86-.05-.54,3.22-.76c-1.84-1.24-3.32-1-5.26,0-1.47.77-3.68.15-5.55.15l0-.85,4.6-.53,0-.83c-1.79,0-3.89-.61-5.3.12a8.59,8.59,0,0,1-8.66,0,4.39,4.39,0,0,0-1.48-.18,134.26,134.26,0,0,1-14.23-2.15l4.47-.75m-20.7-2v.69h11.91V194Z" transform="translate(-14.77 -82.36)"/><path class="cls-1" d="M63.53,345.3a28.41,28.41,0,0,1-.44-5.85c.07-4.83,0-9.67.23-14.5.25-6.06.69-12.11,1.08-18.16,0-.23.35-.44,1-1.2.13,1.33.28,2.13.27,2.93,0,8.56,0,17.13-.06,25.69,0,1.48-.38,3.18,2.08,3.1s1.75-1.76,1.78-3.06c.07-3.42-.08-6.86.13-10.27.4-6.34,1-12.66,2-19.11a10.29,10.29,0,0,1,.4,1.94c0,4.83-.15,9.68.06,14.5s.7,9.85,1.37,14.73c.09.65,2,1,3.71,1.89-1.43-3.41-2.19-5.77-.64-8.26.19-.3-.2-1-.31-1.46-.14-.67-.57-1.46-.36-2,2.65-6.51.61-13.27,1.16-19.88.14-1.69,0-3.39,0-5.08l1.42,0c0,3.22-.1,6.46,0,9.68.29,7.68.72,15.36,1,23,.09,2.1,1.17,3.06,3.65,3.25V306.11l.82-.14a5.48,5.48,0,0,1,.61,1.61c.41,12.41.7,24.84,1.22,37.25.14,3.47-1.71,6.05-3.16,8.75-1.25,2.32-3.32,4.17-4.88,6.34a5.08,5.08,0,0,0-.83,2.75c0,14.21-.06,28.42.14,42.63a84,84,0,0,0,1.32,14.79,165.55,165.55,0,0,1,2.53,26c.16,4.33,1.48,8.63,2.26,12.94,0,.2,0,.41.05.61.42,4.61.78,9.24,1.31,13.85.2,1.73,1,3.4,1.18,5.13.42,4.26-.67,7.22-5.67,9.69a10.27,10.27,0,0,1-14.17-5.61,7.24,7.24,0,0,1-.06-3.28c.27-2.22.85-4.4,1-6.62.52-6.35.15-12.88,1.57-19,1.28-5.53.53-10.92,1.11-16.34.09-.9,1-1.7,1.59-2.54q0,5.76,0,11.52h1c0-2.64.1-5.29,0-7.92A17.19,17.19,0,0,0,71,435V422l.84,0v10.6l1.11,0c1.66-10.66-2.68-21.34-.65-32l.85,0v8.22l1.11,0c0-5.16.13-10.32,0-15.48-.16-4.92-1-9.85-.87-14.76.12-5.19,1-10.36,1.65-16.2l-2.75,1.24a2.8,2.8,0,0,1-.28-.94,5.94,5.94,0,0,0-1.79-5.11,42.22,42.22,0,0,1-4.61-6.69,16.26,16.26,0,0,1-2.08-5.46M69.69,464h.69V453.51h-.69Zm-2,15.69c-1.88,3,.76,4.39,2.25,6,.58.66,1.74.81,2.63,1.18l.48-.88C70,485.07,68,483.12,67.72,479.73Zm9.54,6.68c2.59,1.26,4.92,0,5.52-2.8Z" transform="translate(-14.77 -82.36)"/><path class="cls-1" d="M254.83,207.72c-.44.39-.9,1.14-1.31,1.12-4.53-.27-9-.71-13.57-1a18,18,0,0,0-6.62.69l5.59.72-.08.8c-4.12-.13-8.22.88-12.4-.58-1.71-.6-3.67-.48-5.52-.68l-.13,1,4.37.64v1c-2.06,0-4.12,0-6.17,0a18.23,18.23,0,0,1-3.91,0,5.91,5.91,0,0,1-3.19-1.72c-.38-.45.37-1.83.67-3l-2.14.72c1-2.73-2.87-4.66-.47-7.73,1.5-1.9,2.16-4.45,3.57-7.5l14.06,1.44c.8.08,1.61.08,2.4.2,5.05.78,10.09,1.73,15.16,2.32,3.09.37,6.26,0,9.35.33,5.78.62,11.52,1.51,17.27,2.28q.3,0,.6.06c6.76.46,13.53.86,20.29,1.39,2.67.21,5.35,1.14,8,.94a20.6,20.6,0,0,0,7.08-2.31,9.61,9.61,0,0,0,3.24-3.11c3.11-4.31,7.75-5.61,12.5-5.55,11.05.11,22.09.78,33.13,1.24.23,0,.45.26,1.31.81a26,26,0,0,1-2.68.34c-7.85,0-15.7,0-23.55,0a5.8,5.8,0,0,0-2.83.58c-.66.4-1,1.4-1.42,2.13a7.22,7.22,0,0,0,2.22,1c8.16.53,16.34.91,24.5,1.51a19.28,19.28,0,0,1,6.95,2c-1.15.1-2.3.29-3.44.3-6.05,0-12.1-.18-18.13.11-3.9.19-7.76,1.1-11.92,1.73v3.38H359c-.71.78-.88,1.14-1.08,1.16-5.77.41-11.54.72-17.3,1.2-3.63.31-7.25.8-10.84,1.38-.85.14-1.59,1-3,1.95,1.73.75,2.83,1.62,3.93,1.64,5.85.09,11.7.1,17.53-.13a59.85,59.85,0,0,0,7.69-1.27l.28,1c-1.18.52-2.33,1.44-3.53,1.5-10.7.57-21.4,1.29-32.1,1.25-2.69,0-5.68-2.19-8-4.06-2.85-2.33-5.32-5.09-8.94-6.3a7.16,7.16,0,0,0-1.93-.67c-5.64-.08-11.28-.1-16.92-.12-.35,0-.71.2-1.11.94l4.45.68c-7.82,2.47-15.5-1.15-23.45-.16l.86,2.48H254.75c-1.51-1.73-5.22-2.06-7.56-.07Z" transform="translate(-14.77 -82.36)"/><path class="cls-1" d="M121,379.07c-.49-.06-1.29-.35-1.42-.16a45,45,0,0,0-4.71,7.09c-.67,1.42-.14,3.37-.25,5.08-.3,5-1,10.06-.9,15.09.1,8,.6,16,1.08,23.95.22,3.73.74,7.45,1.23,11.16.79,6,1.29,12.16,2.61,18.09,1.09,4.89,2.39,9.67,2.45,14.74,0,2.41.85,4.81,1.19,7.22s-.45,3.88-2.85,4.59c-3.42,1-6.31,3.38-10.5,1.48-4.62-2.1-5.57-2.47-5.61-7.34,0-1.34.14-2.69.22-4l.88-.06c.08.76.15,1.53.25,2.29s.22,1.4.33,2.1l.77-.05c0-2.18.63-4.61-.13-6.47a12.18,12.18,0,0,1,0-9.93,3.71,3.71,0,0,0,.18-1.16c.43-6,.84-12.05,1.32-18.06,0-.5.63-1,1-1.44q.3,4.1.59,8.18l1-.05c0-2.45.05-4.91-.08-7.36,0-.26-1.06-.46-1.63-.69.21-3.35.42-6.7.68-10.83l1.52,2.67.75-.07c-.55-12.19-1.11-24.39-1.67-36.7,4.71-1.12,2.61-4.24,2.35-6.9-.43.7-.87,1.4-1.41,2.26-.3-.43-.65-.76-.59-.85,2.06-3.38.07-6.29-1.25-9.14a12.72,12.72,0,0,0-3.32-3.8c-3.35-3-4.16-6.85-4.19-11-.06-8.66,0-17.32,0-26a11.94,11.94,0,0,1,.43-2c.49.63.88.89.9,1.19.42,6.15.76,12.31,1.23,18.47a12.16,12.16,0,0,0,1.06,3c.46-.83.93-1.66,1.38-2.5,2.62-4.9.74-10.22,1.38-15.31.4-3.17.7-6.36,1-9.54h1.08c.07,1,.2,2,.21,3,0,7.35,0,14.7.12,22.05a5.49,5.49,0,0,0,1.19,2.83,1.92,1.92,0,0,0,1.76.6c.42-.17.72-1.1.74-1.71.07-2.51-.11-5,0-7.55.32-5.77.75-11.53,1.17-17.29,0-.22.35-.43,1.06-1.25.14,2,.26,3.36.34,4.75q.63,10.1,1.24,20.17c.17,2.84,2,1.61,3.15,1.65V335.12L121,335c.42,2.83,1.05,5.66,1.23,8.51.5,8,1.06,15.95,1.08,23.93,0,3.1-1.34,6.21-2,9.32-.17.77-.23,1.57-.35,2.36Zm-9.78,32.19h.69V403l-.69,0Z" transform="translate(-14.77 -82.36)"/><path class="cls-1" d="M448.34,370.5c-.47-4.6-.5-9.27-1-13.85" transform="translate(-14.77 -82.36)"/><path class="cls-1" d="M447.33,356.65c-.14-1.24-.32-2.48-.55-3.71-1.32-7.12-1.54-14.32-2.53-21.42-2.05-14.8-.91-29.6-.94-44.39,0-6.85,1.48-13.72,2.57-20.54a70.75,70.75,0,0,1,2.45-8.66l-.11.11c1.86-2.09,3.67-4.23,5.59-6.26,1.3-1.38,6.88-2.48,7.88-1.23a11,11,0,0,1,2.65,5.95c.28,9,.87,18,0,26.88-2.09,20.64-.34,41.3-1.14,61.94-.24,6-.73,12.05-1.24,18.06a54.48,54.48,0,0,1-1.25,7.51,2.43,2.43,0,0,1-1.75,1.46,69,69,0,0,1-8.75.06,2.76,2.76,0,0,1-1.84-1.91" transform="translate(-14.77 -82.36)"/><path class="cls-1" d="M196.58,463.12l-10.29-10.29c-.23-.81-.22-1.81-.71-2.38-7.51-8.84-12.62-19.13-17.73-29.39a102.61,102.61,0,0,1-5-12.73c-.81-2.39-1-5-1.53-7.46-.68-2.9-1.52-5.76-2.29-8.64a3.88,3.88,0,0,1-.19-.87c-.4-10.68-1.29-21.38-1-32,.16-6,2.1-12.06,3.47-18a107.74,107.74,0,0,1,3.94-14.34,170.24,170.24,0,0,1,7.83-17.18c2.63-5.11,5.62-10.06,8.73-14.9,1.28-2,3.42-3.38,4.94-5.23a48.09,48.09,0,0,0,3.19-5,6.36,6.36,0,0,0,1.73-.86q4.47-4.42,8.83-8.95a7.42,7.42,0,0,0,.93-1.69,11.64,11.64,0,0,0,2.91-1q6.65-4.57,13.14-9.37a8,8,0,0,0,1.49-2.32,36.82,36.82,0,0,0,6.18-1.58c3.91-1.73,7.64-3.87,11.51-5.7a84.65,84.65,0,0,1,20.05-6.36c3.19-.63,6.53-.61,9.66-1.41,9.2-2.36,18.54-1.06,27.79-1.05,5.54,0,11.11,1.32,16.61,2.38,5.66,1.1,11.3,2.39,16.84,4,2.87.84,5.45,2.64,8.24,3.84a26.48,26.48,0,0,0,4.19,1.05c2.43,1.65,4.85,3.32,7.3,4.94,4.46,3,9,5.89,13.42,8.87,3.6,2.42,7.15,4.91,10.73,7.36,2.86,3.56,5.62,7.21,8.64,10.63a46.77,46.77,0,0,0,5.29,4.49,56.12,56.12,0,0,0,2.84,6.2c2.89,4.76,6.35,9.22,8.92,14.15,3.34,6.44,6.65,13,8.23,20.17.65,3,1.55,6,2.47,8.93.17.56.93.93,1.42,1.39.34,3.11.64,6.21,1,9.31.4,3.32,1.07,6.62,1.23,9.94.21,4.42.19,8.86,0,13.28-.23,5.33-.23,10.75-1.26,15.95-1.41,7.12-2.64,14.32-5.88,21-2.22,4.61-3.26,9.79-5.42,14.44-1.84,4-4.48,7.57-6.85,11.29-1.72,2.71-3.62,5.31-5.33,8-.33.51-.14,1.35-.19,2-1.92,1.7-4,3.27-5.73,5.13-3.48,3.67-6.8,7.49-10.16,11.28a26,26,0,0,0-1.66,2.34,7.27,7.27,0,0,0-2.52.72c-2.79,2.21-5.4,4.63-8.2,6.82-1.38,1.08-3.13,1.67-4.5,2.75a35.65,35.65,0,0,0-3.53,3.63c-2.38.91-5,1.47-7.1,2.8-5.76,3.6-12.21,5.34-18.56,7.37-6.52,2.09-13,4.43-19.66,5.93-3.85.86-8,.18-12.05.36-3.75.17-7.51,1-11.23.78-6-.32-12-1.07-17.89-2-4.16-.63-8.25-1.71-12.34-2.74a66.27,66.27,0,0,1-9-2.73c-6.46-2.66-12.91-5.39-19.17-8.47a71.69,71.69,0,0,1-9.89-6.41C207.74,471.53,202.18,467.29,196.58,463.12Zm15.2-63c0,1-.46,2.19-.05,2.94,2.38,4.37,4.83,8.71,7.49,12.91a55.41,55.41,0,0,0,6.62,9c2,2.09,3.45,5.33,7.1,5.43.19.43.26,1,.59,1.27,3.91,2.93,7.63,6.22,11.85,8.62,6.11,3.48,12.38,6.82,19.49,8,5,.8,10.05,2.14,15.09,2.24,5.81.11,11.68,1,17.52-1,4.3-1.46,9-1.7,13.45-2.76,1.32-.31,2.41-1.58,3.6-2.41a6.33,6.33,0,0,0,1.8-.07c7.62-2.47,14.13-6.92,19.94-12.23a155.67,155.67,0,0,0,12.33-13.32,36.43,36.43,0,0,0,5.25-7.44c3-6.15,6.66-12,7.84-19.08.78-4.76,2.38-9.4,2.35-14.35a61.9,61.9,0,0,1,.45-6.51c.16-1.65.81-3.35.58-4.93-.57-3.86-1.4-7.69-2.35-11.48-1.18-4.67-2.09-9.49-4-13.88-3.72-8.63-8.29-16.84-15.08-23.59-2.88-2.86-5.32-6.2-9.14-8-.87-1.13-1.52-2.63-2.65-3.31-4.53-2.73-9.14-5.35-13.87-7.71a59.89,59.89,0,0,0-10.06-4,76.77,76.77,0,0,0-12.6-2.67,94.15,94.15,0,0,0-17.25-.8c-5,.37-9.81,2.93-14.77,3.16-5.37.25-9.55,3-14,5A55.56,55.56,0,0,0,232,311.29c-1.16,1.2-2.64,2.1-3.76,3.33a10.39,10.39,0,0,0-1.29,2.75c-.8.45-1.86.7-2.37,1.38-3.57,4.69-7.26,9.32-10.4,14.3-1.4,2.24-1.61,5.22-2.37,7.87-.5.39-1.3.69-1.45,1.19-1,3.14-1.94,6.29-2.62,9.5-1,4.58-2.15,9.19-2.39,13.84-.44,8.34-.44,16.73,2.4,24.82,1,2.91,1.67,5.94,2.62,8.89C210.47,399.59,211.28,399.82,211.78,400.14Z" transform="translate(-14.77 -82.36)"/><path class="cls-1" d="M105.9,156.61l3.15-1.53c1.51,2.71,5.49,4.65,8.17,3.74-.44.71-.75,1.21-1.15,1.88l4.62,1.89-.16.87a18.68,18.68,0,0,1-3.44-1C113.38,160.61,109.74,158.63,105.9,156.61Z" transform="translate(-14.77 -82.36)"/><path class="cls-1" d="M105.3,154.4c-1,1.95-7.26,2.83-11.65.7Z" transform="translate(-14.77 -82.36)"/><path class="cls-1" d="M76,159.38l5.91-4,2.81,1.28-8.48,3.66Z" transform="translate(-14.77 -82.36)"/><path class="cls-1" d="M65,167.93l-1.44.65-.46-.6,7.27-5.85c.51,1.62-.24,2.6-4.88,5.2Z" transform="translate(-14.77 -82.36)"/><path class="cls-1" d="M91.6,156c-2.45.13-5.11,1.07-7.06-2l7.22,1.17Z" transform="translate(-14.77 -82.36)"/><path class="cls-1" d="M132.67,184.63c-.38,0-1.07.13-1.1,0-.75-2.21-1.43-4.44-2.12-6.66l1.27-.38c.62,2.37,1.23,4.74,1.85,7.11Z" transform="translate(-14.77 -82.36)"/><path class="cls-1" d="M65,167.93l.49-.6c1.41,3.37-1.19,4.59-3,6.23l-.71-.38Z" transform="translate(-14.77 -82.36)"/><path class="cls-1" d="M90,152.53h7.82v.71H90Z" transform="translate(-14.77 -82.36)"/><path class="cls-1" d="M62.2,212.91,73.31,225l-1.84,1.81c1.17-5.52-6.34-4.32-5.88-8.65-2.77.9-3,.65-2.85-2.06,0-1-.64-2-1-3Z" transform="translate(-14.77 -82.36)"/><path class="cls-1" d="M110.19,228.88l13.25-10.12.59.55-4.2,4.73-9.47,5.34-.17-.5" transform="translate(-14.77 -82.36)"/><path class="cls-1" d="M88.43,233.12l9.42-2,.26,1.33-9.48,1.73Z" transform="translate(-14.77 -82.36)"/><path class="cls-1" d="M119.83,224l4.19-4.72.84-.59,2-1,.44.69c-2.1,2.17-4.2,4.35-6.35,6.48A10.46,10.46,0,0,1,119.83,224Z" transform="translate(-14.77 -82.36)"/><path class="cls-1" d="M133.48,207.62l-1.87-1-2.22,4.58-.85-.34,3.22-8.41Z" transform="translate(-14.77 -82.36)"/><path class="cls-1" d="M85,229.38l-4.14,2.24c-.1-3.79-2-2.43-3.8-1.58,1.17-1,1.43-3.83,4-1.33C81.69,229.34,83.18,229.11,85,229.38Z" transform="translate(-14.77 -82.36)"/><path class="cls-1" d="M124.86,218.73l-.84.59c-.19-.19-.38-.38-.58-.56l2.85-5.31,2.33,2.44-.21.42-1.84-.67Z" transform="translate(-14.77 -82.36)"/><path class="cls-1" d="M99.93,231.14c2.56-.95,5.12-1.71,6.88,1.59Z" transform="translate(-14.77 -82.36)"/><path class="cls-1" d="M102.49,194H114.4v.69H102.5Z" transform="translate(-14.77 -82.36)"/><path class="cls-1" d="M93.06,197.42c-1.74-3.06-1-6.27-1-9.42l1-.11c.29,3.1.58,6.2.88,9.45H93Z" transform="translate(-14.77 -82.36)"/><path class="cls-1" d="M71,435a17.19,17.19,0,0,1,1,3.56c.15,2.63,0,5.28,0,7.92h-1q0-5.76,0-11.52Z" transform="translate(-14.77 -82.36)"/><path class="cls-1" d="M69.69,464V453.51h.69V464Z" transform="translate(-14.77 -82.36)"/><path class="cls-1" d="M67.72,479.73c.31,3.39,2.24,5.34,5.36,6.35l-.48.88c-.89-.37-2-.52-2.63-1.18C68.48,484.12,65.84,482.78,67.72,479.73Z" transform="translate(-14.77 -82.36)"/><path class="cls-1" d="M77.26,486.41l5.52-2.8C82.18,486.46,79.85,487.67,77.26,486.41Z" transform="translate(-14.77 -82.36)"/><path class="cls-1" d="M254.83,207.72h-7.64c2.34-2,6.05-1.66,7.56.07Z" transform="translate(-14.77 -82.36)"/><path class="cls-1" d="M108,443.33c.57.23,1.62.43,1.63.69.13,2.45.08,4.91.08,7.36l-1,.05q-.28-4.08-.59-8.18Z" transform="translate(-14.77 -82.36)"/><path class="cls-1" d="M111.2,411.26V403l.69,0v8.26Z" transform="translate(-14.77 -82.36)"/><path class="cls-1" d="M334.51,309.45c3.82,1.78,6.26,5.12,9.14,8,6.79,6.75,11.36,15,15.08,23.59,1.9,4.39,2.81,9.21,4,13.88.95,3.79,1.78,7.62,2.35,11.48.23,1.58-.42,3.28-.58,4.93a61.9,61.9,0,0,0-.45,6.51c0,4.95-1.57,9.59-2.35,14.35-1.18,7.11-4.79,12.93-7.84,19.08a36.43,36.43,0,0,1-5.25,7.44A155.67,155.67,0,0,1,336.27,432c-5.81,5.31-12.32,9.76-19.94,12.23a6.33,6.33,0,0,1-1.8.07l.06.06c.53-.52,1-1.28,1.59-1.53a74.46,74.46,0,0,0,21.17-13.27,67,67,0,0,0,9.7-10.76,100.24,100.24,0,0,0,9-14.46,57.45,57.45,0,0,0,5-14.18c1.11-5.5,1.08-11.24,1.56-16.87.17-1.92.75-3.88.55-5.76-.43-4.2-1.21-8.37-1.88-12.54-.44-2.71-.6-5.54-1.5-8.09-.76-2.15-2.4-4-3.65-6,.33-3.16-.62-5.67-3.58-7.19a12.46,12.46,0,0,0-.67-2.77c-3.39-6.85-8.64-12.24-13.95-17.57-1.24-1.24-2.29-2.67-3.43-4Z" transform="translate(-14.77 -82.36)"/><path class="cls-1" d="M226.91,317.37a10.39,10.39,0,0,1,1.29-2.75c1.12-1.23,2.6-2.13,3.76-3.33a55.56,55.56,0,0,1,17.36-12.13c4.44-2,8.62-4.75,14-5,5-.23,9.79-2.79,14.77-3.16a94.15,94.15,0,0,1,17.25.8,76.77,76.77,0,0,1,12.6,2.67,59.89,59.89,0,0,1,10.06,4c4.73,2.36,9.34,5,13.87,7.71,1.13.68,1.78,2.18,2.65,3.31l.05-.05-2.63-.34-4-2.68a11.18,11.18,0,0,1-2.7-1.11c-1.82-1.37-3.31-3.31-5.29-4.31-6.93-3.51-14.18-6.18-22-6.93l.05.05a10.35,10.35,0,0,0-2.39-.85c-2.37-.26-4.76-.29-7.13-.53-1.59-.17-3.16-.54-5.26-.91l1,2a31.16,31.16,0,0,0-5.63-.65A61.52,61.52,0,0,0,269,294.5c-5,1.12-10,2.08-14.69,4a63.34,63.34,0,0,0-19.83,12.67c-2.33,2.25-5.08,4.07-7.64,6.09Z" transform="translate(-14.77 -82.36)"/><path class="cls-1" d="M314.53,444.31c-1.19.83-2.28,2.1-3.6,2.41-4.45,1.06-9.15,1.3-13.45,2.76-5.84,2-11.71,1.11-17.52,1-5-.1-10.06-1.44-15.09-2.24-7.11-1.14-13.38-4.48-19.49-8-4.22-2.4-7.94-5.69-11.85-8.62-.33-.25-.4-.84-.59-1.27l-.06.07c1.94,1.24,3.89,2.47,5.82,3.73,3.1,2,6,4.37,9.32,6,3.62,1.84,7.75,2.71,11.3,4.64,6.12,3.34,12.87,3.67,19.42,4.12,5.87.41,11.84.69,17.89-.8,3.92-1,8.08-1.13,12-2.66,1.86-.73,4-.79,6-1.16Z" transform="translate(-14.77 -82.36)"/><path class="cls-1" d="M211.78,400.14c-.5-.32-1.31-.55-1.45-1-1-3-1.6-6-2.62-8.89-2.84-8.09-2.84-16.48-2.4-24.82.24-4.65,1.42-9.26,2.39-13.84.68-3.21,1.65-6.36,2.62-9.5.15-.5,1-.8,1.45-1.19l-.07-.06c-.88,4-1.84,8-2.64,12-.86,4.31-2.12,8.63-2.19,13-.1,5.69-.73,11.38.8,17.18.92,3.5,1.21,7.19,2.62,10.66.83,2,1,4.36,1.41,6.56Z" transform="translate(-14.77 -82.36)"/><path class="cls-1" d="M232.94,430.39c-3.65-.1-5.06-3.34-7.1-5.43a55.41,55.41,0,0,1-6.62-9c-2.66-4.2-5.11-8.54-7.49-12.91-.41-.75,0-1.95.05-2.94l-.08.07c.35.13.9.16,1,.4,1.74,3.44,3.15,7.06,5.17,10.31,2.68,4.3,5.73,8.37,8.79,12.41,1.9,2.5,4.11,4.76,6.19,7.13Z" transform="translate(-14.77 -82.36)"/><path class="cls-1" d="M211.77,340.92c.76-2.65,1-5.63,2.37-7.87,3.14-5,6.83-9.61,10.4-14.3.51-.68,1.57-.93,2.37-1.38l-.09-.1a14.38,14.38,0,0,1-1.48,3.11c-2.22,2.78-4.78,5.29-6.83,8.18-1.41,2-2.09,4.5-3.27,6.68-1.05,1.94-2.35,3.75-3.54,5.62Z" transform="translate(-14.77 -82.36)"/><path class="cls-1" d="M278.74,449c-6.55-.45-13.3-.78-19.42-4.12-3.55-1.93-7.68-2.8-11.3-4.64-3.28-1.67-6.22-4-9.32-6-1.93-1.26-3.88-2.49-5.82-3.73-2.08-2.37-4.29-4.63-6.19-7.13-3.06-4-6.11-8.11-8.79-12.41-2-3.25-3.43-6.87-5.17-10.31-.13-.24-.68-.27-1-.4-.45-2.2-.58-4.52-1.41-6.56-1.41-3.47-1.7-7.16-2.62-10.66-1.53-5.8-.9-11.49-.8-17.18.07-4.34,1.33-8.66,2.19-13,.8-4,1.76-8,2.64-12,1.19-1.87,2.49-3.68,3.54-5.62,1.18-2.18,1.86-4.68,3.27-6.68,2.05-2.89,4.61-5.4,6.83-8.18a14.38,14.38,0,0,0,1.48-3.11c2.56-2,5.31-3.84,7.64-6.09a63.34,63.34,0,0,1,19.83-12.67c4.66-1.93,9.74-2.89,14.69-4a61.52,61.52,0,0,1,9.66-1.34,31.16,31.16,0,0,1,5.63.65l-1-2c2.1.37,3.67.74,5.26.91,2.37.24,4.76.27,7.13.53a10.17,10.17,0,0,1,2.4.86l-5.61.76.08.36,18.05,4.37.28-1.28c-3.49-.83-7-1.58-10.45-2.54-.89-.24-1.61-1.13-2.41-1.73,7.82.75,15.07,3.42,22,6.93,2,1,3.47,2.94,5.29,4.31a11.18,11.18,0,0,0,2.7,1.11c.22.91.14,2.15.71,2.68,2.51,2.34,5.48,4.24,7.78,6.75,4.05,4.42,7.7,9.19,11.57,13.77,1.2,1.42,2.54,2.73,3.82,4.08l.3.33,4.06,7c1.25,2,2.89,3.81,3.65,6,.9,2.55,1.06,5.38,1.5,8.09.67,4.17,1.45,8.34,1.88,12.54.2,1.88-.38,3.84-.55,5.76-.48,5.63-.45,11.37-1.56,16.87a57.45,57.45,0,0,1-5,14.18,100.24,100.24,0,0,1-9,14.46,67,67,0,0,1-9.7,10.76,74.46,74.46,0,0,1-21.17,13.27c-.63.25-1.06,1-1.59,1.53-2,.37-4.12.43-6,1.16-3.9,1.53-8.06,1.7-12,2.66-6.05,1.49-12,1.21-17.89.8M360,357.21c.6-4.9-1.95-9-3.41-13.35a19.64,19.64,0,0,0,.89,5.15c.55,2.54.9,5.12,1.43,7.66.05.23.76.31,1.17.46,0,7.44.18,14.89-.13,22.32-.16,3.89-1.18,7.75-1.92,12.31.87-1.07,1.75-1.69,1.94-2.47a35.11,35.11,0,0,0,1.35-7.48c.16-7.43.09-14.87,0-22.3C361.25,358.73,360.41,358,360,357.21ZM258.4,298.68l.12.74,22.6-4.49C272.58,293.32,265.63,296.79,258.4,298.68Z" transform="translate(-14.77 -82.36)"/><path class="cls-1" d="M352.13,334l-.3-.33a11.76,11.76,0,0,0-1.18-2.62c-3.78-4.76-7.58-9.51-11.5-14.15-2.29-2.71-4.81-5.23-7.22-7.83l2.63.34c1.14,1.35,2.19,2.78,3.43,4,5.31,5.33,10.56,10.72,13.95,17.57a12.46,12.46,0,0,1,.67,2.77A1,1,0,0,1,352.13,334Z" transform="translate(-14.77 -82.36)"/><path class="cls-1" d="M352.13,334a1,1,0,0,0,.48-.23c3,1.52,3.91,4,3.58,7.19Z" transform="translate(-14.77 -82.36)"/><path class="cls-1" d="M331.93,309.06c2.41,2.6,4.93,5.12,7.22,7.83,3.92,4.64,7.72,9.39,11.5,14.15a11.76,11.76,0,0,1,1.18,2.62c-1.28-1.35-2.62-2.66-3.82-4.08-3.87-4.58-7.52-9.35-11.57-13.77-2.3-2.51-5.27-4.41-7.78-6.75-.57-.53-.49-1.77-.71-2.68Z" transform="translate(-14.77 -82.36)"/><path class="cls-1" d="M360,357.2c.46.77,1.3,1.53,1.31,2.31.1,7.43.17,14.87,0,22.3a35.11,35.11,0,0,1-1.35,7.48c-.19.78-1.07,1.4-1.94,2.47.74-4.56,1.76-8.42,1.92-12.31.31-7.43.12-14.88.13-22.32Z" transform="translate(-14.77 -82.36)"/><path class="cls-1" d="M258.4,298.68c7.23-1.89,14.18-5.36,22.72-3.75l-22.6,4.49Z" transform="translate(-14.77 -82.36)"/><path class="cls-1" d="M298,294c.8.6,1.52,1.49,2.41,1.73,3.45,1,7,1.71,10.45,2.54l-.28,1.28-18.05-4.37-.08-.36,5.61-.76Z" transform="translate(-14.77 -82.36)"/><path class="cls-1" d="M360,357.13c-.41-.15-1.12-.23-1.17-.46-.53-2.54-.88-5.12-1.43-7.66a19.64,19.64,0,0,1-.89-5.15c1.46,4.36,4,8.45,3.41,13.35Z" transform="translate(-14.77 -82.36)"/></g></svg>