<svg id="圖層_1" data-name="圖層 1" xmlns="http://www.w3.org/2000/svg" viewBox="0 0 497.47 505.82"><defs><style>.cls-1{fill:none;stroke:#000;stroke-miterlimit:10;stroke-width:0.75px;}</style></defs><title>featherpen</title><path class="cls-1" d="M316.53,228.64l-11.68,2.07.21,1.08,11.65-2.22Z" transform="translate(-47.71 -63.9)"/><path class="cls-1" d="M310.86,242.57l9.55-2.26-3.13,1.81.31.86,16-5.82c-.13-.38-.26-.76-.4-1.14l-10.9,3.62C318,238.6,314.44,240.61,310.86,242.57Z" transform="translate(-47.71 -63.9)"/><path class="cls-1" d="M318.93,178.86l.07,0v0Z" transform="translate(-47.71 -63.9)"/><path class="cls-1" d="M321,178.42v-.1l-.06,0-.7.69,0,0,.1,0Z" transform="translate(-47.71 -63.9)"/><path class="cls-1" d="M319,178.88l-1.53,1.73,0,.26c0,.12.07.24.11.36-5.31,5.66-10.85,11.12-15.86,17-6.15,7.28-11.85,14.94-17.76,22.43-4.85,6.14-9.72,12.28-14.65,18.36-.43.52-1.44.56-1.8.69a37.21,37.21,0,0,1-2.81,5.51c-5.62,7.73-11.43,15.33-17.09,23-3.85,5.24-7.81,10.44-11.3,15.92-5.87,9.26-11.41,18.73-17.09,28.11-.55.9-1.17,1.75-1.76,2.63l1,.73a44.87,44.87,0,0,0,3.06-3.73c1.49-2.27,2.68-4.74,4.21-7,7.89-11.47,15.76-22.95,23.8-34.31,9.18-13,18.07-26.21,27.92-38.67,12.71-16.1,26.25-31.54,39.4-47.3a12.08,12.08,0,0,0,1.31-2.89l.06-.71,1.38-1.35.64-.67Z" transform="translate(-47.71 -63.9)"/><path class="cls-1" d="M321.05,177.85c0,.16,0,.31-.05.47l.43-.26Z" transform="translate(-47.71 -63.9)"/><path class="cls-1" d="M347.86,230l-17,4.33.27,1.11,17.06-4.14Z" transform="translate(-47.71 -63.9)"/><path class="cls-1" d="M341.31,254.82,330.39,263l.59,1,11.12-8.12Z" transform="translate(-47.71 -63.9)"/><path class="cls-1" d="M365.49,135.76a4,4,0,0,0-1.07.5c-7.44,6.64-14.89,13.27-22.25,20-2.05,1.87-4.67,3.48-4.91,7.61L366,136.34Z" transform="translate(-47.71 -63.9)"/><path class="cls-1" d="M330.32,207.72c10.72-.24,30.13-6.18,33.72-9.9Z" transform="translate(-47.71 -63.9)"/><path class="cls-1" d="M346.58,194.25l8.71-1.55v-.84l-8.71-.43Z" transform="translate(-47.71 -63.9)"/><path class="cls-1" d="M393.76,162.68l-.39-1.1L354.21,176C369.07,176.82,381.53,170.09,393.76,162.68Z" transform="translate(-47.71 -63.9)"/><path class="cls-1" d="M310.1,277.24,322,271.5l-.37-.77-11.95,5.58Z" transform="translate(-47.71 -63.9)"/><path class="cls-1" d="M343.69,239.43l-22.93,7.26c.1.34.21.68.31,1l23-6.86Z" transform="translate(-47.71 -63.9)"/><path class="cls-1" d="M339.92,260.85l-11.23,7.39C332.82,267.94,337.17,265.07,339.92,260.85Z" transform="translate(-47.71 -63.9)"/><path class="cls-1" d="M288,284.85,298.81,281l-.33-.94-11,3.62Z" transform="translate(-47.71 -63.9)"/><path class="cls-1" d="M215.73,401.83c0,.74.18,1.48.31,2.38-5.29-5.15-11.62-2-17.43-2.51-.67-.07-1.42.66-1.44.67l-5.55-.86V402l-7.2-2.4c2.14,1.82,1.37,6.8,6.06,6a21,21,0,0,1,4.37,15.68,2.47,2.47,0,0,0,1.5,1.93c2,.13,4.12-.33,6.16-.2s4.1.9,6.17,1.06a10.05,10.05,0,0,0,3.16-.79c.31.24,1.35,1.36,1.62,1.2a8.16,8.16,0,0,0,1.89-2.1c.22.5.65,1.48,1.29,3,.27-1.31.41-2,.59-2.92.31.75.54,1.3.86,2.09.52-1,.88-1.62,1.25-2.31.57.46,1,.83,1.09.89,4.72-2.78,2.67-7.53,4.07-11.39v10.92l1,.32c.86-1.57,1.71-3.15,2.38-4.36l.9.55c1.2-2,2.74-4,3.51-6.17,1.45-4.09.92-5.85-1.44-9.86a33.66,33.66,0,0,1-1.95-4.88l-5,3.69-.52-.72-.86,2-3.36-2.81-1,3.21-1-1.63c-.24-.39-.5-.78-.92-1.42C216,401.23,215.72,401.54,215.73,401.83Z" transform="translate(-47.71 -63.9)"/><path class="cls-1" d="M275.62,391.74l-1.15-1-3.39,4.51-.63-.44c.29-1.13.58-2.25.82-3.16-1.79,1.14-3.61,2.16-5.26,3.42L262,414c1.89-.44,3-1.93,3.81-3.61-.46-1.82-1-3.89-.2-5.09C268.73,400.62,272.26,396.23,275.62,391.74Z" transform="translate(-47.71 -63.9)"/><path class="cls-1" d="M309.49,501.77l7.5,3.36C314.63,500.49,313.32,499.82,309.49,501.77Z" transform="translate(-47.71 -63.9)"/><path class="cls-1" d="M262,414a5.91,5.91,0,0,1-2.32,0,7.63,7.63,0,0,0-5.51,1.32c-6.36,5.37-14,8.1-21.47,11.32-6.38,2.76-12.93,5.2-19.11,8.34s-13,4.12-19.72,5c-7.67,1-15.45,1.17-23.15,2a85.3,85.3,0,0,0-29.23,8.45c-7.28,3.64-12.22,9.67-15.63,16.7a10.64,10.64,0,0,0,.9,11.14c2.19,2.9,4.58,5.65,6.89,8.47l1-.79c-.81-1-1.61-2-2.44-3-6.82-8-5.06-19.42,3.6-25.34a41.71,41.71,0,0,1,18.78-6.91c5.83-.74,13.3,3.65,14.07,9.55.3,2.28,2.63,3.24,2.06,5.85s.29,5.43.51,8.16c.29,3.74-5.36,11-9.77,12.21-2.57.73-5.25,1.07-7.81,2.23,3.1-.42,6.19-.9,9.29-1.25,5.1-.59,10.21-1.06,15.3-1.68,1.67-.2,3.29-.76,4.95-1,2.76-.45,5.54-.82,8.31-1.21a31.05,31.05,0,0,0,5.42-.79c4.4-1.5,8.41-3.94,12.68-5.94.24.79.42,1.41.53,1.77l7-2.39,1.5,1.63c.17-.95.31-1.77.4-2.3,2.48-1.46,6.27,1.81,7.71-2.66.09-.28,1.58-.44,1.62-.33a29.06,29.06,0,0,1,.91,3.29l1.07-3.53a19.25,19.25,0,0,0,3.19,2.77c.3.18,1.48-1.14,2.42-1.9,1.07,1.88,3,2.16,5.24,1.66,1.67-.38,3.73,1.64,5.05-.85L249,476" transform="translate(-47.71 -63.9)"/><path class="cls-1" d="M157.37,472.57c-.76-3.37-1.23-7.31,1.47-10.52,2.09-2.48,3.11-3,5-2-5.36,2.63-7,7.39-5.94,12.55.83,4.13,5.38,4.56,9.44,6.47-.25-6.87,1-13.26-1.65-19.16-1.59-3.57-4.67-6.64-9-6.33-7.3.52-14.43,1.62-21,5.73-4.66,2.93-6.21,7.05-6.28,11.74-.16,9.75,7.08,15.69,16.68,14.09,5.64-1,11.23-2.21,16.41-3.24C160.57,478.45,158.09,475.71,157.37,472.57Z" transform="translate(-47.71 -63.9)"/><path class="cls-1" d="M278.34,482.71a10.92,10.92,0,0,0-1.44,2c.9.56,1.75,1.48,2.71,1.62a30,30,0,0,0,4.4-.24c3.13-.05,6.26,0,10.3,0L290.4,488l11.53,4.67c10,4.07,20.17,7.33,30.93,8.58,7.66.88,15.3,1.93,23,2.82a31.27,31.27,0,0,0,7.7.4c5.23-.72,10.39-1.93,15.58-2.95-2.42,1.24-4.72,3.07-7.28,3.59-4.19.85-8.55.84-12.83,1.2v.54l2.8.23c-3.62.54-8,2-12.18,1.55-3.29-.37-5.46.37-8.41,2.76,3.66.38,6.71.92,9.77,1,3.39,0,6.79-.34,10.18-.6.09,0,.11-.79.14-1,3.61-.67,7.27-1.29,10.9-2.09.69-.15,1.14-1.18,1.84-1.51a8.48,8.48,0,0,1,2.34-.35c5.13-.72,10.5-.9,13.42-6.3a55.62,55.62,0,0,0,6-3.71" transform="translate(-47.71 -63.9)"/><path class="cls-1" d="M469.32,76.11,469,77c.42-.44.85-.86,1.31-1.27Z" transform="translate(-47.71 -63.9)"/><path class="cls-1" d="M470.29,75.72c-.46.41-.89.83-1.31,1.27l-.56,1.43a25.48,25.48,0,0,0,2.33-1.61c-.14-.37-.28-.73-.43-1.1Z" transform="translate(-47.71 -63.9)"/><path class="cls-1" d="M100.82,436.08c-.67,1.3-1.16,2.69-1.71,4.06a23.42,23.42,0,0,0-2.06,3.06c-2.65,5.52-5.21,11.08-7.8,16.63.12.27.24.53.37.8.93-.54,2.12-.87,2.76-1.65,4.29-5.24,4.6-12.74,9.85-17.5.31-.28-.06-1.3-.11-2a23.3,23.3,0,0,0,.39-3.09A3.46,3.46,0,0,0,100.82,436.08Z" transform="translate(-47.71 -63.9)"/><path class="cls-1" d="M469,77l.34-.88-20.38,8.11c6.3-1.06,12.63-2,18.22-5.08A26.51,26.51,0,0,1,469,77Z" transform="translate(-47.71 -63.9)"/><path class="cls-1" d="M469,77a26.51,26.51,0,0,0-1.82,2.15c.42-.23.85-.47,1.26-.72Z" transform="translate(-47.71 -63.9)"/><path class="cls-1" d="M136.55,446.89c-.35,1.8-.71,3.59-1.07,5.39l.78.33q2.53-5.89,5.09-11.79C150.25,425.88,159.26,411,168,396c5.68-9.75,10.91-19.76,16.56-29.53,2-3.43,4.76-6.41,6.92-9.75,4-6.11,7.64-12.41,11.61-18.51,4.34-6.65,8.91-13.16,13.29-19.79.49-.75.36-1.91.51-2.87l-1.29-.46c-1.46,2.83-2.71,5.79-4.44,8.45-3.26,5.05-6.82,9.91-10.23,14.87q-10.52,15.28-21,30.6c-1.1,1.61-1.88,3.49-3.2,4.87-5.13,5.35-8.08,11.86-10.41,18.74v0l-.75,1.43c.1.54.47,1.24.26,1.61-2.07,3.64-4.18,7.27-6.4,10.82-2.48,4-5.21,7.75-7.61,11.75-5.4,9-10.67,18.09-16,27.15-.79,1.36-1.48,2.78-2.21,4.18l.52.28Z" transform="translate(-47.71 -63.9)"/><path class="cls-1" d="M190.55,332.69c-1-.84-1.41-1.29-1.91-1.66-.72-.54-1.49-1-2.24-1.52a10.68,10.68,0,0,0-1,2.6c-.21,2.61-.32,5.23-.31,7.84a36.34,36.34,0,0,0,.53,4.38C187.38,340.36,183.28,334.86,190.55,332.69Z" transform="translate(-47.71 -63.9)"/><path class="cls-1" d="M147,436.49a8,8,0,0,0,.39-1.2l-.76-.25q-3.47,6.94-6.91,13.88A83.94,83.94,0,0,0,147,436.49Z" transform="translate(-47.71 -63.9)"/><path class="cls-1" d="M179,401.94c-4.24,5.52-8.35,10.62-14.26,13.91A20.48,20.48,0,0,0,161,418.7c-4.31,3.93-5.13,9.79-7.93,14.56-1.29,2.19-2.39,4.32-.3,7.26l7.46-5.62,2.67.41c-.15-.91-.28-1.72-.47-2.84l2.75.74-.42-.87c.59-.45,1.15-.93,1.77-1.33,1.17-.77,2.36-1.53,3.57-2.23.78-.46,1.69-.72,2.42-1.25,2.94-2.12,8.25.53,9.59-4.78l.44.4c.4-.57,1.2-1.19,1.13-1.69a14.12,14.12,0,0,0-1.47-3.28l3.56,1.1C186.86,412.26,185.06,406.4,179,401.94Z" transform="translate(-47.71 -63.9)"/><path class="cls-1" d="M194,334.51c.23-1.71.46-3.43.61-4.53-.81-2.24-1.51-4.21-2.49-6.93.4,4.36.72,7.92,1,11.48Z" transform="translate(-47.71 -63.9)"/><path class="cls-1" d="M184.42,315.72l-1-15.84-1,.06q.39,7.94.77,15.86Z" transform="translate(-47.71 -63.9)"/><path class="cls-1" d="M255,333.06l-29.94,9.41C234.17,341.73,252.3,335.85,255,333.06Z" transform="translate(-47.71 -63.9)"/><path class="cls-1" d="M181.73,345.29l-.87-15.55-.68,0,.84,15.68Z" transform="translate(-47.71 -63.9)"/><path class="cls-1" d="M509,552.1c-15.62-9.57-32.82-15.64-49.68-22.42-5.55-2.23-10.67-4.66-13.9-10a5.11,5.11,0,0,0-3.07-1.68c-3.46-.77-6.95-1.41-10.45-2-1.89-.29-2.19-.88-.81-2.22l.35,0,.33.05c6.5-1.08,11.62,2.91,17.65,4.8,10.12-14.63,13.22-31.91,17.62-48.71l1.18.32c-2.26,8.62-4,17.41-6.91,25.82s-6.87,16.6-10.36,24.83c1.94.38,4.76-.55,5,3.46.05.79,3.77,1.32,5.76,2" transform="translate(-47.71 -63.9)"/><path class="cls-1" d="M231.83,185.34c-.21,1.85-.43,3.71-.63,5.51l-3.64-1V200.3l-.74,0-.34-1.09c-1.15,3.82-3,8.09-3.59,12.52-.51,3.88.36,7.95.66,11.94.39,5.12.81,10.24.69,15.41q-1.86-15.24-3.71-30.43c-.95,5.67-1.88,11.28-2.82,16.88l-1-.11q1-10.6,2-21.22h.65l.67,2.35c.32-.19.49-.24.5-.3,1.54-13.51,10.75-24.78,11.15-38.71,1.29,6.95,3.8,13.48,2.69,20.81-.82,5.45.19,11.18.37,16.79a10,10,0,0,1-.28,3q-.69-11.41-1.39-22.82Z" transform="translate(-47.71 -63.9)"/><path class="cls-1" d="M389.8,500.52c-2.92,5.4-8.29,5.58-13.42,6.3a8.48,8.48,0,0,0-2.34.35c-.7.33-1.15,1.36-1.84,1.51-3.63.8-7.29,1.42-10.9,2.09,0,.22-.05,1-.14,1-3.39.26-6.79.65-10.18.6-3.06,0-6.11-.59-9.77-1,3-2.39,5.12-3.13,8.41-2.76,4.17.47,8.56-1,12.18-1.55l-2.8-.23v-.54c4.28-.36,8.64-.35,12.83-1.2,2.56-.52,4.86-2.35,7.28-3.59l5.54-1.47h1.06l-.05-.09,1.48.37,0,0,.36-1.69Z" transform="translate(-47.71 -63.9)"/><path class="cls-1" d="M471.74,440.1a61,61,0,0,1-.46-7.85c.41-6.28,1.37-12.61-1.89-18.45-.76-1.38-2.3-2.33-3.28-3.29,4.76-2.11,10.61-2.27,16.33-1.19,17.32,3.25,34.57,6.84,51.84,10.32,3.49.7,7,1.47,10.46,2.2-.08.4-.16.79-.25,1.19l-15.36-3.18c-13.55-2.82-27.07-5.82-40.67-8.38-5.3-1-10.78-1-16.19-1.41a7.93,7.93,0,0,0-1.88.3c3.71,9.91,3.57,19.76,1.27,29.69Z" transform="translate(-47.71 -63.9)"/><path class="cls-1" d="M235.42,227.3V191.67h1.05a275,275,0,0,1-.21,35.74Z" transform="translate(-47.71 -63.9)"/><path class="cls-1" d="M402.08,504.25l-8.55,5,1.84-3.4-2.58-.53a6.75,6.75,0,0,1,10.26-2.09Z" transform="translate(-47.71 -63.9)"/><path class="cls-1" d="M471.66,440.05c-.51,5.5-1,11-1.57,16.51a41.2,41.2,0,0,1-1.94,9c-.14-.36-.43-.74-.39-1.08q1.64-11.7,3.36-23.39c.05-.34.41-.63.62-.95Z" transform="translate(-47.71 -63.9)"/><path class="cls-1" d="M194,296.2q-1.49-9.72-3-19.44l.78-.11q1.51,9.69,3,19.38Z" transform="translate(-47.71 -63.9)"/><path class="cls-1" d="M89.23,507.5l1.14.16q-3.16,4.8-6.34,9.6l-.47-.59Z" transform="translate(-47.71 -63.9)"/><path class="cls-1" d="M230.22,232.48V213.42h.31v19.14Z" transform="translate(-47.71 -63.9)"/><path class="cls-1" d="M390.68,146.46l-9.34,2.66L381,147.8l10.93-2.46Z" transform="translate(-47.71 -63.9)"/><path class="cls-1" d="M179.07,359.57l-1.82-.74-1.6-.33,4.14.25c-.23.25-.46.51-.7.76Z" transform="translate(-47.71 -63.9)"/><path class="cls-1" d="M385.7,500.07h-1.06c-.16-2.68,1.29-2.14,2.83-1.43l-.36,1.69Z" transform="translate(-47.71 -63.9)"/><path class="cls-1" d="M283.34,294.68c-2,.84-4.11,1.66-6.16,2.49-5.5,2.19-11.41,3.34-17,5.26-8,2.73-15.93,5.73-23.87,8.64a4,4,0,0,0-1.93,1.56L250,307.34l-1.25,2.6,18.83-7,.36.62-13.14,10.29.08.6,31.05-11.27.24.37-20.41,12.93.21.64L288,310c-6.69,10.11-19.23,13.07-28.12,20.93,8.44,1.14,8.44,1.14,21.83-4.76L274.16,333c2.9.71,5.81,1.09,8.46,2.13,14.9,5.88,29.85,11.65,44.58,17.95,22.35,9.56,44.56,19.48,66.79,29.32,15.7,7,31.28,14.21,47.06,21,5.9,2.53,12.2,4.12,18.32,6.14l-.24.82c-5.56-1.6-11.32-2.72-16.63-4.91-20.33-8.39-40.52-17.1-60.74-25.75q-23.28-10-46.49-20.06c-2.29-1-4.5-2.12-6.81-3-.93-.37-2.07-.2-3-.49a20.87,20.87,0,0,1-4.26-1.64c-2.7-1.53-5.12-3.68-8-4.8-12.32-4.89-24.76-9.47-37.14-14.21a7.78,7.78,0,0,0-7.71,1c-8.34,5.54-17.81,8.22-27.38,10.76-15.61,4.15-31.12,8.66-45.36,16.61-1.06.59-2,1.32-3.5,2.28l23.58,6.66c-3.61,1.5-7.75,1.18-12,.12s-9-4.79-12.85-2.75c-.3.16-.17.68-.39.94-1,1.13-4.42,1.79-5.08,3.13-2.94,6,1.33,13.19,2.22,19.67.28,2,4.32,3.09,6.14,2.06.34-.19,1,.18,1.52.35,1.77.61,3.63,1.65,4.63-1.06l1.16.71c.11-1.19.2-2.28.31-3.55l.95,1.73c.34-1,.61-1.81,1-2.91.23.38.41.54.4.68a7.06,7.06,0,0,0-.26,1.66c.14,1.06.45,2.11.69,3.16.67-.76,1.81-1.45,1.93-2.29.52-3.49.73-7,1-9.46.2,1.9.36,4.93.9,7.89.2,1.08,1.28,2,2,3,1.08-1.58,4.4-1,3.92-4.09a10.49,10.49,0,0,1,.23-2.14l3.33,2.32,1.41-5.89h.57v8.38l1.19.15a49.7,49.7,0,0,1,1.58-5" transform="translate(-47.71 -63.9)"/><path class="cls-1" d="M471.69,68.41c4.15.77,5.82,5.33,3.15,9.25-2.48,3.64-4.78,7.67-8.09,10.4-5.75,4.73-12.21,8.59-18,12.56-.49,1.24-1,2.36-1.39,3.51-.54,1.44-3.52,2.09-1.45,4.41,0,0-.36.53-.59.77-4.36,4.73-7.58,10.57-13.71,13.55-4.28,2.07-8.49,4.31-12.71,6.52a50.43,50.43,0,0,0-4.46,2.56c-5.51,3.64-10.92,7.43-16.5,10.95-1.81,1.14-4,1.65-6,2.45L381,147.8l.37,1.32,9.34-2.66c-2,1-4,1.9-6,2.92a8,8,0,0,0-1.31,1.18c-5.63-.87-11.13-.77-16.17,2.62l16.14-2.66,8.24-2,.21.9-25.25,5.28c7.11,2,13.92.8,20.45-2.06,6.88-3,14-5.57,19.45-11.23.73-.76,2.61-.38,3.42-1.12,2-1.88,3.78-4.1,5.77-6.33.08,6-.24,12-3.88,17-4.4,6.12-9.38,11.81-13.82,17.9a14.08,14.08,0,0,0-2.38,6.6c-.67,6.64-2.57,12.68-7.27,17.7l.66.55L398,186.6c-3.07,9-9.83,14.42-14.62,21.38l10-7.89c-1,12.14-6.4,21.29-16.69,27.61l1.21.37c-.16,1.48.19,3.33-.57,4.38a89.1,89.1,0,0,1-6.55,7.49c-2.82,3.14-6.08,6-8.39,9.46-4.47,6.74-10.67,11.44-17.48,15.2q-18.33,10.14-37.2,19.32c-8,3.87-16.16,7.39-24.38,10.76" transform="translate(-47.71 -63.9)"/><path class="cls-1" d="M208.1,255.73l-.68-9.88.85-.06q1.23,15.45,2.44,30.9l.83-.06c-1.15-16.87-2.29-33.74-3.39-50a11.7,11.7,0,0,0-4.7,10l-.48-1c-6.75,8-7.18,8.86-7.77,15.08l-.3-4.62-.52-.07-.91,4.66h-2.22c-3.93,9.32-3.47,19.07-2.75,28.8.31,4.2,1.15,8.36,1.68,12.55a5,5,0,0,1-.45,1.74h-.92c-.35-3.09-.87-6.17-1-9.27-.4-8.24-.81-16.49-.89-24.74s2.93-15.52,7.42-22.41c5.14-7.89,9.78-16.1,14.64-24.17l.83.3.73,7.61,2.24-4,.5.29-1.36,27.06-.19,0c-.23-3.84-.45-7.69-.7-11.93-3.24,6.89,2.16,51.6,6.81,54.73a16.84,16.84,0,0,0-.48-3.14c-3.84-10.41-5-21.32-5.58-32.26a49.5,49.5,0,0,1,1.22-15c1.36-5.23.2-10.69,2.39-15.56.47,9.86-1.87,19.94.82,29.93V232.22h1.07V271.6h1v-3.9l.25,0,2.93,18.2,3,.78c-1-3.4-2-7-3-10.62a7.43,7.43,0,0,1-.23-2.61c.31-3.07.71-6.13,1.08-9.19l-1-.21-1.12,2.63h-.47V249.07c1.5,6.64,2.84,12.61,4.19,18.57l.9.08c.34-2.13.84-4.26,1-6.41.17-2.66,0-5.35,0-9,1.33,6.57,2.46,12.12,3.58,17.66h.45l.46-2.18.66,1.6.63-.09c-1.23-6.82-2.46-13.65-3.74-20.71l3.32-.53V231.35h.67V240l.73,0,.42-9.43h.24l1.41,26.48.19-.05,2-33.54h.45v28.63l.69.06a3.47,3.47,0,0,1,.28-.72c2.26-3.41.21-7.2,1.27-10.79.15,1.09.3,2.19.44,3.28l.72,0V219.14c1.38,10.16,3,22,4.58,33.8l1.48-.21-4.32-25.31.61-.11,2.25,9.79.81-.16q-.83-5.52-1.66-11l.58-.1q2.19,12.63,4.37,25.25l.83-.11q-1.14-8.59-2.27-17.21l.66-.1,3,18.82.38,0q-.89-11.5-1.78-23l.35-.07c.6,2.84,1.19,5.68,1.79,8.52l.69-.1c-.67-3.51-1.46-7-2-10.54-2.2-14.19-4.45-28.38-6.37-42.61-.44-3.27.38-6.71,0-10.12l-.27,4.27-.52,0,.63-10.82c3.43,4.92,1.32,10.43,1.79,16.24.12-1.86.2-3.18.28-4.5.35,3.05.2,6.09.39,9.1a91,91,0,0,0,1.31,12.37c.85,4.09,3.11,8,3.51,12.06.53,5.47,2.14,10.53,3.81,15.65.48,1.49,1,2.95,1.53,4.43l.35-.12q-1.12-7.17-2.26-14.33l.82-.13c.61,1.91,1.23,3.82,1.84,5.73l.53-.15q-1.58-8.72-3.16-17.42l.59-.12q1.32,5.76,2.65,11.53l.56-.09q-.75-5-1.48-9.94l.46-.07c1.07,4.71,2.13,9.42,3.32,14.65l.72-2.62c.5,1.86.9,3.36,1.29,4.84-1.05-10.44-2.09-20.81-3.13-31.19,1.37,3.93,3.44,8,3.06,11.8-.41,4.07,1.88,6.69,2.75,10a16.41,16.41,0,0,0,1.33,2.6c2.06-14.93-4.27-28.64-3.43-42,1.66,9.21,3.47,19.24,5.27,29.27l1.64-.22c-.42-3-.84-5.92-1.19-8.36l3.79,6,.92-.49-2.66-7.78,1-.27,5.43,10.85.52-.16c-1.14-4-2.29-7.92-3.66-12.64,4.75,1.84,3.71,6.78,6.56,9.06a138,138,0,0,0-10.86-30.18l-.27-1.31c.08-6.07,0-12.16.38-18.21.07-1.26,1.74-2.43,2.68-3.63-1.09,6.65-2.94,13.47-.09,19.94,3.89,8.83,8.44,17.35,12.71,26a5.74,5.74,0,0,0,.07-3.52q-3.54-10.2-7.24-20.34c-2.34-6.42-4.09-12.9-2.65-19.33l2.27,12.46,1.63-.15V149.73l1.5-.12a51.33,51.33,0,0,0,5.29,31.31c.46-1.93.85-3.57,1.33-5.63.8,3.17,1.49,5.88,2.18,8.58l.8-.16c-.6-3.33-1.2-6.66-1.85-10.25L293.9,186l1-.3c-.52-6.15-1.65-12.27-1.87-18.43l1.28-.15c1.45,4.36,2.9,8.71,4.39,13.16,2.64-2.93,3.54-5.92,2.68-9.1-.58-2.09-1.39-4.12-2-6.21-1.2-4.28-2.33-8.59-3.49-12.88l.49-.11q3.27,10,6.53,20l.86-.24q-.36-4.39-.7-8.81l1.25,0v21.44l1.63,0c.89-6.7,0-13.4-.06-20.17q.9,8,1.79,16h.21V167.77l.34,0,1.35,5.87.54,0V163c.67,1.55,1,2.28,1.37,3.17l1.21-2.58.47.18q-.28,2.79-.55,5.58l.93,0V153.32c1.07,2.39,1.93,4.3,2.78,6.21l.44-.17-2.28-12.28.69-.17L317,151.7l1.19-.27c-.94-6-1.88-12-2.76-17.5,4,5.78,3.46,12.94,3.74,19.7.13-.67.32-1.59.51-2.51l.34,0,1.19,10.43.4,0c-.22-3.21-.43-6.42-.69-10.33l1.33,2.22,3.38-10.09c-.21,3.48-.4,6.61-.58,9.74l.74,0,1.09-14.24h.33v10.43l1,.07v-18h.85q.82,7.09,1.63,14.18l.24,0,.81-10.59h.78c.54,4.75,1.09,9.5,1.48,12.87.64-3.34,1.53-7.94,2.42-12.53l.83.15c.13,1,.27,1.95.4,2.92l.42,0q.61-8.13,1.21-16.26h.22v14.06H340l1.1-13.14h.43v18.19c.85-8.39,1.68-16.53,2.51-24.68l1,.07q.44,7.36.88,14.72l.2,0c.39-3.73.77-7.46,1.21-11.8l1.41,7.59c.64-1.43,1-2.32,1.26-2.84,3.86,1.51,3.17,5,3.83,8.14q.83-6.69,1.66-13.37l.23.06c.24,2.75.48,5.51.71,8.26l1-.07c-.21-2.55-.41-5.11-.57-7.15.79.35,2.32,1.06,2.34,1,1.37-2.74,2.62-5.54,4.28-9.24-.19,3.87-.33,6.74-.47,9.62h.24l.47-3.36.7.07c.13,1.52.27,3,.41,4.55l.59.1c1.06-2.63,2.13-5.26,3.15-7.78.24.66.6,1.67,1.17,3.23.12-1.36.19-2.19.28-3.22l1.51,2.21c-.56-3.21-1-5.42-1.47-8.31l1.56,2.08c.43-1.68.84-3.26,1.31-5.12.25.88.43,1.51.74,2.55.92-2.87,1.7-5.28,2.48-7.68l3,2.55,3.06-2.32.5.68,1.37-4,2.18,4.53A28.72,28.72,0,0,0,390.52,99a36.66,36.66,0,0,0,3.15-4.88l2.13.9L398,89.62l2.23,4.66c.69-1.4,1.52-3.08,2.47-5l2,3,1.31-2,2.06,1.65-.63-1A51.59,51.59,0,0,1,412.6,87a21.17,21.17,0,0,1,4.49-1.41l-2,3.83a9.84,9.84,0,0,0,4.26-2.21C422,84.66,424.47,82,427,79.31c-1.11,2.49-2.22,5-3.32,7.48l-2.08,2.9.56.38c.72-.83,1.43-1.67,2.15-2.51,3.36-2.44,6.61-5,10.1-7.29,4.95-3.19,10.1-6.07,15.07-9.23.79-.51,1.07-1.81,1.64-2.82a41.1,41.1,0,0,0-4.55,0c-3.8.48-8-.53-11,3.12-.74.9-2.43,1-3.68,1.52a.39.39,0,0,0-.11-.58l-1.95-1.89-3.84.71c-2.22,1-5.16,3.3-6.51,2.6-3.43-1.79-4.86.4-7.44,2.79.4-2.58.65-4.18.84-5.38l-3.8-3.56L397.51,80.89l-.62-.34.5-4.15c-1,1.75-1.67,2.86-2.55,4.36.08-1.14.13-1.8.24-3.42-1.33,2.46-2.18,4-3.07,5.65l-2.53-1-1.34,2.77c-.18-.8-.33-1.42-.46-2L385,83.83c.15-1.08.26-1.91.37-2.75l-.43-.16-4.05,9.25-.37-.18.57-4.83-.59,0L378.8,88c.16-2.79.28-4.91.4-7l-.64-.51L370.61,92c-.07-.51-.16-1.28-.29-2.4l-1.54,3-.35-.13c.38-2,.77-4,1.15-5.92l-.71-.19-2.6,4.26-.46-.24,1.8-7.85-.92-.25-4.49,7.65c-6-1.71-7.74,2.7-9.92,6.44.05-.6.11-1.19.16-1.79l-5.49,2-1.52,2.88c-.28-1.57-.42-2.31-.62-3.44l-3.18,2.73c.15-1.47.31-3,.46-4.44l-.8-.38c-1.56,2.27-3.11,4.55-4.79,7-.21-1.8-.38-3.29-.55-4.78l-1,0c-.63,1.79-1.25,3.58-1.92,5.5l-1.41-1.58-.82,2.31c-.44-2.35-.78-4.16-1.29-6.9l-2.09,6.4-.66-.15L327.3,97a3.48,3.48,0,0,0-1.7,2c-1.38,3.08-.48,6.66-2.93,9.7-1.76,2.2-2.07,5.58-2.78,7.68-.56-2.91-1.28-6.55-2-10.44-1.13.43-2,.51-2.11.84-1.54,4.93-3,9.88-4.17,13.88-2.59-5.43-.05-11.33,2.76-17.19l-1.45-.38q-2.52,6.45-5,12.91l-.49-.15c.18-1.35.37-2.71.55-4.06l-.3,0L304,121.57l-1.13-.29v-8.59a24.88,24.88,0,0,0-1.26,4,25.53,25.53,0,0,1-1,2.46c-2.91-1.29-1.92,1.41-2.52,2.47l-1.53,2.67-.35-.23,1.5-6.12-.73-.16-3.38,5.75.25-2a53.69,53.69,0,0,0-5.5,5.59c-1.25,1.7-1.84,3.89-2.95,6.37-.16-1-.19-1.3-.27-1.62-.26-1-.53-2-.8-3-.66.89-1.7,1.7-1.92,2.69-.88,4-1.52,8-2.25,12-1.86-1-4,0-4.09,1.83,0,.58-.08,1.16-.17,2.41l-.91-3.24c-.7,1.58-1.18,2.67-1.67,3.76q-.17-4.2-.35-8.4l-1-.05c-3.05,4.61-4,9.88-4.63,15.33-.1-2.16.2-4.27.27-6.38.11-3.26,1.39-6.92-2.87-9.25-.72,2.87-1.38,5.54-1.91,7.67l-3.7-1.19-3.91,8.82-.58-1.58-.94,1.63-1.06-1.47-.59.27,1.14,5.65-.54.15-2.11-4.85-2.11,6.66c-.39-.62-.66-1-1.13-1.8l-2.8,8.48c-1.27,1.52-2.83,2.89-3.73,4.6-1,1.93-1.43,4.18-2.84,6.19a27.47,27.47,0,0,1,.54-5.4c2.36-7.87,3.34-16.73,7.73-23.28,6.64-9.93,14.25-19.9,27.05-24.18-1.39,5.29-2.7,10.26-4,15.24l.32.06c1.73-3.3,3.24-6.75,5.27-9.85a54.41,54.41,0,0,1,5.86-6.69c.17-.18.74,0,1.17,0,14.3-19.38,34.22-31.13,56.28-40,8.8-3.54,17.5-7.36,26.17-11.25a85.69,85.69,0,0,1,29.9-7.24c15.54-1,31.11-1.71,46.67-1.95,6.47-.11,13,1.2,19.43,2,3.81.5,7.57,1.37,11.35,2.07" transform="translate(-47.71 -63.9)"/><path class="cls-1" d="M111.69,460.93c1.5-.52,3.35-.8,4.61-1.93.85-.76,1.38-1.81,2.2-2.61s3.4-.45,3.4-.45c11.85-4.18,17.84-33.28,25.2-43.46,11.33-15.69,22.61-31,31.71-48l-.92,0c-.22-1.87-.43-3.75-.64-5.62l1.82.74.69-.06,0-.76-4.14-.25v.22l-.2,0-1,.07c-.16-4.73,3.88-2.85,6.07-3.86-3.27-5.5-5.51-6.12-12.5-3.75l2.86-2.51c-3.83-.41-5.21,2.33-6.57,5.44l-.61-2.05c-9.53,6.95-14.6,18.37-26.05,24.41,1.2-1.56,1.76-2.42,2.46-3.16,5-5.3,10.22-10.44,15.05-15.9,7.87-8.89,10.44-10.47,24.18-13.36,0-8.13.57-16.39-.19-24.52-.57-6.08-3.29-11.92-4.29-18a83.75,83.75,0,0,1-.64-18.14l1.41,11.61c2.73-8.74-.37-17.24-.34-25.86l4.45,20.19,1.06-.15V272.94h.61l.71,23,1.67-.09-.63-13,1.17-.18c1.84,2.65,1.33,6,1.8,9s.53,6.39,1.31,9.45,2.27,6.19,3.84,10.29l.35-6.26c.55.68,1.15,1.42,1.73,2.16.3,6.73.61,13.46.92,20.24.82-1.4,1.79-2.48,2.06-3.72a21.55,21.55,0,0,0,.08-4.69h-.57c-.18.68-.36,1.37-.55,2.06-.66-4.7-1.31-9.3-1.95-13.9v-6.91l2.25,1.89.86-.57,2.28,11,.66.45c.68-1.75,1.35-3.51,2.29-6,.71,2.6,1.18,4.3,1.64,6-2.07-17.94-8.91-35.12-8.14-53.49.7,16.27,4.63,31.87,10.34,47.19L204,290l.26,0q1.54,6.85,3.1,13.71l1.05-.15-1.19-8.89.5-.17,1.08,1.85.92-.24-2.13-10.57-1.22,2.58.63-13.06.49,0L210,286.32l.17-.1-2.08-30.49" transform="translate(-47.71 -63.9)"/><path class="cls-1" d="M403.51,495.4a29.17,29.17,0,0,0-3.44,2c1.21,1,2.26,2.47,3.65,2.95,1.71.6,3.71.29,5.55.59.64.1,1.17.84,1.75,1.29-.66.44-1.31,1.24-2,1.27-2,.07-4-.17-6-.29a6.75,6.75,0,0,0-10.26,2.09l2.58.53-1.84,3.4,8.55-5-1.95,4.64,4.69-1.14c0-.12,0,.36.12.39,1.52.34,3.18,1.11,4.57.78,2-.47,3.06.35,4.12,1.59.29.33.24,1,.19.73,3.52,0,7.21,0,10.9.07.19,0,.35,1.15.52,1.77l3.72-.67c.31,1.13.56,2.07,1,3.7-12.91-1.73-25.33-3.44-37.76-5.06-4.06-.52-8.14-.82-12.22-1.19a3.19,3.19,0,0,0-1.66.22c-18.4,9.42-37.05,7.28-55.84,1.39a175.91,175.91,0,0,1-37.65-16.62c-20.91-12.49-43.63-15-67.25-13.51-2.55.15-3.47.93-3.52,3.69a77,77,0,0,1-1.36,14,19.36,19.36,0,0,1-8.65,12.35c-3.24,2.16-6.9,3.07-10.48,1.68-2.64-1-4.27,0-5.63,1.57-4.22,4.85-9.72,6.07-15.74,6.12a9.88,9.88,0,0,1-9.62-9.36c0-5.39,0-10.78,0-16.18,0-1.35-.23-2.69-.4-4.42-3.4.47-6.63,1.63-9.64,1.2-6.77-1-10.73,2.5-14.85,7.09-4.3,4.81-8.46,10-14.88,12.48-5.4,2.06-10.77,4-17,2.39-4.12,6.86-8.45,13.61-12.29,20.62C90.94,539.27,88,542.93,83,545.62c-6.18,3.28-11.45,8.3-17,12.68-3.78,3-7.33,6.23-11.14,9.15a10.23,10.23,0,0,1-5.5,1.83l5.75-6.62-6.34,2.25c11-15.45,21.45-30.25,32-45a37.75,37.75,0,0,1,2.87-3.22l.47.59c-4.13,6-8.22,12.09-12.4,18.08-3,4.34-6.19,8.58-9.29,12.87l1.23,1c4.24-2.38,4.76-8.45,9.94-10.41-.71,2.58-1.41,5.16-2.34,8.55a35,35,0,0,0,3.25-2.6c2.57-2.68,5-5.45,7.57-8.18l.49.58c-1,2.21-2,4.42-3,6.6,2.79-.23,10.47-11.26,11.15-16.07l-3.09,1.88a13.34,13.34,0,0,1,1.25-2.37c3.55-4.35,7.24-8.57,10.71-13a119.45,119.45,0,0,0,11.89-19.35c3.12-6,7.39-12.27,8.84-18.94a17.66,17.66,0,0,1,.89-3.3,25.49,25.49,0,0,1,1.77-2.92c1.74-2.85,1.6-6.95,3.8-9.37-3.24.12-4.31,4.42-6.81,6-1,.6-2,1-2.91,1.71a11.9,11.9,0,0,0-2.46,2.74C105.81,483,101,498.32,89.36,507.62l22.12-36.72c-4,1.19-8,2.39-12.17,2.21s-8.45-2-10.51-5.61c-2.15-3.76-1.41-8.56.36-12.52s4.47-7.44,6.31-11.36c3.83-8.2,3.67-17.67,6.26-26.34,2.64-8.85,8.1-16.66,14.58-23.25s13.95-12.1,21.41-17.56c-1.32,3-4,5.23-6.54,7.35q-6.62,5.54-12.79,11.55c-4.81,4.67-9.5,9.68-12.26,15.79-1.92,4.24-2.84,8.85-3.74,13.41a14.73,14.73,0,0,0-.41,3.68c.14,2.3,1.34,4.38,2,6.59a18.51,18.51,0,0,1-1.39,13,41.58,41.58,0,0,1-7.87,10.74A12.31,12.31,0,0,0,91.61,463c-.56,1.71-.09,3.91,1.53,4.71l.93-1.52,2.28,1.51L96,465.14" transform="translate(-47.71 -63.9)"/><path class="cls-1" d="M174.47,358.84l1-.07-.28,1Z" transform="translate(-47.71 -63.9)"/><path class="cls-1" d="M431.81,513.82l-.33-.05-.35,0Z" transform="translate(-47.71 -63.9)"/><path class="cls-1" d="M341.54,141.23q.34-3.42.69-6.78l-.69-.55Z" transform="translate(-47.71 -63.9)"/><path class="cls-1" d="M293,122.29v.08c.31-.29.62-.58.92-.88C293.56,121.76,293,122,293,122.29Z" transform="translate(-47.71 -63.9)"/><path class="cls-1" d="M419.5,73.73c-3.43-1.79-4.86.4-7.44,2.79.4-2.58.65-4.18.84-5.38l-3.8-3.56L397.51,80.89l-.62-.34.5-4.15c-1,1.75-1.67,2.86-2.55,4.36.08-1.14.13-1.8.24-3.42-1.33,2.46-2.18,4-3.07,5.65l-2.53-1-1.34,2.77c-.18-.8-.33-1.42-.46-2L385,83.83c.15-1.08.26-1.91.37-2.75l-.43-.16-4.05,9.25-.37-.18.57-4.83-.59,0L378.8,88c.16-2.79.28-4.91.4-7l-.64-.51-5.47,8L370.61,92l-.29-2.4-1.54,3-.35-.13c.38-2,.77-4,1.15-5.92l-.71-.19-2.6,4.26-.46-.24,1.8-7.85-.92-.25-4.49,7.65c-6-1.71-7.74,2.7-9.92,6.44.05-.6.11-1.19.16-1.79l-5.49,2-1.52,2.88c-.28-1.57-.42-2.31-.62-3.44l-3.18,2.73c.15-1.47.31-3,.46-4.44l-.8-.38c-1.56,2.27-3.11,4.55-4.79,7-.21-1.8-.38-3.29-.55-4.78l-1,0c-.63,1.79-1.25,3.58-1.92,5.5l-1.41-1.58c-.26.72-.47,1.31-.82,2.31-.44-2.35-.78-4.16-1.29-6.9-.9,2.74-1.49,4.57-2.09,6.4l-.66-.15L327.3,97a3.48,3.48,0,0,0-1.7,2c-1.38,3.08-.48,6.66-2.93,9.7-1.76,2.2-2.07,5.58-2.78,7.68-.56-2.91-1.28-6.55-2-10.44-1.13.43-2,.51-2.11.84-1.54,4.93-3,9.88-4.17,13.88-2.59-5.43-.05-11.33,2.76-17.19l-1.45-.38q-2.52,6.45-5,12.91l-.49-.15c.18-1.35.37-2.71.55-4.06l-.3,0L304,121.57l-1.13-.29v-8.59a24.88,24.88,0,0,0-1.26,4,25.53,25.53,0,0,1-1,2.46c-2.91-1.29-1.92,1.41-2.52,2.47l-1.53,2.67-.35-.23,1.5-6.12-.73-.16-3.38,5.75c-.19,2.9-.36,5.8-.6,8.7a18.19,18.19,0,0,1-1.18,5.71c.36-5.19.7-10.38,1.11-15.57a37,37,0,0,0-4.58,4.71c-1.25,1.7-1.84,3.89-2.95,6.37-.16-1-.19-1.3-.27-1.62-.26-1-.53-2-.8-3-.66.89-1.7,1.7-1.92,2.69-.88,4-1.52,8-2.25,12-1.86-1-4,0-4.09,1.83,0,.58-.08,1.16-.17,2.41l-.91-3.24-1.67,3.77.08-.1c-1.09,6.66-2.94,13.48-.09,19.95,3.89,8.83,8.44,17.35,12.71,26a5.74,5.74,0,0,0,.07-3.52q-3.54-10.2-7.24-20.34c-2.34-6.42-4.09-12.9-2.65-19.33l2.27,12.46,1.63-.15V149.73l1.5-.12a51.33,51.33,0,0,0,5.29,31.31c.46-1.93.85-3.57,1.33-5.63.8,3.17,1.49,5.88,2.18,8.58l.8-.16c-.6-3.33-1.2-6.66-1.85-10.25L293.9,186l1-.3c-.52-6.15-1.65-12.27-1.87-18.43l1.28-.15c1.45,4.36,2.9,8.71,4.39,13.16,2.64-2.93,3.54-5.92,2.68-9.1-.58-2.09-1.39-4.12-2-6.21-1.2-4.28-2.33-8.59-3.49-12.88l.49-.11q3.27,10,6.53,20l.86-.24L303,163l1.25,0v21.44l1.63,0c.89-6.7,0-13.4-.06-20.17q.9,8,1.79,16h.21V167.77l.34,0,1.35,5.87.54,0V163c.67,1.55,1,2.28,1.37,3.17l1.21-2.58.47.18q-.28,2.79-.55,5.58l.93,0V153.32c1.07,2.39,1.93,4.3,2.78,6.21l.44-.17-2.28-12.28.69-.17L317,151.7l1.19-.27c-.94-6-1.88-12-2.76-17.5,4,5.78,3.46,12.94,3.74,19.7.13-.67.32-1.59.51-2.51l.34,0c.4,3.48.79,7,1.19,10.43l.4,0-.69-10.33,1.33,2.22,3.38-10.09c-.21,3.48-.4,6.61-.58,9.74l.74,0q.54-7.12,1.09-14.24h.33v10.43l1,.07v-18h.85q.82,7.09,1.63,14.18l.24,0,.81-10.59h.78c.54,4.75,1.09,9.5,1.48,12.87.64-3.34,1.53-7.94,2.42-12.53l.83.15.4,2.92.42,0c.18-2.46.37-4.91.55-7.36a19.18,19.18,0,0,1-3.66-7,19.18,19.18,0,0,0,3.66,7l.66-8.9h.22V132c.24.26.49.52.75.77l.82-9.74h.43V133.9l.69.55c.62-6,1.22-12,1.82-17.9l1,.07.88,14.72.2,0c.39-3.73.77-7.46,1.21-11.8l1.41,7.59c.64-1.43,1-2.32,1.26-2.84,3.86,1.51,3.17,5,3.83,8.14q.83-6.69,1.66-13.37l.23.06c.24,2.75.48,5.51.71,8.26l1-.07-.57-7.15c.79.35,2.32,1.06,2.34,1,1.37-2.74,2.62-5.54,4.28-9.24-.19,3.87-.33,6.74-.47,9.62h.24c.16-1.12.32-2.24.47-3.36l.7.07.41,4.55.59.1c1.06-2.63,2.13-5.26,3.15-7.78.24.66.6,1.67,1.17,3.23.12-1.36.19-2.19.28-3.22l1.51,2.21c-.56-3.21-1-5.42-1.47-8.31l1.56,2.08c.43-1.68.84-3.26,1.31-5.12.25.88.43,1.51.74,2.55.92-2.87,1.7-5.28,2.48-7.68l3,2.55,3.06-2.32.5.68,1.37-4,2.18,4.53A28.72,28.72,0,0,0,390.52,99a36.66,36.66,0,0,0,3.15-4.88l2.13.9L398,89.62l2.23,4.66c.69-1.4,1.52-3.08,2.47-5l2,3,1.31-2,2.06,1.65-.63-1A51.59,51.59,0,0,1,412.6,87a21.78,21.78,0,0,1,4.49-1.42l4.4-6L426,71.13C423.79,72.09,420.85,74.43,419.5,73.73ZM288.44,148.31q-.65-5.35-1.3-10.72l1.11-.12q.44,5.42.89,10.82Zm20.05-9.16H308V124h.45ZM335.66,110l-1.1-.18q.45-4.25.91-8.51l1.43.19C336.49,104.32,336.07,107.16,335.66,110Zm7.21,2.79-.61-.09q.74-5.76,1.48-11.51l1.43.24Q344,107.1,342.87,112.78Zm42.63-15.5-.57-3.9.65-.15,1.12,1.69c.58-.92,1.13-1.82,1.69-2.71l.75.58Z" transform="translate(-47.71 -63.9)"/><path class="cls-1" d="M339.54,132v4.16H340c.09-1.13.19-2.27.28-3.4C340,132.53,339.78,132.27,339.54,132Z" transform="translate(-47.71 -63.9)"/><path class="cls-1" d="M274.31,202.49l-.29-.85c0,.32.07.63.11,1Z" transform="translate(-47.71 -63.9)"/><path class="cls-1" d="M273.43,148.21l-.08.09h0Z" transform="translate(-47.71 -63.9)"/><path class="cls-1" d="M281.5,201.55a138,138,0,0,0-10.86-30.18l-.09,2-.9.13c-.61-2.88-1.23-5.77-1.85-8.65l1-.25,1.61,5.48c.08-6.07,0-12.16.38-18.21.07-1.23,1.66-2.37,2.6-3.55q-.17-4.2-.35-8.4l-1-.05c-3.05,4.61-4,9.88-4.63,15.33-.1-2.16.2-4.27.27-6.38.11-3.26,1.39-6.92-2.87-9.25-.72,2.87-1.38,5.54-1.91,7.67l-3.7-1.19-3.91,8.82c-.24-.66-.39-1-.58-1.58l-.94,1.63c-.46-.65-.76-1.06-1.06-1.47l-.59.27,1.14,5.65-.54.15c-.67-1.56-1.35-3.11-2.11-4.85l-2.11,6.66c-.39-.62-.66-1-1.13-1.8l-2.8,8.48-.09-.1c3.43,4.92,1.32,10.43,1.79,16.24.12-1.86.2-3.18.28-4.5.35,3.05.2,6.09.39,9.1a91,91,0,0,0,1.31,12.37c.85,4.09,3.11,8,3.51,12.06.53,5.47,2.14,10.53,3.81,15.65.48,1.49,1,2.95,1.53,4.43l.35-.12q-1.12-7.17-2.26-14.33l.82-.13c.61,1.91,1.23,3.82,1.84,5.73l.53-.15q-1.58-8.72-3.16-17.42l.59-.12q1.32,5.76,2.65,11.53l.56-.09q-.75-5-1.48-9.94l.46-.07c1.07,4.71,2.13,9.42,3.32,14.65l.72-2.62c.5,1.86.9,3.36,1.29,4.84-1.05-10.44-2.09-20.81-3.13-31.19,1.37,3.93,3.44,8,3.06,11.8-.41,4.07,1.88,6.69,2.75,10a16.41,16.41,0,0,0,1.33,2.6c2.06-14.93-4.27-28.64-3.43-42,1.66,9.21,3.47,19.24,5.27,29.27l1.64-.22c-.42-3-.84-5.92-1.19-8.36l3.79,6,.74-.39c0-.32-.07-.63-.11-1l-2.37-6.93,1-.27.54,1.08c-.43-3.11-.86-6.26-1.19-9.52.33,3.26.76,6.41,1.19,9.52l4.89,9.77.52-.16c-1.14-4-2.29-7.92-3.66-12.64C279.69,194.33,278.65,199.27,281.5,201.55Zm-26.17-12.73h-.28V172.09h.28Z" transform="translate(-47.71 -63.9)"/><path class="cls-1" d="M162.56,481.86c-5.18,1-10.77,2.29-16.41,3.24-9.6,1.6-16.84-4.34-16.68-14.09.07-4.69,1.62-8.81,6.28-11.74,6.54-4.11,13.67-5.21,21-5.73,4.32-.31,7.4,2.76,9,6.33,2.63,5.9,1.4,12.29,1.65,19.16-4.06-1.91-8.61-2.34-9.44-6.47-1-5.16.58-9.92,5.94-12.55-1.91-.95-2.93-.44-5,2-2.7,3.21-2.23,7.15-1.47,10.52C158.09,475.71,160.57,478.45,162.56,481.86Z" transform="translate(-47.71 -63.9)"/><path class="cls-1" d="M84,517.26l6.34-9.6c.65-.87,1.24-1.8,1.95-2.62,1.86-2.17,4-4.14,5.63-6.47,2-2.83,3.61-5.92,5.36-8.92,2.83-4.88,5.57-9.81,8.46-14.65,1.48-2.47,3.21-4.8,4.82-7.2.07-.09.1-.29.15-.29,4.85.07,5.7-4.73,8.6-7a7.15,7.15,0,0,1,1.56-.22c-3.51,3.28-1.49,8-5.08,11-1.5,1.28-1.43,4.4-2.06,6.69-.08.32.08.75-.07,1C113,490.77,108,503.52,99.45,514.28c-3.47,4.39-7.16,8.61-10.71,13a13.34,13.34,0,0,0-1.25,2.37l-4.13,5.54-.76.74.09-.11-.7.84c-2.52,2.73-5,5.5-7.57,8.18a35,35,0,0,1-3.25,2.6c.93-3.39,1.63-6,2.34-8.55-5.18,2-5.7,8-9.94,10.41l-1.23-1c3.1-4.29,6.26-8.53,9.29-12.87C75.81,529.35,79.9,523.29,84,517.26Z" transform="translate(-47.71 -63.9)"/><path class="cls-1" d="M224.51,411.66c-1.4,3.86.65,8.61-4.07,11.39l-1.09-.89c-.37.69-.73,1.36-1.25,2.31l-.86-2.09c-.18.9-.32,1.61-.59,2.92-.64-1.48-1.07-2.46-1.29-3a8.16,8.16,0,0,1-1.89,2.1c-.27.16-1.31-1-1.62-1.2a10.05,10.05,0,0,1-3.16.79c-2.07-.16-4.1-.92-6.17-1.06s-4.12.33-6.16.2a2.47,2.47,0,0,1-1.5-1.93,21,21,0,0,0-4.37-15.68c-4.69.83-3.92-4.15-6.06-6l7.2,2.4v-.48l5.55.86s.77-.74,1.44-.67c5.81.52,12.14-2.64,17.43,2.51-.13-.9-.28-1.64-.31-2.38,0-.29.23-.6.53-1.32.42.64.68,1,.92,1.42l1,1.63,1-3.21,3.36,2.81.86-2,.52.72,5-3.69a33.66,33.66,0,0,0,1.95,4.88c2.36,4,2.89,5.77,1.44,9.86-.77,2.2-2.31,4.12-3.51,6.17l-.9-.55c-.67,1.21-1.52,2.79-2.38,4.36l-1-.32Z" transform="translate(-47.71 -63.9)"/><path class="cls-1" d="M179,401.94c6.11,4.46,7.91,10.32,6.78,17.34l-3.56-1.1a14.12,14.12,0,0,1,1.47,3.28c.07.5-.73,1.12-1.13,1.69l-.44-.4c-1.34,5.31-6.65,2.66-9.59,4.78-.73.53-1.64.79-2.42,1.25-1.21.7-2.4,1.46-3.57,2.23-.62.4-1.18.88-1.77,1.33l.42.87-2.75-.74.47,2.84-2.67-.41-7.46,5.62c-2.09-2.94-1-5.07.3-7.26,2.8-4.77,3.62-10.63,7.93-14.56a20.48,20.48,0,0,1,3.73-2.85C170.6,412.56,174.71,407.46,179,401.94Z" transform="translate(-47.71 -63.9)"/><path class="cls-1" d="M317.56,181.23c-5.31,5.66-10.85,11.12-15.86,17-6.15,7.28-11.85,14.94-17.76,22.43-4.85,6.14-9.72,12.28-14.65,18.36-.43.52-1.44.56-1.8.69a37.21,37.21,0,0,1-2.81,5.51c-5.62,7.73-11.43,15.33-17.09,23-3.85,5.24-7.81,10.44-11.3,15.92-5.87,9.26-11.41,18.73-17.09,28.11-.55.9-1.17,1.75-1.76,2.63l1,.73a44.87,44.87,0,0,0,3.06-3.73c1.49-2.27,2.68-4.74,4.21-7,7.89-11.47,15.76-22.95,23.8-34.31,9.18-13,18.07-26.21,27.92-38.67,12.71-16.1,26.25-31.54,39.4-47.3a12.08,12.08,0,0,0,1.31-2.89C317.93,181.62,317.75,181.42,317.56,181.23Z" transform="translate(-47.71 -63.9)"/><path class="cls-1" d="M136.55,446.89l-2.39,2.87-.52-.28c.73-1.4,1.42-2.82,2.21-4.18,5.31-9.06,10.58-18.14,16-27.15,2.4-4,5.13-7.8,7.61-11.75,2.22-3.55,4.33-7.18,6.4-10.82.21-.37-.16-1.07-.26-1.61l.79.08,0-1.46c2.33-6.88,5.28-13.39,10.41-18.74,1.32-1.38,2.1-3.26,3.2-4.87q10.49-15.32,21-30.6c3.41-5,7-9.82,10.23-14.87,1.73-2.66,3-5.62,4.44-8.45l1.29.46c-.15,1,0,2.12-.51,2.87-4.38,6.63-8.95,13.14-13.29,19.79-4,6.1-7.65,12.4-11.61,18.51-2.16,3.34-4.93,6.32-6.92,9.75-5.65,9.77-10.88,19.78-16.56,29.53-8.77,15-17.78,29.91-26.68,44.85Z" transform="translate(-47.71 -63.9)"/><path class="cls-1" d="M182.67,506c-.26,1,2.94,1.77,2.09,2.93-.7,1-2.33-2-3.18-1-1,1.17,2.36,2.42,1.81,3.51-1,1.91-4.44-.49-5.43,2.69-.31,1-3.27,2.56-4.89,1.78-.29-.13,0-.87-.33-.89-.79-.06-.31,2.2-1.15,2.12-1.14-.11-1.27-2.13-1-3.21.83-3.3,4.61-4.77,3.33-8.85-.63-2,0-4.4-.15-6.61-.12-2.79-2.83-6.58-.58-8.55.19-.17,1,.06,1.63.36,3.34,1.59,6.82.86,10.29.89,2.35,0,6.21-1.19,7.43,1.3,1.71,3.51-4.81-1.31-6.55,1.08-1.51,2.06,5.55,2.72,4.36,4.68-.88,1.46-2.8-1.86-3.85-1.06-1.23.93,1.23,3.48,0,4.42-.42.32-2-1.74-2.64-.74s3,1.65,2.58,3.36C186.12,505.5,183,504.52,182.67,506Z" transform="translate(-47.71 -63.9)"/><path class="cls-1" d="M423.68,86.79,427,79.31l4.92-6.42c1.25-.49,2.94-.62,3.68-1.52,3-3.65,7.18-2.64,11-3.12a41.1,41.1,0,0,1,4.55,0c-.57,1-.85,2.31-1.64,2.82-5,3.16-10.12,6-15.07,9.23-3.49,2.25-6.74,4.85-10.1,7.29Z" transform="translate(-47.71 -63.9)"/><path class="cls-1" d="M393.76,162.68c-12.23,7.41-24.69,14.14-39.55,13.29l39.16-14.39Z" transform="translate(-47.71 -63.9)"/><path class="cls-1" d="M102.12,439.5c0,.68.42,1.7.11,2-5.25,4.76-5.56,12.26-9.85,17.5-.64.78-1.83,1.11-2.76,1.65l-.37-.8c2.59-5.55,5.15-11.11,7.8-16.63a23.42,23.42,0,0,1,2.06-3.06Z" transform="translate(-47.71 -63.9)"/><path class="cls-1" d="M431.91,72.89,427,79.31c-2.52,2.64-5,5.35-7.6,7.89a9.84,9.84,0,0,1-4.26,2.21l2-3.83,4.4-6,1.26-1.15a7.94,7.94,0,0,0,2.67-.8c2.21-1.68,4.27-3.55,6.38-5.34A.39.39,0,0,1,431.91,72.89Z" transform="translate(-47.71 -63.9)"/><path class="cls-1" d="M366,136.34l-28.69,27.51c.24-4.13,2.86-5.74,4.91-7.61,7.36-6.71,14.81-13.34,22.25-20a4,4,0,0,1,1.07-.5Z" transform="translate(-47.71 -63.9)"/><path class="cls-1" d="M168.81,510.88c-7.6-1.44-5.66-16.16-.7-20.63a.79.79,0,0,1,.92-.08c4.42,3.43,1.95,11,2.53,16.58C171.68,507.85,170.89,511.28,168.81,510.88Z" transform="translate(-47.71 -63.9)"/><path class="cls-1" d="M330.32,207.72l33.72-9.9C360.45,201.54,341,207.48,330.32,207.72Z" transform="translate(-47.71 -63.9)"/><path class="cls-1" d="M83.36,535.15l4.13-5.54,3.09-1.88c-.68,4.81-8.36,15.84-11.15,16.07,1-2.18,2-4.39,3-6.6l.21-1.42-.09.11Z" transform="translate(-47.71 -63.9)"/><path class="cls-1" d="M469,77l.34-.88-20.38,8.11c6.3-1.06,12.63-2,18.22-5.08A26.51,26.51,0,0,1,469,77Z" transform="translate(-47.71 -63.9)"/><path class="cls-1" d="M469,77a26.51,26.51,0,0,0-1.82,2.15c.42-.23.85-.47,1.26-.72Z" transform="translate(-47.71 -63.9)"/><path class="cls-1" d="M469.32,76.11,469,77c.42-.44.85-.86,1.31-1.27Z" transform="translate(-47.71 -63.9)"/><path class="cls-1" d="M470.29,75.72c-.46.41-.89.83-1.31,1.27l-.56,1.43a25.48,25.48,0,0,0,2.33-1.61c-.14-.37-.28-.73-.43-1.1Z" transform="translate(-47.71 -63.9)"/><path class="cls-1" d="M225.1,342.47,255,333.06C252.3,335.85,234.17,341.73,225.1,342.47Z" transform="translate(-47.71 -63.9)"/><path class="cls-1" d="M344.08,240.84l-23,6.86-.31-1,22.93-7.26Z" transform="translate(-47.71 -63.9)"/><path class="cls-1" d="M190.55,332.69c-7.27,2.17-3.17,7.67-4.9,11.64a36.34,36.34,0,0,1-.53-4.38c0-2.61.1-5.23.31-7.84a10.68,10.68,0,0,1,1-2.6c.75.5,1.52,1,2.24,1.52C189.14,331.4,189.58,331.85,190.55,332.69Z" transform="translate(-47.71 -63.9)"/><path class="cls-1" d="M322.27,239.64l10.9-3.62.4,1.14-16,5.82-.31-.86,3.13-1.81Z" transform="translate(-47.71 -63.9)"/><path class="cls-1" d="M348.18,231.31l-17.06,4.14-.27-1.11,17-4.33C348,230.44,348.07,230.88,348.18,231.31Z" transform="translate(-47.71 -63.9)"/><path class="cls-1" d="M193.37,307.26c.64,4.6,1.29,9.2,1.95,13.9.19-.69.37-1.38.55-2.06h.57a21.55,21.55,0,0,1-.08,4.69c-.27,1.24-1.24,2.32-2.06,3.72-.31-6.78-.62-13.51-.92-20.24C193.39,307.26,193.37,307.26,193.37,307.26Z" transform="translate(-47.71 -63.9)"/><path class="cls-1" d="M422.75,78.45l-1.26,1.15L426,71.13l3.85-.71Z" transform="translate(-47.71 -63.9)"/><path class="cls-1" d="M383.35,150.52l-16.14,2.66c5-3.39,10.54-3.49,16.17-2.62C383.4,150.57,383.35,150.52,383.35,150.52Z" transform="translate(-47.71 -63.9)"/><path class="cls-1" d="M346.58,194.25v-2.82l8.71.43v.84Z" transform="translate(-47.71 -63.9)"/><path class="cls-1" d="M183.46,299.88l1,15.84-1.18.08q-.39-7.94-.77-15.86Z" transform="translate(-47.71 -63.9)"/><path class="cls-1" d="M330.39,263l10.92-8.18.79,1.09L331,264Z" transform="translate(-47.71 -63.9)"/><path class="cls-1" d="M422.75,78.45l7.1-8,1.95,1.89c-2.11,1.79-4.17,3.66-6.38,5.34A7.94,7.94,0,0,1,422.75,78.45Z" transform="translate(-47.71 -63.9)"/><path class="cls-1" d="M293.63,123.53c-.19,2.9-.36,5.8-.6,8.7a18.19,18.19,0,0,1-1.18,5.71c.36-5.22.7-10.44,1.11-15.65,0-.29.6-.53.92-.8C293.8,122.17,293.72,122.85,293.63,123.53Z" transform="translate(-47.71 -63.9)"/><path class="cls-1" d="M147.35,435.29a8,8,0,0,1-.39,1.2,83.94,83.94,0,0,1-7.28,12.43q3.45-6.94,6.91-13.88Z" transform="translate(-47.71 -63.9)"/><path class="cls-1" d="M309.49,501.77c3.83-1.95,5.14-1.28,7.5,3.36Z" transform="translate(-47.71 -63.9)"/><path class="cls-1" d="M328.69,268.24l11.23-7.39C337.17,265.07,332.82,267.94,328.69,268.24Z" transform="translate(-47.71 -63.9)"/><path class="cls-1" d="M136.55,446.89l4.8-6.07q-2.55,5.9-5.09,11.79l-.78-.33C135.84,450.48,136.2,448.69,136.55,446.89Z" transform="translate(-47.71 -63.9)"/><path class="cls-1" d="M193.17,334.53c-.32-3.56-.64-7.12-1-11.48l2.49,6.93c-.15,1.1-.38,2.82-.61,4.53Z" transform="translate(-47.71 -63.9)"/><path class="cls-1" d="M316.71,229.57l-11.65,2.22-.21-1.08,11.68-2.07Z" transform="translate(-47.71 -63.9)"/><path class="cls-1" d="M322.27,239.64l-1.86.67-9.55,2.26C314.44,240.61,318,238.6,322.27,239.64Z" transform="translate(-47.71 -63.9)"/><path class="cls-1" d="M270.64,171.37l-.09,2-.9.13c-.61-2.88-1.23-5.77-1.85-8.65l1-.25,1.61,5.48Z" transform="translate(-47.71 -63.9)"/><path class="cls-1" d="M102.12,439.5l-3,.64c.55-1.37,1-2.76,1.71-4.06a3.46,3.46,0,0,1,1.69.33A23.3,23.3,0,0,1,102.12,439.5Z" transform="translate(-47.71 -63.9)"/><path class="cls-1" d="M287.44,283.69l11-3.62.33.94L288,284.85Z" transform="translate(-47.71 -63.9)"/><path class="cls-1" d="M181,345.46l-.84-15.68.68,0,.87,15.55Z" transform="translate(-47.71 -63.9)"/><path class="cls-1" d="M309.72,276.31l11.95-5.58.37.77-11.94,5.74Z" transform="translate(-47.71 -63.9)"/><path class="cls-1" d="M423.68,86.79l.63.77c-.72.84-1.43,1.68-2.15,2.51l-.56-.38Z" transform="translate(-47.71 -63.9)"/><path class="cls-1" d="M319.56,179.76l-1.38,1.35.08.06-.79-.56c.51-.59,1-1.17,1.55-1.75l.57,1Z" transform="translate(-47.71 -63.9)"/><path class="cls-1" d="M166.34,392.59l0,1.46c0-.5,0-1,0-1.51Z" transform="translate(-47.71 -63.9)"/><path class="cls-1" d="M166.33,392.54c0,.5,0,1,0,1.51l-.79-.08Z" transform="translate(-47.71 -63.9)"/><path class="cls-1" d="M82.69,535.78l-.21,1.42-.49-.58Z" transform="translate(-47.71 -63.9)"/><path class="cls-1" d="M321,178.43l.06-.58.38.21-.49.3Z" transform="translate(-47.71 -63.9)"/><path class="cls-1" d="M318.12,181.82l-.56-.59c0-.12-.08-.24-.11-.36l.81.3-.08-.06Z" transform="translate(-47.71 -63.9)"/><path class="cls-1" d="M318.26,181.17l-.81-.3,0-.26Z" transform="translate(-47.71 -63.9)"/><path class="cls-1" d="M320.24,179.05l-.68.71,0,.06-.66-1,1.37.25Z" transform="translate(-47.71 -63.9)"/><path class="cls-1" d="M318.93,178.86l.66,1-.57-1Z" transform="translate(-47.71 -63.9)"/><path class="cls-1" d="M179.76,359.51l-.69.06,0-.06.34-.05Z" transform="translate(-47.71 -63.9)"/><path class="cls-1" d="M179.76,359.51l-.33-.05-.34.05c.24-.25.47-.51.7-.76Z" transform="translate(-47.71 -63.9)"/><path class="cls-1" d="M320.94,178.36l-.7.69.06.06.69-.69Z" transform="translate(-47.71 -63.9)"/><path class="cls-1" d="M385.7,500.07l1.41.26,0,0-1.48-.37Z" transform="translate(-47.71 -63.9)"/><path class="cls-1" d="M385.65,500l1.48.37Z" transform="translate(-47.71 -63.9)"/><path class="cls-1" d="M342.26,112.69q.74-5.76,1.48-11.51l1.43.24q-1.14,5.68-2.3,11.36Z" transform="translate(-47.71 -63.9)"/><path class="cls-1" d="M288.44,148.31l-1.3-10.72,1.11-.12q.44,5.42.89,10.82Z" transform="translate(-47.71 -63.9)"/><path class="cls-1" d="M334.56,109.81q.45-4.25.91-8.51l1.43.19-1.24,8.5Z" transform="translate(-47.71 -63.9)"/><path class="cls-1" d="M308,139.15V124h.45v15.15Z" transform="translate(-47.71 -63.9)"/><path class="cls-1" d="M385.58,93.23l1.12,1.69c.58-.92,1.13-1.82,1.69-2.71l.75.58-3.64,4.49-.57-3.9Z" transform="translate(-47.71 -63.9)"/><path class="cls-1" d="M255.33,172.09v16.73h-.28V172.09Z" transform="translate(-47.71 -63.9)"/><path class="cls-1" d="M83.36,535.15l-.76.74Z" transform="translate(-47.71 -63.9)"/></svg>