<svg id="圖層_1" data-name="圖層 1" xmlns="http://www.w3.org/2000/svg" viewBox="0 0 403.27 252.9"><defs><style>.cls-1{fill:none;stroke:#848484;stroke-miterlimit:10;stroke-width:0.25px;}</style></defs><title>restaurant</title><path class="cls-1" d="M107.6,365.72a3.71,3.71,0,0,1,3.07,2A120.93,120.93,0,0,0,106,349c-.82.25-1.44.48-2.09.61-1,.21-1.18.75-.94,1.67,1.16,4.48,2.26,9,3.46,13.43A1.73,1.73,0,0,0,107.6,365.72Z" transform="translate(-64.03 -228.61)"/><path class="cls-1" d="M209.14,426.72c-.59,1.27-.38,1.95,1,2.06,1.21.1,2.41.28,3.67.44.19-.91.56-1.74-.61-2C211.86,427,210.49,426.89,209.14,426.72Z" transform="translate(-64.03 -228.61)"/><path class="cls-1" d="M213.76,432.21a8.57,8.57,0,0,0-5-.42c1.38,1.57,3.35,1.33,5.34,2C214,433.06,214,432.27,213.76,432.21Z" transform="translate(-64.03 -228.61)"/><path class="cls-1" d="M208.76,424.72c.45,1.51,2.23,2.07,5.12,1.7C213.87,425.24,211.59,424.46,208.76,424.72Z" transform="translate(-64.03 -228.61)"/><path class="cls-1" d="M213.15,429.87c-1.34-.29-2.73-.42-4.09-.62-.24,1.5.71,1.87,4.7,2l.41-.38C213.84,430.51,213.55,430,213.15,429.87Z" transform="translate(-64.03 -228.61)"/><path class="cls-1" d="M209.65,445.36a22.5,22.5,0,0,0,3.47.61c.26,0,.57-.33.87-.51-.22-.3-.38-.78-.66-.86-1.12-.33-2.28-.53-3.73-.84-.12.12-.6.39-.6.66A1.18,1.18,0,0,0,209.65,445.36Z" transform="translate(-64.03 -228.61)"/><path class="cls-1" d="M213.47,423.16a25.44,25.44,0,0,0-3.79-.65c-.32,0-.67.26-1,.4.23.29.42.76.7.84,1.48.39,3,.67,4.47,1l.38-.38C214,423.94,213.8,423.25,213.47,423.16Z" transform="translate(-64.03 -228.61)"/><path class="cls-1" d="M214,443.81c-.08-.45,0-.95-.25-1.24-.42-.54-3.95-.77-4.66-.41C209.86,443.21,210.88,443.57,214,443.81Z" transform="translate(-64.03 -228.61)"/><path class="cls-1" d="M209.72,447.62c1.35.31,2.72.51,4.13.75.38-1.13.18-1.69-.8-1.8s-2-.28-3.06-.32c-.3,0-.61.33-.91.51C209.29,447.06,209.46,447.56,209.72,447.62Z" transform="translate(-64.03 -228.61)"/><path class="cls-1" d="M209.21,411.3c1.18.3,2.4.49,3.85.77l1-.64c-.34-.29-.63-.75-1-.85a25.64,25.64,0,0,0-3.47-.58c-.3,0-.64.28-1,.43C208.82,410.73,209,411.23,209.21,411.3Z" transform="translate(-64.03 -228.61)"/><path class="cls-1" d="M209.36,413.15c1.25.3,2.51.51,4,.81l.7-.56c-.26-.25-.49-.66-.79-.72-1.26-.24-2.53-.41-3.8-.54-.26,0-.55.25-.83.38C208.88,412.74,209.09,413.09,209.36,413.15Z" transform="translate(-64.03 -228.61)"/><path class="cls-1" d="M213,416.66a20,20,0,0,0-3.16-.58c-.33,0-.68.21-1,.32.26.32.47.82.79.91,1.36.39,2.75.64,4.14.95l.43-.58C213.78,417.33,213.45,416.8,213,416.66Z" transform="translate(-64.03 -228.61)"/><path class="cls-1" d="M164.6,372.55a9.08,9.08,0,0,0,.9.22,22.82,22.82,0,0,0,12.92-.25,5.55,5.55,0,0,0,1.31-.94l-.25-.38-1.07-.2c0-1,.23-2.4,0-2.51a9.37,9.37,0,0,0-3-.29c-.36-.51-.76-1.61-1.3-1.68s-1.39.72-2.08,1.13c-1.49-1.65-1-1.9-2.79-.12-.94-.28-1.72-.78-2.4-.66-1.78.29-.65,2-1.19,3a3.44,3.44,0,0,1-.55,0c-1.21-.3-1.77.47-2,1.41C162.85,372.39,163.92,372.32,164.6,372.55Z" transform="translate(-64.03 -228.61)"/><path class="cls-1" d="M103.62,349.1A97.74,97.74,0,0,1,124,345.48c5.19-.32,10.4-.41,15.59-.56.95,0,1.2-.38,1-1.24-.62-2.54-1.24-5.09-1.82-7.64-.67-2.9-2.33-4.59-5.41-4.72-.66,0-1.31-.29-2-.35a115,115,0,0,0-28.24.44A57.68,57.68,0,0,0,97,333c1.84,5.41,3.57,10.46,5.25,15.53C102.5,349.42,103,349.28,103.62,349.1Z" transform="translate(-64.03 -228.61)"/><path class="cls-1" d="M214.19,407.85c-.32-.72-.39-1.29-.68-1.45a3.78,3.78,0,0,0-4.26.66Z" transform="translate(-64.03 -228.61)"/><path class="cls-1" d="M209.26,409.09c1.24.32,2.5.55,4,.86l.78-.49c-.23-.34-.41-.91-.69-1a37.36,37.36,0,0,0-3.94-.56c-.23,0-.49.27-.73.41C208.87,408.6,209,409,209.26,409.09Z" transform="translate(-64.03 -228.61)"/><path class="cls-1" d="M213.37,421.05a26.79,26.79,0,0,0-3.78-.71c-.28,0-.61.34-.91.52.21.3.39.79.66.85,1.49.34,3,.58,4.52.85l.41-.44C214,421.75,213.74,421.15,213.37,421.05Z" transform="translate(-64.03 -228.61)"/><path class="cls-1" d="M209.61,449.72c1.34.45,2.73.73,4.19,1.1.38-1.26.19-1.83-1-1.93s-2.3-.38-3.93-.66C209.21,448.92,209.31,449.62,209.61,449.72Z" transform="translate(-64.03 -228.61)"/><path class="cls-1" d="M213.78,441.92c.12-1.6-2.64-2.61-5.06-2C210,442,212.17,441,213.78,441.92Z" transform="translate(-64.03 -228.61)"/><path class="cls-1" d="M209.92,454.07c1.24.28,2.51.42,4.32.69-.4-.73-.53-1.37-.84-1.47a17,17,0,0,0-3.31-.7c-.35,0-.76.37-1.15.58C209.27,453.48,209.55,454,209.92,454.07Z" transform="translate(-64.03 -228.61)"/><path class="cls-1" d="M209,438.09c1.28,1.39,3.09,1.3,4.82,1.59C213.82,438.4,212.28,437.84,209,438.09Z" transform="translate(-64.03 -228.61)"/><path class="cls-1" d="M213.55,452.48c.09,0,.36-.27.35-.39s-.17-.55-.33-.6c-1.42-.37-2.86-.69-4.64-1.11.17.69.18,1.12.3,1.14C210.66,451.88,212.1,452.19,213.55,452.48Z" transform="translate(-64.03 -228.61)"/><path class="cls-1" d="M209.51,419.52a25.92,25.92,0,0,0,3.59.82c.31.05.67-.25,1-.38-.23-.4-.39-1.07-.7-1.15-1.47-.36-3-.55-4.48-.81l-.39.54C208.85,418.88,209.12,419.4,209.51,419.52Z" transform="translate(-64.03 -228.61)"/><path class="cls-1" d="M209.49,415.29c1.38.35,2.81.52,4.34.78.11-1.61-.23-1.74-5.53-2.16C208.84,414.56,209.1,415.19,209.49,415.29Z" transform="translate(-64.03 -228.61)"/><path class="cls-1" d="M209.56,437c1.37.37,2.78.58,4.35.88-.09-1.56-2.6-2.52-5.23-2.11C209,436.24,209.22,436.87,209.56,437Z" transform="translate(-64.03 -228.61)"/><path class="cls-1" d="M208.57,433.82c1.67,1.54,3.54,1.42,5.19,1.89C214,434.21,211.84,433.33,208.57,433.82Z" transform="translate(-64.03 -228.61)"/><path class="cls-1" d="M209.67,458.11c1.14.29,2.3.47,3.73.73l.83-.52c-.28-.35-.5-.93-.85-1a22.69,22.69,0,0,0-3.48-.54c-.28,0-.6.34-.91.53C209.21,457.57,209.39,458,209.67,458.11Z" transform="translate(-64.03 -228.61)"/><path class="cls-1" d="M213.83,465.38c-1.46-.37-2.94-.69-4.4-1l-.24.66c1.52.5,3,1,4.56,1.47.09,0,.42-.32.43-.51A.76.76,0,0,0,213.83,465.38Z" transform="translate(-64.03 -228.61)"/><path class="cls-1" d="M214.55,462.47c-1.72-1.43-3.55-1.09-5.29-1.48C209.59,462.28,212.21,463,214.55,462.47Z" transform="translate(-64.03 -228.61)"/><path class="cls-1" d="M218.05,406.45c-1.22-.58-2.42-1.21-3.59-1.9a5.61,5.61,0,0,0,.1,1,26.47,26.47,0,0,1,.23,4.63q0,18.81,0,37.62,0,9.12,0,18.25c0,.64.07,1.29.11,2.06.38-.11.57-.14.75-.21,2.27-.85,2.32-2.81,2.31-4.75-.05-8.77-.2-17.54-.18-26.31,0-9.81.18-19.62.27-29.42Z" transform="translate(-64.03 -228.61)"/><path class="cls-1" d="M209.28,463l-.14.43,4.73,1.44C214,463.47,211.21,462.46,209.28,463Z" transform="translate(-64.03 -228.61)"/><path class="cls-1" d="M213.79,467.11c-1.46-.4-2.93-.76-4.4-1.12-.07.23-.13.47-.2.71,1.48.46,2.95.93,4.44,1.36.13,0,.48-.23.51-.39A.68.68,0,0,0,213.79,467.11Z" transform="translate(-64.03 -228.61)"/><path class="cls-1" d="M213.25,456.8l.89-.61c-.27-.31-.48-.8-.81-.89a20.73,20.73,0,0,0-3.33-.59c-.32,0-.69.35-1,.54.26.25.47.65.77.74C210.82,456.3,211.93,456.5,213.25,456.8Z" transform="translate(-64.03 -228.61)"/><path class="cls-1" d="M210.23,460.43a10.56,10.56,0,0,0,2.84.53c.38,0,.77-.36,1.16-.56-.28-.35-.5-.93-.84-1-1.32-.34-2.68-.51-4-.75l-.43.6C209.37,459.65,209.72,460.25,210.23,460.43Z" transform="translate(-64.03 -228.61)"/><path class="cls-1" d="M203.55,411.34c4.29.51,4.93.47,4-3.23Z" transform="translate(-64.03 -228.61)"/><path class="cls-1" d="M111.35,378.87c-1.79.25-3.55.69-5.34.81a30,30,0,0,1-13.18-2.29,10.21,10.21,0,0,0-.39,1.67c-.27,4.07-.62,8.13-.72,12.2-.13,5.56.49,11.05,2.9,16.15a5.55,5.55,0,0,0,2.49,2.53,15,15,0,0,0,12.18.14,5.36,5.36,0,0,0,3.24-3.51c1.26-4.15,2.53-8.29,2.54-12.68,0-5,0-10,0-15.4C113.9,378.61,112.62,378.7,111.35,378.87Z" transform="translate(-64.03 -228.61)"/><path class="cls-1" d="M116.19,378.45c.18,1.5-.35,3.07.38,4.51l.67-.06c-.17-1.49-.34-3-.52-4.46Z" transform="translate(-64.03 -228.61)"/><path class="cls-1" d="M122.35,368.53c-1.29-6.56-2.74-13.1-4.19-19.62-.5-2.25-.6-2.23-3-1.49,0,.28.07.58.14.87,1.15,4.8,2.51,9.57,3.43,14.41,1.12,5.91,1.91,11.89,2.78,17.85.41,2.86.49,3,3.12,2.4,0-.44-.05-.89-.12-1.34C123.82,377.25,123.21,372.86,122.35,368.53Z" transform="translate(-64.03 -228.61)"/><path class="cls-1" d="M118.64,365.81c-1-5.61-2.43-11.16-3.76-16.71-.45-1.89-.86-2-2.34-1.08a.75.75,0,0,0,0,.15c2.75,11.25,5.63,22.47,6.87,34,0,.41.72.75,1.1,1.13l.47-.42c0-.56,0-1.12-.1-1.67C120.16,376.09,119.6,370.91,118.64,365.81Z" transform="translate(-64.03 -228.61)"/><path class="cls-1" d="M114.06,370.34a4,4,0,0,0,.59-1.29,5.1,5.1,0,0,0-.27-1.66c-1.3-5.73-2.58-11.46-3.93-17.17-.49-2.09-.58-2.07-2.62-1.59l-.92.21A7,7,0,0,0,107,350c1.12,4.18,2.24,8.36,3.39,12.52C111.17,365.25,111.1,368.31,114.06,370.34Z" transform="translate(-64.03 -228.61)"/><path class="cls-1" d="M88.64,385.56A5.87,5.87,0,0,0,86.93,389a27.22,27.22,0,0,0,1.2,6.9A3.83,3.83,0,0,0,91,398.56c0-4.29,0-8.34,0-12.4C91,384.91,89.58,384.48,88.64,385.56Z" transform="translate(-64.03 -228.61)"/><path class="cls-1" d="M89.81,399a2.53,2.53,0,0,1-1.53-1.43,29.87,29.87,0,0,1-2.19-6.17c-.76-4.18.87-6.42,5.12-7.38-.08-.83-.15-1.7-.23-2.56a11,11,0,0,0-3,.35c-2.13.87-2.83,2.91-3.37,4.9-1,3.82.23,7.35,1.76,10.74a21.86,21.86,0,0,0,3.07,4.74c.5.61,1.56.75,2.36,1.1l.29-.49C91.67,401.39,92.35,399.38,89.81,399Z" transform="translate(-64.03 -228.61)"/><path class="cls-1" d="M115.82,375.9c-.14-.21-.23-.44-.14-.25.64-.92,1.38-1.57,1.51-2.31a2.35,2.35,0,0,0-.89-1.94c-1.82-1.07-3.28,0-4.68,1.22a7.31,7.31,0,0,1,.52-1.35c.16-.44.4-1.06.21-1.35a2.39,2.39,0,0,0-1.37-.79c-.31-.08-.72.19-1.25.34.19-1.52-.31-2.94-1.71-2.85-1,.07-1.86,1.36-2.79,2.1-.21-2.46-.54-2.7-2.43-1.82-1.47-1.94-1.67-1.88-3.25.74-1-.32-2-1-2.7-.78s-1.16,1.49-1.74,2.31c-2.31-.65-2.66-.36-2.77,2.44-2.42.19-2.68.63-1.57,2.55a4.71,4.71,0,0,0-.6,1.21c-.17.83.29,1.73,1.08,1.37,1.56-.72,2.56.24,3.85.65a27.44,27.44,0,0,0,15.52.78,8.6,8.6,0,0,0,2.21-1.52c1.8,1.61,2.31,1.64,3.45-.19A6.22,6.22,0,0,1,115.82,375.9Z" transform="translate(-64.03 -228.61)"/><path class="cls-1" d="M179.18,373.23a28.21,28.21,0,0,1-15.41,0c-.19.2-.31.27-.32.35-.59,6-1.45,12,.28,18a9.49,9.49,0,0,0,2.06,4.09c2.49,2.43,5.68,2.31,8.88,1.65,2.48-.5,3.47-2.42,4.16-4.52,1.83-5.57,1.81-11.26,1-17C179.69,375,179.41,374.15,179.18,373.23Z" transform="translate(-64.03 -228.61)"/><path class="cls-1" d="M180.3,375.17c.49.91.79,1.51,1.14,2.09a8.08,8.08,0,0,1,1.1,1.79,11.4,11.4,0,0,1-1.08,8.05c-.32.65-.62,1.31-.92,2l.42.15a12.65,12.65,0,0,0,3.18-11C183.82,376.49,182.7,375.45,180.3,375.17Z" transform="translate(-64.03 -228.61)"/><path class="cls-1" d="M181.07,378.14v7.3C182.44,382.38,182.43,379.92,181.07,378.14Z" transform="translate(-64.03 -228.61)"/><path class="cls-1" d="M132.92,358.11c-.62-3.7-1.55-7.34-2.33-11-.26-1.22-.94-1.45-2-1,.61,3.09,1.27,6.14,1.79,9.22q2.31,13.7,4.51,27.42c.17,1.07.7,1.38,1.75,1.16a15.51,15.51,0,0,0,0-2.46C135.42,373.67,134.24,365.88,132.92,358.11Z" transform="translate(-64.03 -228.61)"/><path class="cls-1" d="M131.45,375.15a193.7,193.7,0,0,0-4.91-27c-.56-2.16-.74-2.25-3.07-1.57.29,1.24.62,2.47.86,3.72,1.36,6.92,2.75,13.84,4,20.78.51,2.82.72,5.68,1.07,8.53a10.92,10.92,0,0,1-.65-1.75c-1.9-9.86-3.75-19.73-5.65-29.59-.38-1.93-.76-2.08-2.71-1.33.11.74.21,1.5.36,2.25q3.33,16.5,6.66,33c.22,1.11.71,1.53,1.92,1,0-.6-.11-1.21-.09-1.82s.1-1.2.16-1.8a28.69,28.69,0,0,1,.6,2.87c.11,1.09.72,1.38,1.67,1.3,1.14-.1.74-.93.67-1.52C132.08,379.84,131.73,377.5,131.45,375.15Z" transform="translate(-64.03 -228.61)"/><path class="cls-1" d="M143.14,362.45c-.59-5.22-1.35-10.43-2.1-15.63a1.57,1.57,0,0,0-.91-1.11,18.8,18.8,0,0,0-3,0c.14.81.26,1.47.37,2.12,1.32,7.71,2.68,15.42,3.92,23.15.64,4,1,8,1.57,11.95a2.27,2.27,0,0,0,.65,1.42,1.49,1.49,0,0,0,1.42,0c.28-.22.28-.92.23-1.4C144.58,376.08,143.93,369.26,143.14,362.45Z" transform="translate(-64.03 -228.61)"/><path class="cls-1" d="M131.06,346a37.08,37.08,0,0,1,1,3.7q2.68,16.17,5.28,32.37c.35,2.21.31,2.26,2.84,1.9a340.23,340.23,0,0,0-6.55-38.27Z" transform="translate(-64.03 -228.61)"/><path class="cls-1" d="M240.41,418.4C233,419,224,415,218,420l1,2c8,3,16,0,24.36,1.41-3.51,1.14-4.25-1.22,0,0C235,426,227,422,219,425c-1,0-1,4,0,4,5,2,11,0,16.9,1.87-2.42.82-3.41-1.11,0,0a165.24,165.24,0,0,1-17.36-.36c0,1.55,2.94.38,0,0C217,433,218,437,220,437c45,1,90,2,134.84,3.46" transform="translate(-64.03 -228.61)"/><path class="cls-1" d="M218.85,414.08v3.45c5.56,0,11.12-.1,16.67.07" transform="translate(-64.03 -228.61)"/><path class="cls-1" d="M184.79,383.22a18.53,18.53,0,0,1-1.41,4l4.11.28" transform="translate(-64.03 -228.61)"/><path class="cls-1" d="M189.12,388.21C187,388,185,388,184,388c-4,2-4,8-8,10-7,3-13-3-14-10,0-1-2-2-3-2-14,0-29-4-43-1,0,8,0,17-4,25-5,2-12,4-17,0-1-1-1-3-2-4-8-6-12-15-6.6-24.17-2.79-.19-22-.39-22.22-2.13C73,380,82,383,91,380c2,0-2-3-2-6,1-6,8-9,14-8.82-.76-6.32-1.94-.64,0,0C101,355,95,346,95,336c-1-5,5-5,9-6,11,0,21-2,32,1,3,1,4,5,5,8,2,14,3,27,4,40,0,2,1,5,3,6,5,0,9,2,14,0,0-5-1-9,0-14,1-2,3-4,4-4,5-2,13-2,14.28,4.67" transform="translate(-64.03 -228.61)"/><path class="cls-1" d="M201.49,402.83C191,409,183,417,172.66,423.08c9.59-6.2,2.39-.19,0,0,9.59-6.2,18.69-13.7,28-20.39" transform="translate(-64.03 -228.61)"/><path class="cls-1" d="M385.5,447.37a36.47,36.47,0,0,1-8.5.63c-53-3-105-3-158-3,0,7,1,14,0,21-1,1-2,3-4,3a7.52,7.52,0,0,1-7-5c-1-7,3-13-1-19-7-1-14,1-21.08-1.09,4.05,0,3.58,1.77,0,0C193,443,201,446,208,444a3.49,3.49,0,0,0,1-2c-1-5-8-2-12.07-3.39,1.79-.11,1.44,2.3,0,0A13.8,13.8,0,0,1,205,439c4,0,5-7,2-8-6-4-15,3-21.34-1.51,5.83,0,.48,2.34,0,0C193,429,199,431,206,430c3-1,3-6-1-7s-9,3-13,0c5,0,11,0,16-1,1-6-5-5-9.06-4.71,1.68-2.26,3,.13,0,0A75.43,75.43,0,0,1,207,417c2-1,1-4,0-4-10-1-17,8-24,15a13.8,13.8,0,0,1-.66,4.75,20,20,0,0,1-.44-4.17c-.88.52-1.94,1.5-2.69,1q13.83-11,27.6-22" transform="translate(-64.03 -228.61)"/><path class="cls-1" d="M354.84,440.46l0,.38a8.88,8.88,0,0,1-1.24.14c-7.12-.27-14.24-.6-21.36-.82q-18.34-.57-36.7-1c-11.66-.3-23.33-.72-35-.79-13.22-.08-26.44.16-39.66.27-2.21,0-2.21,0-2.24,2.25V441c0,3.14,0,3.11,3.16,3.14,11.21.1,22.42.27,33.63.31,8,0,16.1-.19,24.15-.19,3.35,0,6.7.39,10.05.42,8.94.1,17.88,0,26.81.18,11.15.27,22.29.89,33.43,1.22s22.51.5,33.76.75a3.17,3.17,0,0,1,1.83.51" transform="translate(-64.03 -228.61)"/><path class="cls-1" d="M179.21,429.62l.31.38a2.55,2.55,0,0,0-1,2.56c.18,1.69.25,3.4.31,5.1.14,3.86.22,7.74.38,11.6.07,1.72.29,3.43.44,5.14l.61.15a7.57,7.57,0,0,0,.76-2c.29-5,.48-10.11.74-15.16.08-1.57.29-3.13.43-4.7l.15.08a6.16,6.16,0,0,1,.22,1.33q-.41,9.59-.84,19.17a2,2,0,0,1-2.16,2.13c-1.78.13-2.71-.31-2.91-1.76-.54-4-.92-8.09-1.38-12.13-.27-2.29-.57-4.57-.86-6.88-1.94.51-2.31,1-2.32,3l0,43.8h-.62v-45a52.05,52.05,0,0,1-4.36,3.54,3.23,3.23,0,0,0-1.54,3.2c0,12.75,0,25.5,0,38.24h-.62a4.46,4.46,0,0,0-1.25-.76c-1.31-.24-2.64-.31-4-.53-1.73-.29-3.45-.65-5.13-1-.8,2.07,1.14,1.54,1.65,2.26h-2.79c.1-6.08.25-12.17.29-18.26.05-7.34,0-14.67,0-22,0-1.12-.3-1.61-1.45-1.62s-2.13-.19-3.49-.32c0,2,0,3.79,0,5.58q-.3,12.78-.66,25.55a3,3,0,0,1-2.56,2.38,2.42,2.42,0,0,1-2.16-2.16c-.71-7.81-1.4-15.62-2.12-23.43-.23-2.57-.48-5.14-.84-7.7a1.86,1.86,0,0,0-1.1-1.33c-6-.91-12.06-1.72-18.09-2.54a5.65,5.65,0,0,0-.75,0c-.61,4.94-1.2,9.85-1.83,14.75-.16,1.24-.15,2.53-1.76,3.09a2.8,2.8,0,0,1-3.8-2.26c-.42-5.09-.87-10.18-1.23-15.27-.07-1-.39-1.36-1.34-1.48-5-.61-9.92-1.27-14.88-1.89-5.58-.7-11.16-1.43-16.74-2-4.92-.54-9.86-1-14.79-1.42v-.62c.22-.44.63-.88.64-1.33,0-2.63,0-5.25-.06-7.88a8.49,8.49,0,0,0-.58-2v-.62l15.69,1.72c9,1,18,1.92,26.93,2.94,5,.56,9.92,1.29,14.89,1.84,7.08.77,14.16,1.45,21.25,2.17,6.88.7,13.75,1.45,20.64,2.06a6.76,6.76,0,0,0,3.49-.74c2-1,3.76-2.3,5.62-3.47l0,0a4.66,4.66,0,0,1-.86,1.23c-1.67,1.21-3.4,2.33-5.07,3.54-.38.27-.85.74-.86,1.13-.06,3.49,0,7,0,10.92Zm-57,3.83c0-2.78-.08-5.57-.07-8.35,0-.84-.34-1.36-1.11-1.26-.29,0-.67.79-.68,1.22-.08,2.74,0,5.47-.1,8.21,0,1.44.5,1.87,2,1.47,0-.42,0-.86,0-1.29a9.82,9.82,0,0,0,.71.86c.35.36.73.69,1.1,1l.54-.29c0-3.32,0-6.65,0-10,0-1.11-.77-1.16-1.75-.9,0,.58-.09,1.19-.08,1.79,0,2.06.11,4.12.08,6.18C122.79,432.59,122.41,433,122.21,433.45Zm7.7-7.2c-.71-.46-.35-2.38-2.49-1.27,0,2.86,0,6,0,9.08,0,1.72.13,1.83,2.05,1.67,0-2.5,0-5,0-7.51a8.1,8.1,0,0,1,.43-1.78c.11,2.84.19,5.67.35,8.51,0,.4.42.79.64,1.18.23-.38.62-.75.64-1.15.19-2.83.24-5.67.46-8.5.12-1.46-.43-1.87-1.84-1.57Zm15.27,12.68c.2,11,.39,21.83.58,32.79a2.19,2.19,0,0,0,1.85-2.32c.23-9.27.53-18.54.8-27.82C148.49,438.8,148.16,438.55,145.18,438.93ZM116.65,452.4l.31.19a4.56,4.56,0,0,0,.85-1.48c.68-4.85,1.27-9.7,1.91-14.55.11-.83-.1-1.3-1-1.31h-2.07Zm23.42-15.17c0-3.45,0-6.8,0-10.14a1.82,1.82,0,0,0-.82-1.43c-1-.37-1.17.56-1.21,1.27-.14,2.83-.29,5.67-.31,8.51C137.67,437.16,138,437.36,140.07,437.23Zm25.05,2.83c0-3.4,0-6.79,0-10.19,0-1.8-.12-1.89-2.31-1.51,0,3.38,0,6.83,0,10.27C162.75,440.11,163.39,440.46,165.12,440.06Zm-65.89-8.22c-.21-3.19-.42-6.2-.62-9.22-.12-1.73-.24-1.82-2-1.57v10.67Zm48.68,6.27c.18-3.57.4-7.21.49-10.85,0-.27-.88-.81-1.31-.77a1.51,1.51,0,0,0-1,1.09c-.05,3.14,0,6.29,0,9.43C146.16,438.06,146.64,438.53,147.91,438.11Zm-67.77-8.57c0-3,0-5.87,0-8.74,0-2-.39-2.29-2.32-1.84,0,2.93,0,5.85,0,8.76C77.83,429.79,78,429.9,80.14,429.54Zm54.63,6.92c0-3.42,0-6.75,0-10.08,0-.74-.33-1.42-1.19-1.16a1.65,1.65,0,0,0-.94,1.16c-.23,2.66-.38,5.33-.49,8C132.05,436.38,132.19,436.47,134.77,436.46Zm-19.66-13.31c0,3.31,0,6.5,0,9.69,0,1,.54,1.67,1.53,1.4.37-.1.74-1,.74-1.5,0-2.53-.1-5.06-.18-7.58C117.14,423.15,117.07,423.09,115.11,423.15Zm-32,6.72c0-3,0-5.95,0-8.91,0-1.9-.41-2.17-2.53-1.59.14,2.91.36,5.87.42,8.84C81,429.74,81.57,430.23,83.07,429.87ZM145.46,438c0-3.57,0-7,0-10.44,0-1.48-.66-1.59-2-1.2v11.3Zm12.67-10.34c0,3.58,0,7.11,0,10.65,0,.87.31,1.33,1.23,1.38,1.11.07.94-.73.94-1.35,0-3.14,0-6.28,0-9.41C160.31,427.72,159.71,427.47,158.13,427.7Zm-51.46,5.24v-9.21c0-2-.11-2.06-2-1.78,0,3.15,0,6.29,0,9.43C104.61,432.73,105.14,433.3,106.67,432.94Zm30.36,3.9c.11-3.54.25-7.08.29-10.62,0-.3-.72-.85-1.09-.84a1.38,1.38,0,0,0-.91,1c-.1,3.1-.08,6.19-.11,9.29C135.2,436.83,135.86,437,137,436.84ZM75,418.6v9c0,1.65.19,1.8,2.16,1.64,0-3,0-6,0-9C77.2,418.77,76.64,418.14,75,418.6Zm35,4v9.82c0,.87.35,1.34,1.29,1.3s.9-.8.88-1.45c-.07-2.79-.18-5.57-.23-8.36C111.9,422.64,111.37,422.22,110,422.58Zm-.66,10.59c0-.46.08-1,.08-1.47q0-3.93,0-7.86c0-1.68-.22-1.85-2.13-1.46,0,3.16,0,6.34,0,9.52C107.28,433.24,108,433.62,109.32,433.17ZM140.76,426c0,3.6,0,7.1,0,10.6,0,1,.58,1.2,1.62.95.18-3.26.39-6.54.54-9.82C143,425.85,142.87,425.76,140.76,426Zm24,46.61c.55-1.61.05-2.23-1.36-2.39-2.5-.28-5-.7-7.5-.95a1.66,1.66,0,0,0-1.38.65c-.36.81.14,1.37,1,1.49C158.55,471.8,161.61,472.19,164.72,472.59Zm-81-53.09c0,3.05,0,6.08,0,9.12,0,1.43.66,1.94,2.08,1.55,0-3.18,0-6.37,0-9.56C85.75,419.26,84.81,419.26,83.72,419.5Zm66.92,13.07h.05c0-1.65,0-3.3,0-4.95,0-.37-.51-.71-.78-1.06-.32.29-.89.58-.91.89-.19,3.3-.32,6.6-.35,9.9,0,.37.71.75,1.09,1.12.31-.36.87-.72.89-1.1C150.69,435.78,150.64,434.17,150.64,432.57Zm6.87-5.07c-.46-.09-1.42-.72-1.47.62-.14,3.39-.17,6.79-.14,10.18,0,.44.65.88,1,1.32l.62-.3Zm-55.74,4.74-.62-11h-2a12.12,12.12,0,0,0-.06,1.29c.21,2.77.5,5.54.64,8.31C99.79,432.06,100.3,432.41,101.77,432.24Zm-29.95-3.33c0-3.34,0-6.67,0-10,0-.32-.74-.63-1.14-.94-.23.32-.66.64-.66,1-.06,2.82,0,5.64,0,8.47C69.92,428.7,70.58,429.14,71.82,428.91ZM89,420.06c0,3.38-.06,6.62,0,9.86,0,1.11.88,1,1.85.76,0-3,0-6,0-9C90.83,419.83,90.79,419.82,89,420.06Zm5,.66v10.75l1.84.14c0-3.32,0-6.45,0-9.57C95.84,420.84,95.32,420.47,94,420.72Zm-2.53-.65c0,3.54,0,6.87,0,10.19,0,.36.67.7,1,1.05.25-.31.7-.63.7-.95.06-3.28,0-6.56,0-9.92Zm10.38,1.6c.15,3.42.27,6.76.46,10.1.08,1.36,1,.89,1.55.84,0-3.28,0-6.42,0-9.56C103.87,421.68,103.28,421.31,101.82,421.67Zm53.41,11.2h-.06c.07-1.59.21-3.18.18-4.77,0-.38-.58-.74-.88-1.11-.26.35-.71.7-.72,1.07-.11,3.13-.17,6.26-.13,9.39,0,.49.54,1,.83,1.46a4.76,4.76,0,0,0,.74-1.57C155.3,435.86,155.23,434.36,155.23,432.87Zm-80.82-3.72c0-3.36,0-6.65,0-9.94,0-.34-.77-.66-1.18-1-.29.38-.81.77-.81,1.16,0,2.68.15,5.35.13,8C72.48,428.7,73,429.21,74.41,429.15Zm80.06,49.33,10.21,1.68c.5-1.58.08-2.11-1.17-2.21s-2.55-.34-3.83-.54l-5.21-.82Zm-85-50c0-3.26,0-6.5,0-9.74,0-1.26-.89-1.1-2-1,0,3.18,0,6.27,0,9.36C67.49,428.21,67.89,428.87,69.44,428.51Zm17-8.74v9.54c0,1.28.76,1.39,1.69,1.2,0-3.19,0-6.32,0-9.46C88.21,419.73,87.67,419.4,86.48,419.77Zm38.65,4.69c0,3.38,0,6.75,0,10.11,0,1,.78,1,2,.72,0-3.19,0-6.36,0-9.53C127.16,424.33,126.53,424.1,125.13,424.46Zm38.8,27.25,1-.89c-.38-.37-.7-1-1.13-1.05-2.67-.54-5.36-1-8.06-1.39-.39-.05-.84.39-1.27.6.31.39.57,1,.95,1.11C158.1,450.68,160.84,451.14,163.93,451.71Zm-45.87-28.28c0,3.44,0,6.72,0,10,0,.37.46.74.7,1.1.29-.4.82-.8.83-1.21.07-3.15,0-6.29,0-9.54Zm46.54,54.21c.56-1.52.26-2.09-.94-2.22-1.74-.19-3.47-.48-5.2-.72l-3.91-.55-.32.42c.28.42.5,1.14.86,1.22C158.24,476.47,161.41,477,164.6,477.64Zm-11.49-38.93c0-3.54,0-7.09,0-10.63a1.6,1.6,0,0,0-.86-1.23c-1-.25-1,.62-1,1.28,0,3.09,0,6.18,0,9.27C151.22,438.4,151.59,438.85,153.11,438.71Zm-40.35-16.26c0,3.74-.05,7.11,0,10.48,0,.44.76.85,1.17,1.27l.57-.31c-.15-3.52-.28-7.05-.52-10.56C114,423,113.25,422.78,112.76,422.45Zm41.89,39.87-.46.51c.37.48.68,1.33,1.11,1.39,2.9.44,5.82.73,8.74,1,.27,0,.58-.38.87-.59-.23-.32-.42-.88-.69-.93C161,463.2,157.84,462.77,154.65,462.32ZM164.75,447c.32-1.32,0-1.8-1.12-2-2.6-.38-5.18-.9-7.78-1.28-.42-.07-.9.3-1.35.46.37.39.69,1,1.13,1.13,2.3.53,4.64.93,7,1.36C163.29,446.84,164,446.91,164.75,447Zm-.47,13.88c.11-.1.71-.48.67-.58-.2-.43-.52-1-.9-1.12-2.83-.56-5.67-1-8.52-1.48-.34,0-.73.3-1.1.46.28.4.51,1.08.86,1.15C158.16,459.89,161.07,460.35,164.28,460.89ZM67,428.23V417.59l-1.75-.19c.06,1,.11,1.81.13,2.62.06,2.38.1,4.75.14,7.12C65.52,428,65.64,428.64,67,428.23Zm87.72,22.5-.43.55c.39.36.71.9,1.16,1.05a21.17,21.17,0,0,0,3.15.73c2,.36,4.1.68,6.15,1l.34-.36c-.27-.48-.47-1.32-.82-1.38C161.08,451.72,157.89,451.24,154.7,450.73Zm-.07,2.23-.35.54c.3.41.53,1.1.89,1.17,3.13.59,6.29,1.07,9.44,1.57.07,0,.16-.1.34-.21l-.09-1.27Zm0,19-.44.55a5.07,5.07,0,0,0,1.12,1.06,4.65,4.65,0,0,0,1.5.29l7.81,1.14c.5-1.34,0-1.81-1-1.92-.77-.08-1.54-.15-2.3-.24Zm7-31.85.53-.19c.09-3.68.2-7.36.23-11,0-.34-.53-.69-.81-1-.24.32-.68.63-.68.94,0,3.39,0,6.78.08,10.17C161,439.33,161.45,439.71,161.67,440.09Zm3.05,18.58.44-.57c-.36-.4-.67-1.07-1.09-1.15-2.87-.57-5.77-1-8.66-1.45-.29,0-.65.38-1,.59.21.28.37.71.65.81a12.27,12.27,0,0,0,2.1.46Zm0,4.54c.52-1.32.1-1.66-.88-1.81-2.79-.41-5.57-.92-8.36-1.33-.31-.05-.69.32-1,.49.25.37.44,1,.75,1.05C158.34,462.19,161.52,462.69,164.71,463.21ZM154.64,467l-.36.58c.35.29.67.76,1.06.83,2.89.5,5.78.94,8.68,1.34.26,0,.86-.41.83-.54-.08-.41-.34-1.09-.6-1.13C161.05,467.67,157.85,467.35,154.64,467Zm0-21-.35.47c.32.38.59,1,1,1.09,2.81.59,5.64,1.1,8.48,1.57.34.05.74-.28,1.11-.43-.29-.35-.53-.91-.89-1-1.69-.41-3.41-.72-5.13-1C157.45,446.38,156,446.18,154.65,446Zm9.48,21.45.76-.6c-.36-.3-.69-.82-1.09-.88-2.66-.37-5.32-.67-8-.92-.44,0-.91.31-1.37.48.42.34.81.91,1.28,1C158.37,466.83,161.05,467.08,164.13,467.41Zm.6-22.81.28-.52c-.34-.3-.65-.79-1-.86-2.87-.56-5.76-1.05-8.65-1.51-.26,0-.57.27-.85.41.24.27.44.69.74.78a17.79,17.79,0,0,0,2.41.51C160,443.82,162.36,444.2,164.73,444.6Zm-.11-2.12.43-.46c-.33-.32-.61-.88-1-.93-2.95-.46-5.91-.83-8.87-1.19-.21,0-.46.26-.69.4.22.22.43.59.68.63C158.33,441.48,161.48,442,164.62,442.48Zm11.17-5.79c-.73,2.27.69,2.13,1.53,2.4.2.07.58-.45.88-.7Zm-.57-2.2c-.11,2.34,1.45,2,2.68,2.39C178.27,434.53,176.25,435.31,175.22,434.49Zm-34,5.16c.46,1.75,2,1.45,3.11,2C144.47,440.05,143.71,439.57,141.26,439.65Zm3.27,10.56c.3-1.64-.25-2.06-2.54-1.89C142.17,450,143.34,450.06,144.53,450.21Zm-28.75-12.3c0-1.72-1.4-2.22-3.2-1.1Zm26,3.53c-.19,1.51.63,2.06,2.83,2C144.36,441.76,142.85,442.06,141.77,441.44Zm34-1.92c.11,1.59.71,2,2.42,1.62C178.29,439.41,177,439.66,175.82,439.52Zm-31.44,6.29c.06-1.62-.72-2.1-2.65-1.77C142,445.54,143.33,445.34,144.38,445.81Zm.07,2.19c.05-1.59-.69-2.07-2.44-1.82C142,448,143.48,447.42,144.45,448Zm-31.69-10.26c.66,1.68,1.89,2.07,3.48,1.14Zm65.13,6.15c.65-1.6-.18-1.87-1-2-.23-.05-.55.33-.83.51Zm.27,1.84c.41-1.62-.7-1.6-1.62-1.82C176.16,445.32,176.31,445.48,178.16,445.73Zm-33.51,8.72c0-1.8-.48-2.08-2.64-1.62Zm30.57-21v.6l2.59.65.26-.42c-.28-.31-.52-.83-.85-.89A8.89,8.89,0,0,0,175.22,433.41ZM115.6,441.2c-.26-1.4-1.38-1.25-2.65-1.35C113.4,441.45,114.73,440.91,115.6,441.2Zm26.93,9.12-.28.45c.3,1.25,1.37,1.11,2.33,1.17l.24-.43Z" transform="translate(-64.03 -228.61)"/><path class="cls-1" d="M467.18,471.46l-30.66-.64-51.26-1.1c-11.87-.25-23.75-.55-35.62-.69-7.27-.09-14.55.19-21.82.12-4.64,0-9.27-.55-13.91-.65-8-.16-16-.25-24-.22-9.45,0-18.9.22-28.34.36-6.76.09-13.51.22-20.27.33a2,2,0,0,1-1.4-.35c.4-.05.8-.14,1.2-.15,6.82-.15,13.63-.33,20.44-.42,9.71-.13,19.42-.3,29.13-.28s19.51.24,29.26.4c6.5.11,13,.34,19.5.4,5.88.06,11.77-.14,17.65-.05,10.12.15,20.24.47,30.35.67,8.78.17,17.56.23,26.34.42,8.41.18,16.81.52,25.22.69,7.33.14,14.66.14,22,.25,2.06,0,4.12.19,6.18.29Z" transform="translate(-64.03 -228.61)"/><path class="cls-1" d="M467.18,466.5c-1.94-.15-3.88-.38-5.82-.43-8.47-.22-16.93-.39-25.4-.56-19.72-.4-39.45-.67-59.16-1.23-12.44-.35-24.86-1.18-37.3-1.69-5.1-.2-10.22-.19-15.33-.15-7.79.05-15.58.36-23.36.27-5.62-.06-11.23-.76-16.86-.89-6.19-.16-12.39.1-18.58,0-9.86-.15-19.72-.45-29.58-.69a1.73,1.73,0,0,1-1.26-.52h1.8c16.11.2,32.22.36,48.33.64,6.76.12,13.51.64,20.27.73,12.07.16,24.16-.07,36.23.24,17.45.45,34.89,1.28,52.33,1.86,8.77.29,17.55.39,26.32.55q21.75.39,43.5.74c1.29,0,2.58.13,3.87.19Z" transform="translate(-64.03 -228.61)"/><path class="cls-1" d="M367.71,228.74c0,7.33.08,14.66.07,22,0,7.12-.16,14.24-.13,21.36a7.27,7.27,0,0,0,1.1,3.28c4.53,8,6.7,16.7,7.58,25.75.48,5,.6,10,.94,15a2.17,2.17,0,0,1-1.7,2.54,27.68,27.68,0,0,1-17.33.27,2.82,2.82,0,0,1-2.25-3.16,100.81,100.81,0,0,1,10.7-41.43,5.53,5.53,0,0,0,.39-2.38q0-13.95,0-27.88V228.74Zm8.69,88.08c0-14.65-1.15-28.94-9-41.86a93.28,93.28,0,0,0-10.59,41.7C363.49,314.46,369.85,314.31,376.4,316.82Zm-18.66.69c2.81,2.54,15.16,2.55,17.49.08C369.84,315.24,362,315.17,357.74,317.51Z" transform="translate(-64.03 -228.61)"/><path class="cls-1" d="M467.18,477c-6.92-.15-13.83-.38-20.75-.46-15.13-.18-30.25-.24-45.38-.44-9.24-.13-18.47-.5-27.71-.63-4.8-.06-9.6.25-14.41.25-11.14,0-22.29-.16-33.44-.19-12.29,0-24.58,0-36.86,0q-12.63,0-25.25-.07a4.84,4.84,0,0,1-2.25-.5c.34,0,.69-.07,1-.07,13.62-.05,27.25-.11,40.87-.11q11.16,0,22.3.15c8.83.12,17.66.44,26.49.45,8.62,0,17.24-.29,25.87-.41,2,0,4,.16,6,.19,13.47.16,26.95.29,40.43.48,8.36.11,16.71.35,25.07.45,6,.07,12,0,18,0Z" transform="translate(-64.03 -228.61)"/><path class="cls-1" d="M454.51,228.74c-.13,2.46-.35,4.93-.36,7.4,0,10.1.21,20.21-.1,30.31a28.46,28.46,0,0,0,2.48,13.41c1.5,3.22,2.22,6.81,3.28,10.24l-.35.35c-.93-2.82-1.8-5.67-2.82-8.46-.79-2.2-1.77-4.34-2.86-7-1.38,2.37-2.82,4.2-3.57,6.28-1.84,5.17-3.48,10.42-5,15.71-.91,3.21-1.39,6.53-2.07,9.8l-.48.42c.63-3.53,1.13-7.09,1.92-10.59,1.57-6.89,3.39-13.74,7.12-19.84a11.51,11.51,0,0,0,1.58-6.42c0-11.41,0-22.82.08-34.22,0-2.48.12-4.95.19-7.42Z" transform="translate(-64.03 -228.61)"/><path class="cls-1" d="M403,286c1-2.64,1.49-5.57,3-7.87,2.84-4.4,3.05-9.14,3-14q-.06-15.7-.07-31.4c0-1.33.18-2.66.29-4h.31c0,1.95,0,3.91,0,5.86q0,16.72-.06,33.44a15,15,0,0,1-.1,2,9.56,9.56,0,0,0,1.27,6A67,67,0,0,1,417,292.65c.51,2.26,1,4.51,1.47,6.78a7.53,7.53,0,0,1-.12,1.88l-.11-.06a13.55,13.55,0,0,1-.5-1.76,72.55,72.55,0,0,0-7.78-23.27,18.77,18.77,0,0,0-1.17-1.67c-.8,1.46-1.52,2.58-2.06,3.79-1.19,2.66-2.29,5.36-3.43,8Z" transform="translate(-64.03 -228.61)"/><path class="cls-1" d="M156.25,481.38c-.51-.72-2.45-.19-1.65-2.26,1.68.32,3.4.68,5.13,1,1.31.22,2.64.29,4,.53a4.46,4.46,0,0,1,1.25.76Z" transform="translate(-64.03 -228.61)"/><path class="cls-1" d="M64.18,417.21a8.49,8.49,0,0,1,.58,2c.08,2.63.1,5.25.06,7.88,0,.45-.42.89-.64,1.33Z" transform="translate(-64.03 -228.61)"/><path class="cls-1" d="M403,286l.23.35c0,.15.09.32,0,.45a82.84,82.84,0,0,0-3.81,19.34c-.36,3.5-.45,7-.68,10.84,6.76-2.57,13.1-1.8,19.51,0a6.53,6.53,0,0,0,.23-1.16c-.05-3.3-.11-6.59-.19-9.89,0-1.56-.1-3.11-.16-4.67l.11.06a16.24,16.24,0,0,1,.59,2.8c.15,4.27.2,8.55.31,12.82a1.67,1.67,0,0,1-1.32,1.79,24.7,24.7,0,0,1-18.66-.08,2.09,2.09,0,0,1-1.1-1.54,109.33,109.33,0,0,1,4-29A18.78,18.78,0,0,1,403,286Zm-3.47,31.88c5.28,2.49,15,2.39,17.86-.12C412.91,315.51,403,315.54,399.55,317.91Z" transform="translate(-64.03 -228.61)"/><path class="cls-1" d="M442.69,307.23l.48-.42c-.23,3.09-.45,6.17-.71,9.73,7-2.81,13.47-1.51,20.33.22-.24-4.79-.2-9.33-.76-13.8-.53-4.21-1.69-8.34-2.57-12.51l.35-.35c.81,3.11,2,6.18,2.36,9.34.68,5.66.87,11.38,1.32,17.08.09,1.16-.62,1.51-1.46,1.85a26.41,26.41,0,0,1-10.14,1.68,21.66,21.66,0,0,1-9-1.83c-.45-.2-1.13-.72-1.1-1.06C442,313.85,442.37,310.54,442.69,307.23Zm.42,10c3.24,2.68,15.06,2.8,18.43.2C456.09,315.07,446.83,315,443.11,317.27Z" transform="translate(-64.03 -228.61)"/><path class="cls-1" d="M250.82,456.4c.42,0,.84-.12,1.26-.12,5.78-.1,11.56-.23,17.34-.28,14.4-.12,28.8-.37,43.19-.24,9.55.08,19.08.74,28.62,1.09q10.36.39,20.74.67,14.64.41,29.27.7c10.22.21,20.44.33,30.67.54,6.55.13,13.1.35,19.65.51,2.73.06,5.46.06,8.2.09.42,0,.85.07,1.28.11v.42c-1.82,0-3.63,0-5.44,0-8.72-.19-17.44-.44-26.16-.6-15.95-.29-31.91-.45-47.86-.84-11.92-.29-23.83-.89-35.75-1.28-10.78-.35-21.55-.74-32.33-.83-9-.08-18.07.28-27.11.39-8,.09-16,.11-24,.15-.52,0-1-.07-1.57-.11Z" transform="translate(-64.03 -228.61)"/><path class="cls-1" d="M395.64,453.12a11.93,11.93,0,0,1-1.19.1c-14.4-.35-28.8-.66-43.19-1.09-7.79-.24-15.56-.8-23.35-1-8.35-.26-16.71-.33-25.07-.43-10.17-.11-20.34-.29-30.51-.2-13,.13-26,.51-39,.75-1.11,0-2.23-.12-3.34-.19,55.28-2.52,110.45.05,165.67,2.1" transform="translate(-64.03 -228.61)"/><path class="cls-1" d="M360.88,435.3l0,.56c-1,0-2,0-3,0-4.9-.23-9.8-.5-14.7-.73-12.07-.59-24.13-1.25-36.2-1.73q-26.55-1-53.1-1.89c-5.26-.17-10.53-.16-15.8-.28a15.15,15.15,0,0,1-2.19-.36l0,0a7.66,7.66,0,0,1,1.48-.26q17.43.42,34.85.88c7,.18,14,.32,21.05.58q14.83.56,29.66,1.29c11.65.58,23.3,1.27,34.95,1.91,1,.05,2,0,3,0" transform="translate(-64.03 -228.61)"/><path class="cls-1" d="M291.37,425.84c-1.34,0-2.68.1-4,0-10.24-.58-20.48-1.23-30.72-1.79-4-.21-7.93-.23-11.89-.37a6.77,6.77,0,0,1-1.39-.3l0,0a9.44,9.44,0,0,1,1.94-.31q17.78.83,35.55,1.73c3.14.16,6.27.43,9.41.68a6.27,6.27,0,0,1,1.16.32Z" transform="translate(-64.03 -228.61)"/><path class="cls-1" d="M263.47,419.33l-2.38-.68c-3.82-.14-7.65-.3-11.47-.43a4,4,0,0,0-1.3.35c3.16.17,6.32.37,9.48.51Z" transform="translate(-64.03 -228.61)"/><path class="cls-1" d="M147.39,397.53a4.44,4.44,0,0,1,4.6-.24q5.5,3.42,10.93,7c3.52,2.32,7,4.76,10.47,7.13.91.61,1.66,1.34,1.41,2.51a2.12,2.12,0,0,1-1,1.41c-8,2.87-16,5.64-24,8.53a4.46,4.46,0,0,1-5.28-1.06c-5.64-5.51-11.44-10.85-17.17-16.27a7.25,7.25,0,0,1-.84-.91c-1.29-1.71-1.1-2.87.93-3.55,3-1,6-1.8,9-2.53s6.35-1.36,9.53-2a6.18,6.18,0,0,1,1.36,0,5.49,5.49,0,0,1-1.36.74c-4,.9-8.05,1.7-12.05,2.61-2,.45-3.92,1.08-6.16,1.71.66.6,1.08,1,1.48,1.35L141.06,415l-.32.34a4.54,4.54,0,0,1-.5-.36c-4-3.64-8-7.3-12-10.93a14.2,14.2,0,0,0-1.66-1.08,3.62,3.62,0,0,0,1.48,3.19c3.65,3.65,7.31,7.28,11,10.85,2.23,2.12,4.59,4.11,6.79,6.07.82-.71,1.4-1.56,2.19-1.84,6.67-2.42,13.39-4.74,20.09-7.08l5.22-1.79c-1.71-1.18-3-2.12-4.41-3l-16-10.59c-1.52-1-3.07-1.67-4.93-1C147.91,397.9,147.62,397.64,147.39,397.53ZM147,423l.34.72a29,29,0,0,0,3.34-.79c5.38-1.91,10.75-3.89,16.12-5.83,2.13-.77,4.3-1.45,6.41-2.27.35-.14.5-.8.74-1.22a3.48,3.48,0,0,0-1.3-.15c-1,.26-1.95.65-2.92,1-7,2.44-14,4.86-21,7.34A7.79,7.79,0,0,0,147,423Z" transform="translate(-64.03 -228.61)"/><path class="cls-1" d="M92.83,377.39A30,30,0,0,0,106,379.68c1.79-.12,3.55-.56,5.34-.81,1.27-.17,2.55-.26,3.73-.38,0,5.4,0,10.4,0,15.4,0,4.39-1.28,8.53-2.54,12.68a5.36,5.36,0,0,1-3.24,3.51,15,15,0,0,1-12.18-.14,5.55,5.55,0,0,1-2.49-2.53c-2.41-5.1-3-10.59-2.9-16.15.1-4.07.45-8.13.72-12.2A10.21,10.21,0,0,1,92.83,377.39ZM113,386.45h.52v-6.38a2.21,2.21,0,0,0-.46,1.51,2.18,2.18,0,0,1-2,2.58,35,35,0,0,1-3.63.65,28.3,28.3,0,0,1-11.16-1c-1.45-.48-2.32-1.17-2-2.85a5.47,5.47,0,0,0-.18-1.59l-.48.05A79.1,79.1,0,0,0,93.38,391H94v-7a29.62,29.62,0,0,0,18.73.48Zm-7,10.11-.62-.09c-.1.65-.17,1.29-.29,1.93-.4,2-.72,4.06-1.28,6a8.59,8.59,0,0,1-1.54,2.25,7.85,7.85,0,0,1-1.15-2.54c-.17-4.06-.18-8.13-.21-12.19,0-1,.11-2,.16-3-.41.09-.55.2-.57.32a54.87,54.87,0,0,0-.22,14.65,8.21,8.21,0,0,0,.57,2.38c.29.6,1,1.49,1.38,1.43a2.51,2.51,0,0,0,1.62-1.39,35.47,35.47,0,0,0,1.51-5.16C105.72,399.65,105.82,398.09,106,396.56Zm2.68-1.34-.7,0c0,2.73,0,5.47,0,8.21a6.19,6.19,0,0,0,.5,2.24c.31.7.85,1.39,1.79.75s1.55-3.29,1.06-4.53l-1.38,4-.58-.11C108.06,402.34,108.67,398.75,108.71,395.22ZM94.1,398l-.45.07c.31,2,.52,3.95,1,5.89A6.12,6.12,0,0,0,96,406.47a1.77,1.77,0,0,0,1.7.21c1.08-.66,1.43-4.15.62-5.36-.6,1.63.3,3.63-1.4,5C94.35,404.06,95.16,400.69,94.1,398Z" transform="translate(-64.03 -228.61)"/><path class="cls-1" d="M163.77,373.25a28.21,28.21,0,0,0,15.41,0c.23.92.51,1.75.63,2.59.83,5.72.85,11.41-1,17-.69,2.1-1.68,4-4.16,4.52-3.2.66-6.39.78-8.88-1.65a9.49,9.49,0,0,1-2.06-4.09c-1.73-5.95-.87-12-.28-18C163.46,373.52,163.58,373.45,163.77,373.25Zm1.14,1.22-.36,0v7.3l.41,0,.25-3.53c.23,0,.34-.09.42-.06l1.17.39a16.08,16.08,0,0,0,9.44.19c2.22-.65,2.82-2,1.86-4.46a4.37,4.37,0,0,0-.28,1.09c.09,2.47-1.09,2.73-2.83,2.86a40.19,40.19,0,0,1-7.35-.24c-1.56-.17-2.88-.92-2.53-2.94C165.14,374.94,165,374.7,164.91,374.47Zm5.37,8.64a5.6,5.6,0,0,0-.32,1.25c-.05,2.68-.13,5.36-.06,8a7.79,7.79,0,0,0,.76,2.81c.26.57,1,1.28,1.55.46a12,12,0,0,0,1.15-2.72l-.5-.2-1.34,2.71C169.7,391.18,170.94,387.08,170.28,383.11Zm-2.84,11.13c-2.25-2.65-1.34-5.78-2.07-8.51-.44,2.73-.53,5.43.67,8,.26.55,1.1.82,1.67,1.22l1.11-2.08-.51-.25Zm7.73-7a10.44,10.44,0,0,0,0,6.65c.21.7.87,1.24,1.5.46a4.55,4.55,0,0,0,.85-4.26l-1.21,3.62-.59-.12Z" transform="translate(-64.03 -228.61)"/><path class="cls-1" d="M92.34,371.61c.11-2.8.46-3.09,2.77-2.44.58-.82,1-2,1.74-2.31s1.72.46,2.7.78c1.58-2.62,1.78-2.68,3.25-.74,1.89-.88,2.22-.64,2.43,1.82.93-.74,1.82-2,2.79-2.1,1.4-.09,1.9,1.33,1.71,2.85.53-.15.94-.42,1.25-.34a2.39,2.39,0,0,1,1.37.79c.19.29,0,.91-.21,1.35a7.31,7.31,0,0,0-.52,1.35c1.4-1.27,2.86-2.29,4.68-1.22a2.35,2.35,0,0,1,.89,1.94c-.13.74-.87,1.39-1.51,2.31-.09-.19,0,0,.14.25a6.22,6.22,0,0,0,.46.56c-1.14,1.83-1.65,1.8-3.45.19a8.6,8.6,0,0,1-2.21,1.52,27.44,27.44,0,0,1-15.52-.78c-1.29-.41-2.29-1.37-3.85-.65-.79.36-1.25-.54-1.08-1.37a4.71,4.71,0,0,1,.6-1.21C89.66,372.24,89.92,371.8,92.34,371.61Zm5.79.21-.3-.23a7.54,7.54,0,0,0-1.23,2.22c-.17,1,.73,1.29,1.64,1.37a1,1,0,0,1,.72.45,2.08,2.08,0,0,0,2.81,1.16,2,2,0,0,1,1.14.19,2.89,2.89,0,0,0,3.46-1c.81-.91.71-1.57-.19-2.41-.2,2.79-1.67,3.43-4,1.9-.64.22-1.47.72-1.67.53a5.86,5.86,0,0,1-1-1.83l-2-.14Z" transform="translate(-64.03 -228.61)"/><path class="cls-1" d="M137.1,345.66a18.8,18.8,0,0,1,3,0,1.57,1.57,0,0,1,.91,1.11c.75,5.2,1.51,10.41,2.1,15.63.79,6.81,1.44,13.63,2.12,20.45.05.48.05,1.18-.23,1.4a1.49,1.49,0,0,1-1.42,0,2.27,2.27,0,0,1-.65-1.42c-.54-4-.93-8-1.57-11.95-1.24-7.73-2.6-15.44-3.92-23.15C137.36,347.13,137.24,346.47,137.1,345.66Z" transform="translate(-64.03 -228.61)"/><path class="cls-1" d="M129.42,379.56c-.35-2.85-.56-5.71-1.07-8.53-1.27-6.94-2.66-13.86-4-20.78-.24-1.25-.57-2.48-.86-3.72,2.33-.68,2.51-.59,3.07,1.57a193.7,193.7,0,0,1,4.91,27c.28,2.35.63,4.69.91,7.05.07.59.47,1.42-.67,1.52-.95.08-1.56-.21-1.67-1.3a28.69,28.69,0,0,0-.6-2.87Z" transform="translate(-64.03 -228.61)"/><path class="cls-1" d="M140.15,384c-2.53.36-2.49.31-2.84-1.9q-2.59-16.2-5.28-32.37a37.08,37.08,0,0,0-1-3.7l2.54-.3A340.23,340.23,0,0,1,140.15,384Z" transform="translate(-64.03 -228.61)"/><path class="cls-1" d="M115.18,347.42c2.38-.74,2.48-.76,3,1.49,1.45,6.52,2.9,13.06,4.19,19.62.86,4.33,1.47,8.72,2.18,13.08.07.45.08.9.12,1.34-2.63.59-2.71.46-3.12-2.4-.87-6-1.66-11.94-2.78-17.85-.92-4.84-2.28-9.61-3.43-14.41C115.25,348,115.23,347.7,115.18,347.42Z" transform="translate(-64.03 -228.61)"/><path class="cls-1" d="M129.42,379.55c-.06.6-.15,1.2-.16,1.8s.06,1.22.09,1.82c-1.21.5-1.7.08-1.92-1q-3.32-16.5-6.66-33c-.15-.75-.25-1.51-.36-2.25,2-.75,2.33-.6,2.71,1.33,1.9,9.86,3.75,19.73,5.65,29.59a10.92,10.92,0,0,0,.65,1.75Z" transform="translate(-64.03 -228.61)"/><path class="cls-1" d="M175.41,368.2a9.37,9.37,0,0,1,3,.29c.28.11,0,1.52,0,2.51l1.07.2.25.38a5.55,5.55,0,0,1-1.31.94,22.82,22.82,0,0,1-12.92.25,9.08,9.08,0,0,1-.9-.22c-.68-.23-1.75-.16-1.49-1.31.22-.94.78-1.71,2-1.41a3.44,3.44,0,0,0,.55,0c.54-1-.59-2.7,1.19-3,.68-.12,1.46.38,2.4.66,1.82-1.78,1.3-1.53,2.79.12.69-.41,1.45-1.21,2.08-1.13S175.05,367.69,175.41,368.2Zm-5.86.81-.49-.15c-.14.57-.56,1.48-.35,1.65a15.54,15.54,0,0,0,3.1,2c.27.13.81-.29,1.08-.4-.92-.56-1.66-1.36-2.38-1.35C168.89,370.78,169.17,370,169.55,369Z" transform="translate(-64.03 -228.61)"/><path class="cls-1" d="M136.64,383.92c-1,.22-1.58-.09-1.75-1.16q-2.22-13.72-4.51-27.42c-.52-3.08-1.18-6.13-1.79-9.22,1.06-.48,1.74-.25,2,1,.78,3.68,1.71,7.32,2.33,11,1.32,7.77,2.5,15.56,3.7,23.35A15.51,15.51,0,0,1,136.64,383.92Z" transform="translate(-64.03 -228.61)"/><path class="cls-1" d="M120.51,383.33c-.38-.38-1.06-.72-1.1-1.13-1.24-11.56-4.12-22.78-6.87-34a.75.75,0,0,1,0-.15c1.48-.91,1.89-.81,2.34,1.08,1.33,5.55,2.71,11.1,3.76,16.71,1,5.1,1.52,10.28,2.24,15.43.08.55.07,1.11.1,1.67Z" transform="translate(-64.03 -228.61)"/><path class="cls-1" d="M182.19,432.67c-.14,1.57-.35,3.13-.43,4.7-.26,5.05-.45,10.11-.74,15.16a7.57,7.57,0,0,1-.76,2l-.61-.15c-.15-1.71-.37-3.42-.44-5.14-.16-3.86-.24-7.74-.38-11.6-.06-1.7-.13-3.41-.31-5.1a2.55,2.55,0,0,1,1-2.56l2.38-1.42C182,430,182.1,431.34,182.19,432.67Z" transform="translate(-64.03 -228.61)"/><path class="cls-1" d="M106.91,348.84l.92-.21c2-.48,2.13-.5,2.62,1.59,1.35,5.71,2.63,11.44,3.93,17.17a5.1,5.1,0,0,1,.27,1.66,4,4,0,0,1-.59,1.29c-3-2-2.89-5.09-3.64-7.81-1.15-4.16-2.27-8.34-3.39-12.52A7,7,0,0,1,106.91,348.84Z" transform="translate(-64.03 -228.61)"/><path class="cls-1" d="M110.67,367.7a3.71,3.71,0,0,0-3.07-2,1.73,1.73,0,0,1-1.18-1c-1.2-4.46-2.3-8.95-3.46-13.43-.24-.92,0-1.46.94-1.67.65-.13,1.27-.36,2.09-.61A120.93,120.93,0,0,1,110.67,367.7Z" transform="translate(-64.03 -228.61)"/><path class="cls-1" d="M91.21,384.05c-4.25,1-5.88,3.2-5.12,7.38a29.87,29.87,0,0,0,2.19,6.17A2.53,2.53,0,0,0,89.81,399c2.54.35,1.86,2.36,2.31,3.8l-.29.49c-.8-.35-1.86-.49-2.36-1.1a21.86,21.86,0,0,1-3.07-4.74c-1.53-3.39-2.79-6.92-1.76-10.74.54-2,1.24-4,3.37-4.9a11,11,0,0,1,3-.35Z" transform="translate(-64.03 -228.61)"/><path class="cls-1" d="M91,398.56a3.83,3.83,0,0,1-2.87-2.64,27.22,27.22,0,0,1-1.2-6.9,5.87,5.87,0,0,1,1.71-3.46c.94-1.08,2.31-.65,2.33.6C91.05,390.22,91,394.27,91,398.56Z" transform="translate(-64.03 -228.61)"/><path class="cls-1" d="M180.3,375.17c2.4.28,3.52,1.32,3.84,3.06a12.65,12.65,0,0,1-3.18,11l-.42-.15c.3-.66.6-1.32.92-2a11.4,11.4,0,0,0,1.08-8.05,8.08,8.08,0,0,0-1.1-1.79C181.09,376.68,180.79,376.08,180.3,375.17Z" transform="translate(-64.03 -228.61)"/><path class="cls-1" d="M209.14,426.72c1.35.17,2.72.3,4.07.55,1.17.21.8,1,.61,2-1.26-.16-2.46-.34-3.67-.44C208.76,428.67,208.55,428,209.14,426.72Z" transform="translate(-64.03 -228.61)"/><path class="cls-1" d="M207.57,408.11c.91,3.7.27,3.74-4,3.23Z" transform="translate(-64.03 -228.61)"/><path class="cls-1" d="M208.92,418c1.5.26,3,.45,4.48.81.31.08.47.75.7,1.15-.33.13-.69.43-1,.38a25.92,25.92,0,0,1-3.59-.82c-.39-.12-.66-.64-1-1Z" transform="translate(-64.03 -228.61)"/><path class="cls-1" d="M209.37,458.63c1.34.24,2.7.41,4,.75.34.09.56.67.84,1-.39.2-.78.58-1.16.56a10.56,10.56,0,0,1-2.84-.53c-.51-.18-.86-.78-1.29-1.2Z" transform="translate(-64.03 -228.61)"/><path class="cls-1" d="M213.85,448.37c-1.41-.24-2.78-.44-4.13-.75-.26-.06-.43-.56-.64-.86.3-.18.61-.52.91-.51,1,0,2,.2,3.07.32S214.23,447.24,213.85,448.37Z" transform="translate(-64.03 -228.61)"/><path class="cls-1" d="M213.86,422.56c-1.51-.27-3-.51-4.52-.85-.27-.06-.45-.55-.66-.85.3-.18.63-.56.91-.52a26.79,26.79,0,0,1,3.78.71c.37.1.61.7.9,1.07Z" transform="translate(-64.03 -228.61)"/><path class="cls-1" d="M213.84,424.74c-1.49-.32-3-.6-4.47-1-.28-.08-.47-.55-.7-.84.34-.14.69-.44,1-.4a25.44,25.44,0,0,1,3.79.65c.33.09.5.78.75,1.2Z" transform="translate(-64.03 -228.61)"/><path class="cls-1" d="M213.06,412.07c-1.45-.28-2.67-.47-3.85-.77-.25-.07-.39-.57-.57-.87.31-.15.65-.46,1-.43a25.64,25.64,0,0,1,3.47.58c.38.1.67.56,1,.85Z" transform="translate(-64.03 -228.61)"/><path class="cls-1" d="M213.8,450.82c-1.46-.37-2.85-.65-4.19-1.1-.3-.1-.4-.8-.71-1.49,1.63.28,2.77.55,3.93.66S214.18,449.56,213.8,450.82Z" transform="translate(-64.03 -228.61)"/><path class="cls-1" d="M209.6,443.76c1.45.31,2.61.51,3.73.84.28.08.44.56.66.86-.3.18-.61.54-.87.51a22.5,22.5,0,0,1-3.47-.61,1.18,1.18,0,0,1-.65-.94C209,444.15,209.48,443.88,209.6,443.76Z" transform="translate(-64.03 -228.61)"/><path class="cls-1" d="M214.11,433.82c-2-.7-4-.46-5.34-2a8.57,8.57,0,0,1,5,.42C214,432.27,214,433.06,214.11,433.82Z" transform="translate(-64.03 -228.61)"/><path class="cls-1" d="M213.4,458.84c-1.43-.26-2.59-.44-3.73-.73-.28-.07-.46-.54-.68-.82.31-.19.63-.56.91-.53a22.69,22.69,0,0,1,3.48.54c.35.09.57.67.85,1Z" transform="translate(-64.03 -228.61)"/><path class="cls-1" d="M213.25,456.8c-1.32-.3-2.43-.5-3.52-.81-.3-.09-.51-.49-.77-.74.35-.19.72-.58,1-.54a20.73,20.73,0,0,1,3.33.59c.33.09.54.58.81.89Z" transform="translate(-64.03 -228.61)"/><path class="cls-1" d="M208.76,424.72c2.83-.26,5.11.52,5.12,1.7C211,426.79,209.21,426.23,208.76,424.72Z" transform="translate(-64.03 -228.61)"/><path class="cls-1" d="M213.26,410c-1.5-.31-2.76-.54-4-.86-.24-.06-.39-.49-.58-.75.24-.14.5-.43.73-.41a37.36,37.36,0,0,1,3.94.56c.28.06.46.63.69,1Z" transform="translate(-64.03 -228.61)"/><path class="cls-1" d="M214.24,454.76c-1.81-.27-3.08-.41-4.32-.69-.37-.08-.65-.59-1-.9.39-.21.8-.62,1.15-.58a17,17,0,0,1,3.31.7C213.71,453.39,213.84,454,214.24,454.76Z" transform="translate(-64.03 -228.61)"/><path class="cls-1" d="M213.91,437.84c-1.57-.3-3-.51-4.35-.88-.34-.09-.53-.72-.88-1.23C211.31,435.32,213.82,436.28,213.91,437.84Z" transform="translate(-64.03 -228.61)"/><path class="cls-1" d="M213.83,416.07c-1.53-.26-3-.43-4.34-.78-.39-.1-.65-.73-1.19-1.38C213.6,414.33,213.94,414.46,213.83,416.07Z" transform="translate(-64.03 -228.61)"/><path class="cls-1" d="M213.74,418.26c-1.39-.31-2.78-.56-4.14-.95-.32-.09-.53-.59-.79-.91.35-.11.7-.36,1-.32a20,20,0,0,1,3.16.58c.45.14.78.67,1.17,1Z" transform="translate(-64.03 -228.61)"/><path class="cls-1" d="M213.76,431.22c-4-.1-4.94-.47-4.7-2,1.36.2,2.75.33,4.09.62.4.09.69.64,1,1Z" transform="translate(-64.03 -228.61)"/><path class="cls-1" d="M213.78,441.92c-1.61-1-3.82.07-5.06-2C211.14,439.31,213.9,440.32,213.78,441.92Z" transform="translate(-64.03 -228.61)"/><path class="cls-1" d="M209,442.16c.71-.36,4.24-.13,4.66.41.22.29.17.79.25,1.24C210.88,443.57,209.86,443.21,209,442.16Z" transform="translate(-64.03 -228.61)"/><path class="cls-1" d="M208.57,433.82c3.27-.49,5.47.39,5.19,1.89C212.11,435.24,210.24,435.36,208.57,433.82Z" transform="translate(-64.03 -228.61)"/><path class="cls-1" d="M213.36,414c-1.49-.3-2.75-.51-4-.81-.27-.06-.48-.41-.72-.63.28-.13.57-.4.83-.38,1.27.13,2.54.3,3.8.54.3.06.53.47.79.72Z" transform="translate(-64.03 -228.61)"/><path class="cls-1" d="M209,438.09c3.29-.25,4.83.31,4.82,1.59C212.08,439.39,210.27,439.48,209,438.09Z" transform="translate(-64.03 -228.61)"/><path class="cls-1" d="M214.19,407.85l-4.94-.79a3.78,3.78,0,0,1,4.26-.66C213.8,406.56,213.87,407.13,214.19,407.85Z" transform="translate(-64.03 -228.61)"/><path class="cls-1" d="M181.07,378.14c1.36,1.78,1.37,4.24,0,7.3Z" transform="translate(-64.03 -228.61)"/><path class="cls-1" d="M208.93,450.38c1.78.42,3.22.74,4.64,1.11.16.05.3.38.33.6s-.26.41-.35.39c-1.45-.29-2.89-.6-4.32-1C209.11,451.5,209.1,451.07,208.93,450.38Z" transform="translate(-64.03 -228.61)"/><path class="cls-1" d="M214.55,462.47c-2.34.55-5-.19-5.29-1.48C211,461.38,212.83,461,214.55,462.47Z" transform="translate(-64.03 -228.61)"/><path class="cls-1" d="M213.87,464.85l-4.73-1.44.14-.43C211.21,462.46,214,463.47,213.87,464.85Z" transform="translate(-64.03 -228.61)"/><path class="cls-1" d="M209.43,464.35c1.46.34,2.94.66,4.4,1a.76.76,0,0,1,.35.59c0,.19-.34.54-.43.51-1.53-.46-3-1-4.56-1.47Z" transform="translate(-64.03 -228.61)"/><path class="cls-1" d="M209.39,466c1.47.36,2.94.72,4.4,1.12a.68.68,0,0,1,.35.56c0,.16-.38.43-.51.39-1.49-.43-3-.9-4.44-1.36Z" transform="translate(-64.03 -228.61)"/><path class="cls-1" d="M96.72,341.91c-1.08-1.24-.18-1.75.68-2.25.6-.35,1.31-.47,1.42.4C99,341.65,97.53,341.39,96.72,341.91Z" transform="translate(-64.03 -228.61)"/><path class="cls-1" d="M101.87,350.51c.91,1.54.78,1.81-1.17,2.58C99.76,351.81,99.92,351.42,101.87,350.51Z" transform="translate(-64.03 -228.61)"/><path class="cls-1" d="M97.71,344.21c-1.28-1.47-.37-2,.5-2.32.36-.14.89.18,1.34.28Z" transform="translate(-64.03 -228.61)"/><path class="cls-1" d="M101.19,355.24c-1.14-1.76.66-1.75,1.22-2.5C103.46,354.11,103.33,354.37,101.19,355.24Z" transform="translate(-64.03 -228.61)"/><path class="cls-1" d="M116.72,378.44l.52,4.46-.67.06c-.73-1.44-.2-3-.38-4.51Z" transform="translate(-64.03 -228.61)"/><path class="cls-1" d="M103.37,356.41c.85,1.24,1,1.94-.06,2.28a4.11,4.11,0,0,1-1.21,0Z" transform="translate(-64.03 -228.61)"/><path class="cls-1" d="M100.41,345.23c.53,1.36.49,1.42-1.59,2.11C98.2,346.24,98.3,346.1,100.41,345.23Z" transform="translate(-64.03 -228.61)"/><path class="cls-1" d="M137.2,350.38c.72,1.61.66,1.7-1.12,2C135.34,350.89,135.34,350.89,137.2,350.38Z" transform="translate(-64.03 -228.61)"/><path class="cls-1" d="M97.94,337.7c-.09.4,0,1-.3,1.17a8.23,8.23,0,0,1-1.72.81c0-.37-.21-.9,0-1.07a9.68,9.68,0,0,1,1.6-1.11Z" transform="translate(-64.03 -228.61)"/><path class="cls-1" d="M98.21,345.64c-.61-1.13-.4-1.39,1.66-2.07C100.28,344.73,100.17,344.86,98.21,345.64Z" transform="translate(-64.03 -228.61)"/><path class="cls-1" d="M138.39,364.31c-.56-1.22-1.06-1.95.12-2.17.37-.07.83.27,1.24.43Z" transform="translate(-64.03 -228.61)"/><path class="cls-1" d="M138.69,366.48c-.52-1.21-.77-1.93.3-2.13.31-.06.69.3,1,.47Z" transform="translate(-64.03 -228.61)"/><path class="cls-1" d="M100.9,347c.25,1.07-.7,2.21-1.42,1.9a1.11,1.11,0,0,1-.14-1A7.4,7.4,0,0,1,100.9,347Z" transform="translate(-64.03 -228.61)"/><path class="cls-1" d="M135.07,349.65a5.14,5.14,0,0,1,1-1.18c.14-.1.65.33,1,.53l-1.21,1.29Z" transform="translate(-64.03 -228.61)"/><path class="cls-1" d="M97.11,335.58c0,.62.14,1.13,0,1.27a10.72,10.72,0,0,1-1.65,1c-.07-.31-.3-.79-.17-.91A15.64,15.64,0,0,1,97.11,335.58Z" transform="translate(-64.03 -228.61)"/><path class="cls-1" d="M138.38,358.09l.73.86a6.28,6.28,0,0,1-1.19.84c-.15.07-.49-.31-.74-.48Z" transform="translate(-64.03 -228.61)"/><path class="cls-1" d="M211.27,405.05c.77-.16,1.53-.34,2.31-.46a4.51,4.51,0,0,1,.22.62l-2.53.21Z" transform="translate(-64.03 -228.61)"/><path class="cls-1" d="M101.42,356.52a13.72,13.72,0,0,1,1.31-1.33c.09-.07.5.25.76.39l-1.39,1.51Z" transform="translate(-64.03 -228.61)"/><path class="cls-1" d="M102.49,360.31l1.6-1.49C104.61,360.36,104.55,360.42,102.49,360.31Z" transform="translate(-64.03 -228.61)"/><path class="cls-1" d="M136,353.9a7.61,7.61,0,0,1,1.2-1.08c.1-.07.52.39.8.6l-1.53,1.07Z" transform="translate(-64.03 -228.61)"/><path class="cls-1" d="M145.18,438.93c3-.38,3.31-.13,3.23,2.65-.27,9.28-.57,18.55-.8,27.82a2.19,2.19,0,0,1-1.85,2.32C145.57,460.76,145.38,449.9,145.18,438.93Z" transform="translate(-64.03 -228.61)"/><path class="cls-1" d="M116.65,452.4V435.25h2.07c.9,0,1.11.48,1,1.31-.64,4.85-1.23,9.7-1.91,14.55a4.56,4.56,0,0,1-.85,1.48Z" transform="translate(-64.03 -228.61)"/><path class="cls-1" d="M140.07,437.23c-2.06.13-2.4-.07-2.38-1.79,0-2.84.17-5.68.31-8.51,0-.71.18-1.64,1.21-1.27a1.82,1.82,0,0,1,.82,1.43C140.11,430.43,140.07,433.78,140.07,437.23Z" transform="translate(-64.03 -228.61)"/><path class="cls-1" d="M165.12,440.06c-1.73.4-2.37.05-2.34-1.43.07-3.44,0-6.89,0-10.27,2.19-.38,2.31-.29,2.31,1.51C165.13,433.27,165.12,436.66,165.12,440.06Z" transform="translate(-64.03 -228.61)"/><path class="cls-1" d="M99.23,431.84l-2.57-.12V421.05c1.71-.25,1.83-.16,2,1.57C98.81,425.64,99,428.65,99.23,431.84Z" transform="translate(-64.03 -228.61)"/><path class="cls-1" d="M147.91,438.11c-1.27.42-1.75-.05-1.77-1.1,0-3.14-.1-6.29,0-9.43a1.51,1.51,0,0,1,1-1.09c.43,0,1.32.5,1.31.77C148.31,430.9,148.09,434.54,147.91,438.11Z" transform="translate(-64.03 -228.61)"/><path class="cls-1" d="M80.14,429.54c-2.13.36-2.31.25-2.33-1.82,0-2.91,0-5.83,0-8.76,1.93-.45,2.31-.17,2.32,1.84C80.15,423.67,80.14,426.54,80.14,429.54Z" transform="translate(-64.03 -228.61)"/><path class="cls-1" d="M134.77,436.46c-2.58,0-2.72-.08-2.63-2.08.11-2.67.26-5.34.49-8a1.65,1.65,0,0,1,.94-1.16c.86-.26,1.19.42,1.19,1.16C134.79,429.71,134.77,433,134.77,436.46Z" transform="translate(-64.03 -228.61)"/><path class="cls-1" d="M115.11,423.15c2-.06,2,0,2.1,2,.08,2.52.19,5,.18,7.58,0,.53-.37,1.4-.74,1.5-1,.27-1.52-.43-1.53-1.4C115.09,429.65,115.11,426.46,115.11,423.15Z" transform="translate(-64.03 -228.61)"/><path class="cls-1" d="M83.07,429.87c-1.5.36-2.09-.13-2.12-1.66-.06-3-.28-5.93-.42-8.84,2.12-.58,2.52-.31,2.53,1.59C83.08,423.92,83.07,426.89,83.07,429.87Z" transform="translate(-64.03 -228.61)"/><path class="cls-1" d="M145.46,438l-2-.34V426.4c1.39-.39,2.08-.28,2,1.2C145.42,431,145.46,434.47,145.46,438Z" transform="translate(-64.03 -228.61)"/><path class="cls-1" d="M158.13,427.7c1.58-.23,2.18,0,2.16,1.27,0,3.13,0,6.27,0,9.41,0,.62.17,1.42-.94,1.35-.92-.05-1.23-.51-1.23-1.38C158.14,434.81,158.13,431.28,158.13,427.7Z" transform="translate(-64.03 -228.61)"/><path class="cls-1" d="M106.67,432.94c-1.53.36-2.06-.21-2-1.56,0-3.14,0-6.28,0-9.43,1.92-.28,2-.19,2,1.78Z" transform="translate(-64.03 -228.61)"/><path class="cls-1" d="M137,436.84c-1.17.18-1.83,0-1.82-1.18,0-3.1,0-6.19.11-9.29a1.38,1.38,0,0,1,.91-1c.37,0,1.09.54,1.09.84C137.28,429.76,137.14,433.3,137,436.84Z" transform="translate(-64.03 -228.61)"/><path class="cls-1" d="M75,418.6c1.62-.46,2.18.17,2.16,1.58,0,3,0,6,0,9-2,.16-2.16,0-2.16-1.64Z" transform="translate(-64.03 -228.61)"/><path class="cls-1" d="M110,422.58c1.39-.36,1.92.06,1.94,1.31,0,2.79.16,5.57.23,8.36,0,.65.19,1.4-.88,1.45s-1.29-.43-1.29-1.3Z" transform="translate(-64.03 -228.61)"/><path class="cls-1" d="M109.32,433.17c-1.36.45-2,.07-2-1.27,0-3.18,0-6.36,0-9.52,1.91-.39,2.14-.22,2.13,1.46q0,3.93,0,7.86C109.4,432.21,109.35,432.71,109.32,433.17Z" transform="translate(-64.03 -228.61)"/><path class="cls-1" d="M140.76,426c2.11-.22,2.25-.13,2.17,1.73-.15,3.28-.36,6.56-.54,9.82-1,.25-1.62,0-1.62-.95C140.75,433.08,140.76,429.58,140.76,426Z" transform="translate(-64.03 -228.61)"/><path class="cls-1" d="M164.72,472.59c-3.11-.4-6.17-.79-9.23-1.2-.87-.12-1.37-.68-1-1.49a1.66,1.66,0,0,1,1.38-.65c2.51.25,5,.67,7.5.95C164.77,470.36,165.27,471,164.72,472.59Z" transform="translate(-64.03 -228.61)"/><path class="cls-1" d="M83.72,419.5c1.09-.24,2-.24,2.06,1.11,0,3.19,0,6.38,0,9.56-1.42.39-2.08-.12-2.08-1.55C83.73,425.58,83.72,422.55,83.72,419.5Z" transform="translate(-64.03 -228.61)"/><path class="cls-1" d="M150.64,432.57c0,1.6.05,3.21,0,4.8,0,.38-.58.74-.89,1.1-.38-.37-1.09-.75-1.09-1.12,0-3.3.16-6.6.35-9.9,0-.31.59-.6.91-.89.27.35.76.69.78,1.06.08,1.65,0,3.3,0,4.95Z" transform="translate(-64.03 -228.61)"/><path class="cls-1" d="M157.51,427.5v11.82l-.62.3c-.34-.44-1-.88-1-1.32,0-3.39,0-6.79.14-10.18C156.09,426.78,157.05,427.41,157.51,427.5Z" transform="translate(-64.03 -228.61)"/><path class="cls-1" d="M101.77,432.24c-1.47.17-2-.18-2-1.36-.14-2.77-.43-5.54-.64-8.31a12.12,12.12,0,0,1,.06-1.29h2Z" transform="translate(-64.03 -228.61)"/><path class="cls-1" d="M129.91,426.44a8.1,8.1,0,0,0-.43,1.78c0,2.5,0,5,0,7.51-1.92.16-2.05,0-2.05-1.67,0-3.11,0-6.22,0-9.08,2.14-1.11,1.78.81,2.49,1.27Z" transform="translate(-64.03 -228.61)"/><path class="cls-1" d="M71.82,428.91c-1.24.23-1.9-.21-1.89-1.5,0-2.83,0-5.65,0-8.47,0-.33.43-.65.66-1,.4.31,1.13.62,1.14.94C71.85,422.24,71.82,425.57,71.82,428.91Z" transform="translate(-64.03 -228.61)"/><path class="cls-1" d="M89,420.06c1.82-.24,1.86-.23,1.87,1.62,0,3,0,6,0,9-1,.25-1.82.35-1.85-.76C88.91,426.68,89,423.44,89,420.06Z" transform="translate(-64.03 -228.61)"/><path class="cls-1" d="M94,420.72c1.35-.25,1.87.12,1.85,1.32,0,3.12,0,6.25,0,9.57L94,431.47Z" transform="translate(-64.03 -228.61)"/><path class="cls-1" d="M91.44,420.07l1.82.37c0,3.36,0,6.64,0,9.92,0,.32-.45.64-.7.95-.36-.35-1-.69-1-1.05C91.41,426.94,91.44,423.61,91.44,420.07Z" transform="translate(-64.03 -228.61)"/><path class="cls-1" d="M101.82,421.67c1.46-.36,2.05,0,2,1.38-.06,3.14,0,6.28,0,9.56-.54.05-1.47.52-1.55-.84C102.09,428.43,102,425.09,101.82,421.67Z" transform="translate(-64.03 -228.61)"/><path class="cls-1" d="M155.23,432.87c0,1.49.07,3,0,4.47a4.76,4.76,0,0,1-.74,1.57c-.29-.49-.83-1-.83-1.46,0-3.13,0-6.26.13-9.39,0-.37.46-.72.72-1.07.3.37.87.73.88,1.11,0,1.59-.11,3.18-.18,4.77Z" transform="translate(-64.03 -228.61)"/><path class="cls-1" d="M74.41,429.15c-1.44.06-1.93-.45-1.91-1.73,0-2.68-.14-5.35-.13-8,0-.39.52-.78.81-1.16.41.32,1.17.64,1.18,1C74.45,422.5,74.41,425.79,74.41,429.15Z" transform="translate(-64.03 -228.61)"/><path class="cls-1" d="M122.2,433.45v1.29c-1.45.4-2,0-2-1.47.09-2.74,0-5.47.1-8.21,0-.43.39-1.18.68-1.22.77-.1,1.12.42,1.11,1.26,0,2.78,0,5.57.07,8.35Z" transform="translate(-64.03 -228.61)"/><path class="cls-1" d="M122.21,433.45c.2-.43.58-.86.58-1.3,0-2.06-.06-4.12-.08-6.18,0-.6.05-1.21.08-1.79,1-.26,1.74-.21,1.75.9,0,3.33,0,6.66,0,10l-.54.29c-.37-.35-.75-.68-1.1-1s-.48-.57-.72-.86Z" transform="translate(-64.03 -228.61)"/><path class="cls-1" d="M154.47,478.48v-1.89l5.21.82c1.28.2,2.55.45,3.83.54s1.67.63,1.17,2.21Z" transform="translate(-64.03 -228.61)"/><path class="cls-1" d="M69.44,428.51c-1.55.36-2-.3-2-1.34,0-3.09,0-6.18,0-9.36,1.06-.14,1.93-.3,2,1C69.47,422,69.44,425.25,69.44,428.51Z" transform="translate(-64.03 -228.61)"/><path class="cls-1" d="M86.48,419.77c1.19-.37,1.73,0,1.7,1.28-.05,3.14,0,6.27,0,9.46-.93.19-1.69.08-1.69-1.2Z" transform="translate(-64.03 -228.61)"/><path class="cls-1" d="M125.13,424.46c1.4-.36,2-.13,2,1.3-.07,3.17,0,6.34,0,9.53-1.18.26-1.94.32-2-.72C125.09,431.21,125.13,427.84,125.13,424.46Z" transform="translate(-64.03 -228.61)"/><path class="cls-1" d="M163.93,451.71c-3.09-.57-5.83-1-8.54-1.62-.38-.08-.64-.72-.95-1.11.43-.21.88-.65,1.27-.6,2.7.4,5.39.85,8.06,1.39.43.09.75.68,1.13,1.05Z" transform="translate(-64.03 -228.61)"/><path class="cls-1" d="M118.06,423.43l1.59.36c0,3.25,0,6.39,0,9.54,0,.41-.54.81-.83,1.21-.24-.36-.69-.73-.7-1.1C118,430.15,118.06,426.87,118.06,423.43Z" transform="translate(-64.03 -228.61)"/><path class="cls-1" d="M164.6,477.64c-3.19-.61-6.36-1.17-9.51-1.85-.36-.08-.58-.8-.86-1.22l.32-.42,3.91.55c1.73.24,3.46.53,5.2.72C164.86,475.55,165.16,476.12,164.6,477.64Z" transform="translate(-64.03 -228.61)"/><path class="cls-1" d="M153.11,438.71c-1.52.14-1.89-.31-1.87-1.31,0-3.09,0-6.18,0-9.27,0-.66-.06-1.53,1-1.28a1.6,1.6,0,0,1,.86,1.23C153.14,431.62,153.11,435.17,153.11,438.71Z" transform="translate(-64.03 -228.61)"/><path class="cls-1" d="M112.76,422.45c.49.33,1.25.58,1.27.88.24,3.51.37,7,.52,10.56l-.57.31c-.41-.42-1.16-.83-1.17-1.27C112.71,429.56,112.76,426.19,112.76,422.45Z" transform="translate(-64.03 -228.61)"/><path class="cls-1" d="M129.91,426.44v-.19l.25-1.34c1.41-.3,2,.11,1.84,1.57-.22,2.83-.27,5.67-.46,8.5,0,.4-.41.77-.64,1.15-.22-.39-.61-.78-.64-1.18C130.1,432.11,130,429.28,129.91,426.44Z" transform="translate(-64.03 -228.61)"/><path class="cls-1" d="M154.65,462.32c3.19.45,6.38.88,9.57,1.39.27.05.46.61.69.93-.29.21-.6.61-.87.59-2.92-.28-5.84-.57-8.74-1-.43-.06-.74-.91-1.11-1.39Z" transform="translate(-64.03 -228.61)"/><path class="cls-1" d="M164.75,447c-.76-.1-1.46-.17-2.15-.3-2.33-.43-4.67-.83-7-1.36-.44-.1-.76-.74-1.13-1.13.45-.16.93-.53,1.35-.46,2.6.38,5.18.9,7.78,1.28C164.71,445.21,165.07,445.69,164.75,447Z" transform="translate(-64.03 -228.61)"/><path class="cls-1" d="M164.28,460.89c-3.21-.54-6.12-1-9-1.57-.35-.07-.58-.75-.86-1.15.37-.16.76-.51,1.1-.46,2.85.44,5.69.92,8.52,1.48.38.08.7.69.9,1.12C165,460.41,164.39,460.79,164.28,460.89Z" transform="translate(-64.03 -228.61)"/><path class="cls-1" d="M67,428.23c-1.34.41-1.46-.28-1.48-1.09,0-2.37-.08-4.74-.14-7.12,0-.81-.07-1.61-.13-2.62l1.75.19Z" transform="translate(-64.03 -228.61)"/><path class="cls-1" d="M154.7,450.73c3.19.51,6.38,1,9.55,1.6.35.06.55.9.82,1.38l-.34.36c-2-.33-4.1-.65-6.15-1a21.17,21.17,0,0,1-3.15-.73c-.45-.15-.77-.69-1.16-1.05Z" transform="translate(-64.03 -228.61)"/><path class="cls-1" d="M154.63,453l10.23,1.8L165,456c-.18.11-.27.22-.34.21-3.15-.5-6.31-1-9.44-1.57-.36-.07-.59-.76-.89-1.17Z" transform="translate(-64.03 -228.61)"/><path class="cls-1" d="M154.67,471.94l6.7.88c.76.09,1.53.16,2.3.24,1,.11,1.49.58,1,1.92l-7.81-1.14a4.65,4.65,0,0,1-1.5-.29,5.07,5.07,0,0,1-1.12-1.06Z" transform="translate(-64.03 -228.61)"/><path class="cls-1" d="M161.67,440.09c-.22-.38-.64-.76-.65-1.15-.08-3.39-.1-6.78-.08-10.17,0-.31.44-.62.68-.94.28.34.82.69.81,1,0,3.68-.14,7.36-.23,11Z" transform="translate(-64.03 -228.61)"/><path class="cls-1" d="M164.72,458.67l-7.53-1.31a12.27,12.27,0,0,1-2.1-.46c-.28-.1-.44-.53-.65-.81.32-.21.68-.63,1-.59,2.89.42,5.79.88,8.66,1.45.42.08.73.75,1.09,1.15Z" transform="translate(-64.03 -228.61)"/><path class="cls-1" d="M164.71,463.21c-3.19-.52-6.37-1-9.53-1.6-.31-.06-.5-.68-.75-1.05.35-.17.73-.54,1-.49,2.79.41,5.57.92,8.36,1.33C164.81,461.55,165.23,461.89,164.71,463.21Z" transform="translate(-64.03 -228.61)"/><path class="cls-1" d="M154.64,467c3.21.35,6.41.67,9.61,1.08.26,0,.52.72.6,1.13,0,.13-.57.57-.83.54-2.9-.4-5.79-.84-8.68-1.34-.39-.07-.71-.54-1.06-.83Z" transform="translate(-64.03 -228.61)"/><path class="cls-1" d="M154.65,446c1.39.22,2.8.42,4.19.68,1.72.3,3.44.61,5.13,1,.36.09.6.65.89,1-.37.15-.77.48-1.11.43-2.84-.47-5.67-1-8.48-1.57-.38-.08-.65-.71-1-1.09Z" transform="translate(-64.03 -228.61)"/><path class="cls-1" d="M164.13,467.41c-3.08-.33-5.76-.58-8.41-1-.47-.06-.86-.63-1.28-1,.46-.17.93-.52,1.37-.48,2.67.25,5.33.55,8,.92.4.06.73.58,1.09.88Z" transform="translate(-64.03 -228.61)"/><path class="cls-1" d="M164.73,444.6c-2.37-.4-4.73-.78-7.1-1.19a17.79,17.79,0,0,1-2.41-.51c-.3-.09-.5-.51-.74-.78.28-.14.59-.45.85-.41,2.89.46,5.78,1,8.65,1.51.38.07.69.56,1,.86Z" transform="translate(-64.03 -228.61)"/><path class="cls-1" d="M164.62,442.48c-3.14-.51-6.29-1-9.43-1.55-.25,0-.46-.41-.68-.63.23-.14.48-.43.69-.4,3,.36,5.92.73,8.87,1.19.37.05.65.61,1,.93Z" transform="translate(-64.03 -228.61)"/><path class="cls-1" d="M175.79,436.69l2.41,1.7c-.3.25-.68.77-.88.7C176.48,438.82,175.06,439,175.79,436.69Z" transform="translate(-64.03 -228.61)"/><path class="cls-1" d="M175.22,434.49c1,.82,3.05,0,2.68,2.39C176.67,436.51,175.11,436.83,175.22,434.49Z" transform="translate(-64.03 -228.61)"/><path class="cls-1" d="M141.26,439.65c2.45-.08,3.21.4,3.11,2C143.27,441.1,141.72,441.4,141.26,439.65Z" transform="translate(-64.03 -228.61)"/><path class="cls-1" d="M144.53,450.21c-1.19-.15-2.36-.26-2.54-1.89C144.28,448.15,144.83,448.57,144.53,450.21Z" transform="translate(-64.03 -228.61)"/><path class="cls-1" d="M115.78,437.91l-3.2-1.1C114.38,435.69,115.73,436.19,115.78,437.91Z" transform="translate(-64.03 -228.61)"/><path class="cls-1" d="M141.77,441.44c1.08.62,2.59.32,2.83,2C142.4,443.5,141.58,443,141.77,441.44Z" transform="translate(-64.03 -228.61)"/><path class="cls-1" d="M175.82,439.52c1.19.14,2.47-.11,2.42,1.62C176.53,441.48,175.93,441.11,175.82,439.52Z" transform="translate(-64.03 -228.61)"/><path class="cls-1" d="M144.38,445.81c-1-.47-2.38-.27-2.65-1.77C143.66,443.71,144.44,444.19,144.38,445.81Z" transform="translate(-64.03 -228.61)"/><path class="cls-1" d="M144.45,448c-1-.58-2.5-.05-2.44-1.82C143.76,445.93,144.5,446.41,144.45,448Z" transform="translate(-64.03 -228.61)"/><path class="cls-1" d="M112.76,437.74l3.48,1.14C114.65,439.81,113.42,439.42,112.76,437.74Z" transform="translate(-64.03 -228.61)"/><path class="cls-1" d="M177.89,443.89l-1.82-1.52c.28-.18.6-.56.83-.51C177.71,442,178.54,442.29,177.89,443.89Z" transform="translate(-64.03 -228.61)"/><path class="cls-1" d="M178.16,445.73c-1.85-.25-2-.41-1.62-1.82C177.46,444.13,178.57,444.11,178.16,445.73Z" transform="translate(-64.03 -228.61)"/><path class="cls-1" d="M144.65,454.45,142,452.83C144.17,452.37,144.63,452.65,144.65,454.45Z" transform="translate(-64.03 -228.61)"/><path class="cls-1" d="M175.22,433.41a8.89,8.89,0,0,1,2-.06c.33.06.57.58.85.89l-.26.42-2.59-.65Z" transform="translate(-64.03 -228.61)"/><path class="cls-1" d="M115.6,441.2c-.87-.29-2.2.25-2.65-1.35C114.22,440,115.34,439.8,115.6,441.2Z" transform="translate(-64.03 -228.61)"/><path class="cls-1" d="M142.53,450.32l2.29,1.19-.24.43c-1-.06-2,.08-2.33-1.17Z" transform="translate(-64.03 -228.61)"/><path class="cls-1" d="M376.4,316.82c-6.55-2.51-12.91-2.36-19.62-.16A93.28,93.28,0,0,1,367.37,275C375.25,287.88,376.36,302.17,376.4,316.82Zm-10.77-12.34c2.18.34,4.49-.53,6.72.92-6.52,1.28-6.74,1.37-7,3.19,2.4.08,4.9-.65,7.59.52-2.7.86-5.45.44-7.4,3.11h7.34l.06-.38-5.34-.46,0-.34,6.8-1.51c-2.49-2.4-5.17-1.55-7.63-1.75l-.09-.44,7.08-1.54c-1.84-2.45-4.38-1.64-6.49-2.4a45.88,45.88,0,0,1,5.35-1.22,8.44,8.44,0,0,0,1.31-.51c-.34-.34-.62-.87-1-1-1.53-.43-3.11-.73-5.07-1.16l5.52-1.49c-1.79-2.25-4.19-1.45-6.25-2.23l4.68-1.67c-.67-2.25-2.55-1.78-4.08-2.32l3.83-1.25c-.22-2.22-2.11-1.79-3.4-2.42L369.9,287l0-.47-2.21-.74-.15.4,1.08.66L366,288.48l.16.44,4.34.59,0,.5c-1.57,1-4,.54-5.11,2.76l5.33.28v.54c-1.76,1.2-4.42,1-5.73,3.68h6.57l0,.43c-2.07.83-4.5.91-6.33,3,2.4.19,4.66-.63,7.08.56-1.55.38-2.76.58-3.89,1S366,302.77,365.63,304.48Z" transform="translate(-64.03 -228.61)"/><path class="cls-1" d="M357.74,317.51c4.28-2.34,12.1-2.27,17.49.08C372.9,320.06,360.55,320.05,357.74,317.51Z" transform="translate(-64.03 -228.61)"/><path class="cls-1" d="M459.46,290.45c.88,4.17,2,8.3,2.57,12.51.56,4.47.52,9,.76,13.8-6.86-1.73-13.35-3-20.33-.22.26-3.56.48-6.64.71-9.73.68-3.27,1.16-6.59,2.07-9.8,1.49-5.29,3.13-10.54,5-15.71.75-2.08,2.19-3.91,3.57-6.28,1.09,2.63,2.07,4.77,2.86,7C457.66,284.78,458.53,287.63,459.46,290.45ZM456,293.88l.81.88-2.64.84.14.44,3.75-.76.12-.62-2.09-.91-4-1.25,4.4-1.73.07-.48-3.36-1.8c.88-.1,1.58-.14,2.27-.28a3.46,3.46,0,0,0,.88-.48,3.36,3.36,0,0,0-.65-.93,5.75,5.75,0,0,0-1.29-.54l.9-.78-.24-.4-2.26,1.06.13.43,2,.68-3.38,1.4.13.52,3.9.9-4.7,2.52.18.73Zm3.16,4.66c-1.77-1.77-3.95-1.22-5.87-1.8l.57-.92-.25-.23-1.8,1.33.15.37,5.36.66,0,.41c-2.3.41-4.69.6-6.7,2.66,2.52.65,4.95,0,7.11,1.65-2.51.45-4.91,0-6.88,2,2.84,1,5.92.17,8.59,2.06-3.1.95-6.51-.34-9.35,2.34,3.09.73,6.17.16,8.6,2.44-3.1.57-6.2-.39-9,1,2.11,0,4.21-.12,6.3-.21.77,0,1.56.1,2.32,0a3.81,3.81,0,0,0,1.15-.62c-.23-.37-.38-.95-.7-1.06-1.76-.65-3.56-1.21-5.36-1.75a9.69,9.69,0,0,0-1.53-.19,3,3,0,0,1,1.64-.69c1.69-.15,3.4-.2,5.08-.41.51-.07,1-.56,1.43-.86a12,12,0,0,0-1.25-1.22,2.62,2.62,0,0,0-1-.29l-5-.95v-.41l6.32-.76c-1.87-2.49-4.45-2.11-6.71-2.53v-.48Z" transform="translate(-64.03 -228.61)"/><path class="cls-1" d="M418.19,301.25c.06,1.56.13,3.11.16,4.67.08,3.3.14,6.59.19,9.89a6.53,6.53,0,0,1-.23,1.16c-6.41-1.76-12.75-2.53-19.51,0,.23-3.81.32-7.34.68-10.84a82.84,82.84,0,0,1,3.81-19.34c0-.13,0-.3,0-.45,1.14-2.68,2.24-5.38,3.43-8,.54-1.21,1.26-2.33,2.06-3.79a18.77,18.77,0,0,1,1.17,1.67,72.55,72.55,0,0,1,7.78,23.27A13.55,13.55,0,0,0,418.19,301.25Zm-6.45-6.46,2.06-.19c-.67-2.39-2.74-1.69-4.3-2.55,1-.25,1.82-.39,2.58-.65a6,6,0,0,0,1.2-.74c-.32-.41-.57-1-1-1.2a31.86,31.86,0,0,0-3.23-1.12l3.35-1.45,0-.63-2.27-.86-.16.4,1.31.8-3.61,1.65.06.61,4.52,1.26-.07.41c-1.6.37-3.29.56-4.64,2.21l4.88.79v.38l-1,.54a5.47,5.47,0,0,0-4.57,2c2.58.72,5.18.05,7.51,1.8-2.49.84-5.11.26-6.64,2.88,2.32.42,4.65-.55,6.82,1.19-2.68.46-5.34.08-7.24,2.55,2.59.42,5.12-.14,7.29,1.58-2.17,1.26-5.05.45-6.54,2.86,2.63.37,5.32.16,7.42,2.5h-7.09l.05.73c2.75,0,5.53.51,8.47-.67-2-2.49-4.64-2.72-7.24-3.4L415.7,307c-1.57-2.74-4.18-2.28-6.31-3a12.78,12.78,0,0,1,2.93-.84c1-.15,2.08-.16,3.13-.23l.08-.59c-1.37-2-3.71-1.7-5.85-2.36l5.5-1.19c-1.15-3-4.14-2-6.42-3.09Z" transform="translate(-64.03 -228.61)"/><path class="cls-1" d="M399.55,317.91c3.41-2.37,13.36-2.4,17.86-.12C414.55,320.3,404.83,320.4,399.55,317.91Z" transform="translate(-64.03 -228.61)"/><path class="cls-1" d="M443.11,317.27c3.72-2.3,13-2.2,18.43.2C458.17,320.07,446.35,320,443.11,317.27Z" transform="translate(-64.03 -228.61)"/><path class="cls-1" d="M147.39,397.53c.23.11.52.37.69.3,1.86-.71,3.41-.05,4.93,1l16,10.59c1.36.91,2.7,1.85,4.41,3l-5.22,1.79c-6.7,2.34-13.42,4.66-20.09,7.08-.79.28-1.37,1.13-2.19,1.84-2.2-2-4.56-3.95-6.79-6.07-3.72-3.57-7.38-7.2-11-10.85a3.62,3.62,0,0,1-1.48-3.19,14.2,14.2,0,0,1,1.66,1.08c4,3.63,8,7.29,12,10.93a4.54,4.54,0,0,0,.5.36c1.28,1.32,2.57,2.63,3.86,3.95l.46-.47-4-3.82-11.76-11.1c-.4-.38-.82-.75-1.48-1.35,2.24-.63,4.18-1.26,6.16-1.71,4-.91,8-1.71,12.05-2.61a5.49,5.49,0,0,0,1.36-.74Zm-9.3,5.78-.53,2.22h-2.5l3.18,3.19.2-.15-1.61-2.17,1.6.14.25-1.55,2.74,2.4.43-.49Zm8,.13.18-.26c.5.23,1,.48,1.5.67s1.11.35,1.66.53l.4-.46-1.88-2.59-.41.28.55,1.41-3.51-.86-.24.54,2.52,2.63.34-.31Zm-3,5.33.23.62,9.92-3.51-.19-.53Zm-.64-5.54-.27-.39-1.56.69c.22.48.41,1,.66,1.43a4.37,4.37,0,0,0,.61.69c1.51,1.67,1.87,1.66,3.76-.43a10.37,10.37,0,0,1-1.53.44,5.41,5.41,0,0,1-1.13-.07l.51-1-2-.2-.13-.56Zm11.75-1c-1-.93-1.69-1.59-2.4-2.25l-.16.28.61,2.53-.43.14-2.19-1.79-.46.61c.77.59,1.48,1.52,2.32,1.67S153,402.79,154.13,402.26Zm-1.46,5.5-.22-.54-5.91,2.29.23.56Z" transform="translate(-64.03 -228.61)"/><path class="cls-1" d="M147,423a7.79,7.79,0,0,1,1.72-1.21c7-2.48,14-4.9,21-7.34,1-.34,1.93-.73,2.92-1a3.48,3.48,0,0,1,1.3.15c-.24.42-.39,1.08-.74,1.22-2.11.82-4.28,1.5-6.41,2.27-5.37,1.94-10.74,3.92-16.12,5.83a29,29,0,0,1-3.34.79Z" transform="translate(-64.03 -228.61)"/><path class="cls-1" d="M141.06,415l4,3.82-.46.47c-1.29-1.32-2.58-2.63-3.86-3.95Z" transform="translate(-64.03 -228.61)"/><path class="cls-1" d="M113,386.45l-.31-2A29.62,29.62,0,0,1,94,384v7h-.62a79.1,79.1,0,0,1,.19-11.62l.48-.05a5.47,5.47,0,0,1,.18,1.59c-.27,1.68.6,2.37,2,2.85a28.3,28.3,0,0,0,11.16,1,35,35,0,0,0,3.63-.65,2.18,2.18,0,0,0,2-2.58,2.21,2.21,0,0,1,.46-1.51v6.38Z" transform="translate(-64.03 -228.61)"/><path class="cls-1" d="M106,396.56c-.21,1.53-.31,3.09-.64,4.6a35.47,35.47,0,0,1-1.51,5.16,2.51,2.51,0,0,1-1.62,1.39c-.39.06-1.09-.83-1.38-1.43a8.21,8.21,0,0,1-.57-2.38,54.87,54.87,0,0,1,.22-14.65c0-.12.16-.23.57-.32,0,1-.17,2-.16,3,0,4.06,0,8.13.21,12.19a7.85,7.85,0,0,0,1.15,2.54,8.59,8.59,0,0,0,1.54-2.25c.56-2,.88-4,1.28-6,.12-.64.19-1.28.29-1.93Z" transform="translate(-64.03 -228.61)"/><path class="cls-1" d="M108.71,395.22c0,3.53-.65,7.12.71,10.51l.58.11,1.38-4c.49,1.24-.1,3.86-1.06,4.53s-1.48-.05-1.79-.75a6.19,6.19,0,0,1-.5-2.24c0-2.74,0-5.48,0-8.21Z" transform="translate(-64.03 -228.61)"/><path class="cls-1" d="M94.1,398c1.06,2.71.25,6.08,2.79,8.35,1.7-1.38.8-3.38,1.4-5,.81,1.21.46,4.7-.62,5.36a1.77,1.77,0,0,1-1.7-.21,6.12,6.12,0,0,1-1.36-2.53c-.44-1.94-.65-3.92-1-5.89Z" transform="translate(-64.03 -228.61)"/><path class="cls-1" d="M164.91,374.47c.07.23.23.47.2.67-.35,2,1,2.77,2.53,2.94a40.19,40.19,0,0,0,7.35.24c1.74-.13,2.92-.39,2.83-2.86a4.37,4.37,0,0,1,.28-1.09c1,2.43.36,3.81-1.86,4.46a16.08,16.08,0,0,1-9.44-.19l-1.17-.39c-.08,0-.19,0-.42.06l-.25,3.53-.41,0v-7.3Z" transform="translate(-64.03 -228.61)"/><path class="cls-1" d="M170.28,383.11c.66,4-.58,8.07,1.24,12.35l1.34-2.71.5.2a12,12,0,0,1-1.15,2.72c-.6.82-1.29.11-1.55-.46a7.79,7.79,0,0,1-.76-2.81c-.07-2.68,0-5.36.06-8A5.6,5.6,0,0,1,170.28,383.11Z" transform="translate(-64.03 -228.61)"/><path class="cls-1" d="M167.44,394.24l.87-1.66.51.25-1.11,2.08c-.57-.4-1.41-.67-1.67-1.22-1.2-2.53-1.11-5.23-.67-8C166.1,388.46,165.19,391.59,167.44,394.24Z" transform="translate(-64.03 -228.61)"/><path class="cls-1" d="M175.17,387.27l.56,6.35.59.12,1.21-3.62a4.55,4.55,0,0,1-.85,4.26c-.63.78-1.29.24-1.5-.46A10.44,10.44,0,0,1,175.17,387.27Z" transform="translate(-64.03 -228.61)"/><path class="cls-1" d="M98.13,371.82l-.6,2.26,2,.14a5.86,5.86,0,0,0,1,1.83c.2.19,1-.31,1.67-.53,2.32,1.53,3.79.89,4-1.9.9.84,1,1.5.19,2.41a2.89,2.89,0,0,1-3.46,1,2,2,0,0,0-1.14-.19A2.08,2.08,0,0,1,99,375.63a1,1,0,0,0-.72-.45c-.91-.08-1.81-.34-1.64-1.37a7.54,7.54,0,0,1,1.23-2.22Z" transform="translate(-64.03 -228.61)"/><path class="cls-1" d="M169.55,369c-.38,1-.66,1.77,1,1.76.72,0,1.46.79,2.38,1.35-.27.11-.81.53-1.08.4a15.54,15.54,0,0,1-3.1-2c-.21-.17.21-1.08.35-1.65Z" transform="translate(-64.03 -228.61)"/><path class="cls-1" d="M365.63,304.48c.4-1.71,1.76-1.86,2.85-2.25s2.34-.61,3.89-1c-2.42-1.19-4.68-.37-7.08-.56,1.83-2.07,4.26-2.15,6.33-3l0-.43H365c1.31-2.65,4-2.48,5.73-3.68v-.54l-5.33-.28c1.11-2.22,3.54-1.76,5.11-2.76l0-.5-4.34-.59-.16-.44,2.66-1.67-1.08-.66.15-.4,2.21.74,0,.47-1.78,1.19c1.29.63,3.18.2,3.4,2.42l-3.83,1.25c1.53.54,3.41.07,4.08,2.32l-4.68,1.67c2.06.78,4.46,0,6.25,2.23l-5.52,1.49c2,.43,3.54.73,5.07,1.16.4.11.68.64,1,1a8.44,8.44,0,0,1-1.31.51,45.88,45.88,0,0,0-5.35,1.22c2.11.76,4.65,0,6.49,2.4l-7.08,1.54.09.44c2.46.2,5.14-.65,7.63,1.75l-6.8,1.51,0,.34,5.34.46-.06.38h-7.34c1.95-2.67,4.7-2.25,7.4-3.11-2.69-1.17-5.19-.44-7.59-.52.26-1.82.48-1.91,7-3.19C370.12,304,367.81,304.82,365.63,304.48Z" transform="translate(-64.03 -228.61)"/><path class="cls-1" d="M459.18,298.54l-6.84,1.61v.48c2.26.42,4.84,0,6.71,2.53l-6.32.76v.41l5,.95a2.62,2.62,0,0,1,1,.29,12,12,0,0,1,1.25,1.22c-.47.3-.92.79-1.43.86-1.68.21-3.39.26-5.08.41a3,3,0,0,0-1.64.69,9.69,9.69,0,0,1,1.53.19c1.8.54,3.6,1.1,5.36,1.75.32.11.47.69.7,1.06a3.81,3.81,0,0,1-1.15.62c-.76.08-1.55-.05-2.32,0-2.09.09-4.19.21-6.3.21,2.77-1.42,5.87-.46,9-1-2.43-2.28-5.51-1.71-8.6-2.44,2.84-2.68,6.25-1.39,9.35-2.34-2.67-1.89-5.75-1.08-8.59-2.06,2-2,4.37-1.57,6.88-2-2.16-1.69-4.59-1-7.11-1.65,2-2.06,4.4-2.25,6.7-2.66l0-.41-5.36-.66-.15-.37,1.8-1.33.25.23-.57.92C455.23,297.32,457.41,296.77,459.18,298.54Z" transform="translate(-64.03 -228.61)"/><path class="cls-1" d="M456,293.88l-4.94-.56-.18-.73,4.7-2.52-3.9-.9-.13-.52,3.38-1.4-2-.68-.13-.43,2.26-1.06.24.4-.9.78a5.75,5.75,0,0,1,1.29.54,3.36,3.36,0,0,1,.65.93,3.46,3.46,0,0,1-.88.48c-.69.14-1.39.18-2.27.28l3.36,1.8-.07.48-4.4,1.73,4,1.25Z" transform="translate(-64.03 -228.61)"/><path class="cls-1" d="M456.11,293.75l2.09.91-.12.62-3.75.76-.14-.44,2.64-.84-.81-.88Z" transform="translate(-64.03 -228.61)"/><path class="cls-1" d="M411.74,294.79l-3,.93c2.28,1.09,5.27,0,6.42,3.09l-5.5,1.19c2.14.66,4.48.33,5.85,2.36l-.08.59c-1.05.07-2.1.08-3.13.23a12.78,12.78,0,0,0-2.93.84c2.13.74,4.74.28,6.31,3l-6.06,1.42c2.6.68,5.27.91,7.24,3.4-2.94,1.18-5.72.68-8.47.67l-.05-.73h7.09c-2.1-2.34-4.79-2.13-7.42-2.5,1.49-2.41,4.37-1.6,6.54-2.86-2.17-1.72-4.7-1.16-7.29-1.58,1.9-2.47,4.56-2.09,7.24-2.55-2.17-1.74-4.5-.77-6.82-1.19,1.53-2.62,4.15-2,6.64-2.88-2.33-1.75-4.93-1.08-7.51-1.8a5.47,5.47,0,0,1,4.57-2Z" transform="translate(-64.03 -228.61)"/><path class="cls-1" d="M411.74,294.79l-.34-.34,1-.54v-.38l-4.88-.79c1.35-1.65,3-1.84,4.64-2.21l.07-.41-4.52-1.26-.06-.61,3.61-1.65-1.31-.8.16-.4,2.27.86,0,.63-3.35,1.45a31.86,31.86,0,0,1,3.23,1.12c.42.2.67.79,1,1.2a6,6,0,0,1-1.2.74c-.76.26-1.56.4-2.58.65,1.56.86,3.63.16,4.3,2.55Z" transform="translate(-64.03 -228.61)"/><path class="cls-1" d="M138.09,403.31l3.76,3.59-.43.49-2.74-2.4-.25,1.55-1.6-.14,1.61,2.17-.2.15-3.18-3.19h2.5Z" transform="translate(-64.03 -228.61)"/><path class="cls-1" d="M146.06,403.44l1.11,1.58-.34.31-2.52-2.63.24-.54,3.51.86-.55-1.41.41-.28,1.88,2.59-.4.46c-.55-.18-1.12-.32-1.66-.53s-1-.44-1.5-.67Z" transform="translate(-64.03 -228.61)"/><path class="cls-1" d="M143,408.77l10-3.42.19.53-9.92,3.51Z" transform="translate(-64.03 -228.61)"/><path class="cls-1" d="M142.38,403.23l-1.09.57.13.56,2,.2-.51,1a5.41,5.41,0,0,0,1.13.07,10.37,10.37,0,0,0,1.53-.44c-1.89,2.09-2.25,2.1-3.76.43a4.37,4.37,0,0,1-.61-.69c-.25-.46-.44-.95-.66-1.43l1.56-.69Z" transform="translate(-64.03 -228.61)"/><path class="cls-1" d="M154.13,402.26c-1.12.53-2,1.32-2.71,1.19s-1.55-1.08-2.32-1.67l.46-.61,2.19,1.79.43-.14-.61-2.53.16-.28C152.44,400.67,153.15,401.33,154.13,402.26Z" transform="translate(-64.03 -228.61)"/><path class="cls-1" d="M152.67,407.76l-5.9,2.31-.23-.56,5.91-2.29Z" transform="translate(-64.03 -228.61)"/></svg>