<svg xmlns="http://www.w3.org/2000/svg" id="圖層_1" data-name="圖層 1" viewBox="0 0 82.72 24.45">
    <defs>
        <style>
            .cls-1{stroke:#FFECCC;stroke-miterlimit:10;}
        </style>
    </defs>
    <title>
        未命名-1
    </title>
    <path fill="#FFECCC" d="M17.8.09v7H23v-7h1.61V13.71H23v-5H17.8v5H16.2V.09Z" transform="translate(-0.08 0)"/>
    <path fill="#FFECCC" d="M34.24.09V1.7H28.69V7.1h4.76V8.71H28.69V12.1h5.55v1.61H27.09V.09Z" transform="translate(-0.08 0)"/>
    <path fill="#FFECCC" d="M38.53,10h-.61V13.7H36.31V.09h2.12a4.92,4.92,0,0,1,2.72,9.14l2.62,4.48H41.92L39.65,9.84A5.38,5.38,0,0,1,38.53,10Zm3.41-5a3.34,3.34,0,0,0-3.51-3.3h-.51V8.39h.59A3.43,3.43,0,0,0,41.94,5Z" transform="translate(-0.08 0)"/>
    <path fill="#FFECCC" d="M47,11.8a6.77,6.77,0,0,1-2-4.87,6.88,6.88,0,0,1,2-4.88,7,7,0,0,1,5-2,7.41,7.41,0,0,1,1.41.14L53,1.68a6.48,6.48,0,0,0-1.08-.1A5.4,5.4,0,0,0,48.1,3.15a5.29,5.29,0,0,0-1.58,3.78,5.22,5.22,0,0,0,1.56,3.75,5.48,5.48,0,0,0,3.85,1.54A5,5,0,0,0,53,12.1l.33,1.54a6.21,6.21,0,0,1-1.43.16A7,7,0,0,1,47,11.8Z" transform="translate(-0.08 0)"/>
    <path fill="#FFECCC" d="M57,.09v7h5.21v-7h1.6V13.71h-1.6v-5H57v5h-1.6V.09Z" transform="translate(-0.08 0)"/>
    <path fill="#FFECCC" d="M73.48.09V1.7H67.93V7.1h4.76V8.71H67.93V12.1h5.55v1.61H66.33V.09Z" transform="translate(-0.08 0)"/>
    <path fill="#FFECCC" d="M82.8.09V1.7H77.26V7.1h4.38V8.69H77.26v5H75.65V.09Z" transform="translate(-0.08 0)"/>
    <path fill="#FFECCC" d="M13.77,11.09a7.11,7.11,0,0,1-1.07,1.32,7.63,7.63,0,0,1-10.45,0,6.79,6.79,0,0,1,0-9.95,7.63,7.63,0,0,1,10.45,0,7.16,7.16,0,0,1,1,1.2l-1.45.84a5.55,5.55,0,0,0-.76-.92,5.84,5.84,0,0,0-8,0,5.29,5.29,0,0,0,0,7.7,5.81,5.81,0,0,0,8,0,5.25,5.25,0,0,0,.84-1Z" transform="translate(-0.08 0)"/>
    <path fill="#FFECCC" d="M10.94,9.85a4.48,4.48,0,0,1-.62.76,4.39,4.39,0,0,1-6,0,3.92,3.92,0,0,1-1.24-2.7l1,0A3.06,3.06,0,0,0,5,10a3.33,3.33,0,0,0,4.62,0,3.14,3.14,0,0,0,.49-.6Z" transform="translate(-0.08 0)"/>
    <g fill="#FFECCC"  id="taaCAP.tif">
        <path id="Path_43" d="M41.44,20.85l.26-.28a3,3,0,0,1,1-.75,2.45,2.45,0,0,1,1.13-.18,2.84,2.84,0,0,1,.92.18l.67.31a5.14,5.14,0,0,1,.93.61,9.89,9.89,0,0,0,1.23.79,3.54,3.54,0,0,0,1.07.39,1.73,1.73,0,0,0,.93,0,1.41,1.41,0,0,0,.59-.4.56.56,0,0,0,.12-.58.31.31,0,0,0-.33-.24,1.4,1.4,0,0,0-.54.1,3.58,3.58,0,0,1-.35.09c-.14,0-.22,0-.24-.19a.45.45,0,0,1,.12-.37,1.76,1.76,0,0,1,.92-.51,1.17,1.17,0,0,1,.91.18,3.2,3.2,0,0,1,.81.79.9.9,0,0,1,.16.5A2.42,2.42,0,0,1,51.07,23a4.34,4.34,0,0,1-2,1.15,9.07,9.07,0,0,1-1.16.2,12.55,12.55,0,0,1-1.62.07A8.17,8.17,0,0,1,43.81,24a4.89,4.89,0,0,1-1.66-.94,4.52,4.52,0,0,1-.51-.56l-.17-.18s-.06,0-.1,0l-.06.06a3.72,3.72,0,0,1-.56.63,4.07,4.07,0,0,1-1.43.88,6.81,6.81,0,0,1-1.53.42,6.23,6.23,0,0,1-1.06.08l-1.46,0a5.91,5.91,0,0,1-2.43-.62,3.73,3.73,0,0,1-1.26-1,2.17,2.17,0,0,1-.48-1.16c0-.18,0-.37,0-.55a.47.47,0,0,1,.07-.22A2.91,2.91,0,0,1,32,20a1.4,1.4,0,0,1,.74-.25,1.3,1.3,0,0,1,.9.33,1.57,1.57,0,0,1,.34.34.29.29,0,0,1,.06.22.27.27,0,0,1-.3.22h0a.66.66,0,0,1-.21-.08,1.41,1.41,0,0,0-.49-.12l-.22,0a.3.3,0,0,0-.22.17.57.57,0,0,0-.06.36.35.35,0,0,0,.06.14,1.33,1.33,0,0,0,1,.59,2.55,2.55,0,0,0,1.13-.17,6.35,6.35,0,0,0,1.47-.8l.72-.53a4.91,4.91,0,0,1,1.4-.68,3.11,3.11,0,0,1,1-.1,2.29,2.29,0,0,1,.82.15,3,3,0,0,1,1.1.7Z" data-name="Path 43" transform="translate(-0.08 0)"/>
    </g>
    <line  x1="29.41" x2="4.39" y1="22.04" y2="22.04" class="cls-1"/>
    <line x1="78.33" x2="53.31" y1="22.04" y2="22.04" class="cls-1"/>
</svg>
